<?xml version="1.0" encoding="UTF-8"?>
<!-- Generator: visioncortex VTracer 0.6.4 -->
<svg version="1.1" xmlns="http://www.w3.org/2000/svg" width="500" height="500">
<path d="M0 0 C165 0 330 0 500 0 C500 165 500 330 500 500 C335 500 170 500 0 500 C0 335 0 170 0 0 Z " fill="#FEFEFE" transform="translate(0,0)"/>
<path d="M0 0 C3.71446162811867 2.940615455593985 7.390269203059233 5.93172882260032 11 9 C12.980000000000018 10.650000000000006 14.960000000000036 12.300000000000011 17 14 C46.86893093469325 46.16654100659272 59.50152854215855 83.51027331529852 58 127 C55.16377112719738 156.6799068657847 43.46118134468617 184.43631148442182 24 207 C22.019999999999982 209.31 20.039999999999964 211.62 18 214 C15.386143126522825 216.3923435791147 12.712410225384247 218.72000299895234 10 221 C8.411875000000009 222.40250000000003 6.823750000000018 223.805 5.1875 225.25 C-26.02615958584863 249.21200129822728 -64.02958766890885 258.5493439993263 -103.0234375 254.3515625 C-140.87041923680118 248.03473387916443 -174.06456664090035 228.36926513335425 -196.98828125 197.37109375 C-218.48151230876968 166.17663777754444 -227.0569831765122 129.64502313588616 -222.08984375 92.125 C-215.14495401933493 55.323783678019225 -196.63714938837788 24.17086224909542 -167 1 C-115.32545719143823 -33.81584261316223 -51.70179166922105 -35.793548078691515 0 0 Z " fill="#000000" transform="translate(355,148)"/>
<path d="M0 0 C3.41971064448137 2.55495622863549 6.768316964122619 5.211013270407193 10 8 C11.464375000000018 9.196249999999992 12.928750000000036 10.392499999999984 14.4375 11.625 C34.71069668540281 31.065051616139726 47.14662941265283 57.496301548473866 48.2109375 85.5625 C48.69856823626651 115.57054530870755 40.730763966501286 140.9807753724151 21 164 C19.350000000000023 165.64999999999998 17.69999999999999 167.3 16 169 C14.845000000000027 170.2375 13.689999999999998 171.47500000000002 12.5 172.75 C-9.830730204261044 193.84013408180215 -38.61403211760501 201.61101181409163 -68.66015625 201.30859375 C-98.89928388551928 199.83669536231912 -125.06086949690186 185.06160448218952 -145.4375 163.25 C-148 160 -148 160 -148 159 C-145.03 159 -142.06 159 -139 159 C-140.98 156.69 -142.96 154.38 -145 152 C-143.07460321715863 142.3730160857931 -137.93489804284388 135.60083433557202 -132 128 C-129.93991172912274 124.3667534131801 -127.92395543947526 120.70713365167182 -126 117 C-120.90247036022478 118.69917654659173 -118.97041841578988 122.67430762263155 -116 127 C-114.00390625 132.48046874999994 -114.00390625 132.48046874999994 -112.5625 138.1875 C-112.0687890625 140.0785546875 -111.575078125 141.969609375 -111.06640625 143.91796875 C-110 149 -110 149 -110 155 C-105.05000000000001 155 -100.1 155 -95 155 C-96.27735009811263 151.98304964025374 -96.27735009811263 151.98304964025374 -103 149 C-107.86823939666226 144.13176060333774 -107.8564859987302 134.06439550941764 -108.75 127.4375 C-110.69172180168584 118.99101016266661 -114.82402538528751 111.90129948628328 -120 105 C-119.69086952235835 97.5808685366004 -118.27464854509873 90.30798499189945 -117 83 C-110 81 -110 81 -108 82 C-108.99000000000001 84.63999999999999 -109.97999999999999 87.27999999999997 -111 90 C-111 99.53726927697915 -110.78043766562774 102.33138124472214 -106 110 C-102.51674256803281 113.44653892908553 -102.51674256803281 113.44653892908553 -98 117 C-95.52897512047235 119.27797606081458 -93.07191757682955 121.57114816858996 -90.625 123.875 C-84.8103646281211 129.3200855567843 -78.94980643184394 134.702227149728 -73 140 C-71.59749999999997 141.299375 -70.195 142.59875 -68.75 143.9375 C-62.04813135144212 149.41069272965558 -57.810815219303436 149 -49 149 C-38.76681068748178 144.45191586110303 -33.235066681773446 138.19110012908504 -26 130 C-24.12312499999996 127.958125 -22.246250000000032 125.91624999999999 -20.3125 123.8125 C-18.55937499999999 121.89437499999997 -16.806249999999977 119.97625 -15 118 C-13.040624999999977 115.9375 -11.081250000000011 113.875 -9.0625 111.75 C-3.4328860607026854 105.35587058746478 -0.21646052118421721 100.59752625421044 0.5 92 C-0.5581455399833999 79.3022535201992 -8.70651297302004 72.6025591210946 -17.80078125 64.6953125 C-23.602378348059403 59.58990705370772 -29.123431020678822 54.205630965324644 -34.68359375 48.83984375 C-44.272098650589726 40.30997920947539 -50.18519242239819 37.36560358526725 -63 38 C-70.9925335897504 41.9962667948752 -75.70350951553945 46.33443068767974 -81.5 53.0625 C-85 57 -85 57 -92 63 C-92.99000000000001 64.97999999999999 -92.99000000000001 64.97999999999999 -94 67 C-99.58026811953394 72.58026811953394 -104.28159606604927 72.2015444206258 -112 73 C-114.63999999999999 73 -117.28 73 -120 73 C-120 72.34 -120 71.68 -120 71 C-118.01999999999998 70.505 -118.01999999999998 70.505 -116 70 C-115.34 67.36000000000001 -114.68 64.72 -114 62 C-113.505 60.02000000000001 -113.505 60.02000000000001 -113 58 C-118.80394276744164 54.36281399418536 -118.80394276744164 54.36281399418536 -125 56 C-125.32999999999998 56.329999999999984 -125.66 56.66 -126 57 C-125.8453125 59.78437500000001 -125.8453125 59.78437500000001 -125.6875 62.625 C-126 69 -126 69 -132 76 C-132.98254692223537 81.33382614927763 -132.99544406394898 86.20501712229566 -132.875 91.625 C-133 97 -133 97 -136 105 C-136.144375 107.0625 -136.28875 109.125 -136.4375 111.25 C-137.32291864941055 121.87502379292653 -140.35712990060037 128.97140784096058 -146 138 C-147.68402165464272 142.66043202098797 -149.35308623173339 147.3263257927569 -151 152 C-151.66 152.33000000000004 -152.32 152.65999999999997 -153 153 C-169.37338304362402 125.61692835807708 -174.58761264705151 98.66366098411885 -169.375 67.1875 C-160.23250821018058 35.66996251404356 -142.43861152348194 10.857515082325392 -113.8125 -5.75 C-75.80318328740799 -24.08073430110821 -36.092475133541654 -22.07308396596764 0 0 Z " fill="#FFFFFF" transform="translate(334,171)"/>
<path d="M0 0 C9.436257899943314 0 11.548406792375374 0.18537059188443017 19.125 4.5 C27.62737986147559 9.274299956877105 36.262709578184115 13.66668076114792 45 18 C48.43810033170985 19.717548811998277 51.8755722171949 21.436356041558835 55.3125 23.15625 C57.06562500000001 24.0328125 58.818749999999994 24.909375 60.625 25.8125 C72.8125 31.906250000000007 72.8125 31.906250000000007 85 38 C82.23973386441901 46.28079840674302 78.18782918597509 53.86759996505523 74.2734375 61.6484375 C73.4106216430664 63.37123931884766 72.54780578613281 65.09404113769531 71.65884399414063 66.86904907226563 C68.90130944818503 72.3729202126809 66.13822517124783 77.87398399826087 63.375 83.375 C61.50484225141682 87.10528523934524 59.63504609471846 90.83575178434866 57.765625 94.56640625 C53.1812770152344 103.713046865797 48.591949690193815 112.8571735148735 44 122 C37.83836834486627 119.9461227816221 32.41752417150957 117.3053357573519 26.625 114.375 C24.637265624999998 113.372109375 22.649531249999995 112.36921875 20.6015625 111.3359375 C19.083046875000008 110.565078125 17.564531249999987 109.79421875 16 109 C18.28206045226179 102.1538186432146 21.37200636392538 96.06720308320659 24.625 89.625 C25.813515625000008 87.266015625 27.002031249999987 84.90703125 28.2265625 82.4765625 C29.14179687500001 80.669296875 30.057031249999994 78.86203125 31 77 C8.0939174050406 87.96910997505097 -11.955206691297974 100.95520669129797 -30 119 C-31.650000000000006 120.65 -33.3 122.3 -35 124 C-73.732029932804 164.34586451333752 -89.61615541862746 217.06787720864935 -89.24609375 272.0546875 C-88.58584881216127 296.0540669865186 -82.55663600433255 318.66926701308336 -74 341 C-74.33 341.99 -74.66 342.98 -75 344 C-78.52734300935538 345.68509208120196 -82.12449118998316 347.2255253434932 -85.75 348.6875 C-88.712265625 349.89986328125 -88.712265625 349.89986328125 -91.734375 351.13671875 C-96.99999999999994 353 -96.99999999999994 353 -102 353 C-105 348 -105 348 -106 339 C-105.34 338.67 -104.68 338.34 -104 338 C-103.67 337.01 -103.34 336.02 -103 335 C-102.34 335 -101.68 335 -101 335 C-102.61649316867036 327.7257807409834 -104.62900247036517 321.03650879762597 -107 314 C-108 309 -108 309 -108 300 C-107.00999999999999 300 -106.02 300 -105 300 C-100.66555634878378 289.1638908719595 -101.56045745286866 278.5163403770507 -103 267 C-105.51563830639364 274.5469149191809 -106.8727951365243 281.1900805887755 -108 289 C-108.33 289.66 -108.66 290.32 -109 291 C-109.66 291 -110.32 291 -111 291 C-111.33 288.36 -111.66 285.72 -112 283 C-112.66 283 -113.32 283 -114 283 C-114.33 283.66 -114.66 284.32 -115 285 C-116.73172610649878 275.7903657063474 -117.49999698353756 266.7988557890078 -117.875 257.4375 C-117.996171875 254.7962109375 -118.11734375 252.154921875 -118.2421875 249.43359375 C-118.00798714678102 242.24515387619797 -116.72078809408471 237.56906230497884 -114 231 C-114 229.35 -114 227.7 -114 226 C-113.34 225.01 -112.68 224.02 -112 223 C-109.64753780246039 216.9967059607707 -109.64753780246039 216.9967059607707 -110 210.3125 C-110 203.85864119396507 -109.35818068587395 198.28158567216698 -108 192 C-107.34 192 -106.68 192 -106 192 C-106.33 190.35 -106.66 188.7 -107 187 C-105.13051432707732 181.61952903890548 -103.1088298153707 176.29124571856647 -101 171 C-100.0925 168.586875 -99.185 166.17375 -98.25 163.6875 C-83.26567639138065 128.24381146422732 -58.77146032823589 98.07859524617692 -28 75 C-25.916875000000005 73.411875 -23.83375000000001 71.82375 -21.6875 70.1875 C-6.972308520045033 60.257736643607636 8.486767637107505 51.56776287160497 25 45 C25.330000000000013 44.67 25.659999999999997 44.34 26 44 C23.071249999999992 42.55625 20.142500000000013 41.1125 17.125 39.625 C7.2481124821775325 34.69360109666495 -2.3872563187327387 29.4265488523283 -12 24 C-10.565719077069588 20.93599106820527 -9.127457586294724 17.873845235296447 -7.6875 14.8125 C-6.486738281249984 12.25435546875 -6.486738281249984 12.25435546875 -5.26171875 9.64453125 C-3 4.999999999999981 -3 4.999999999999981 0 0 Z " fill="#000000" transform="translate(159,0)"/>
<path d="M0 0 C4.5 3.5625 4.5 3.5625 10 9 C12.827659642339995 11.672682142711778 15.661463747406401 14.338872263193508 18.5 17 C19.956640624999977 18.37671875000001 21.41328125000001 19.75343749999999 22.9140625 21.171875 C26.192391994111063 24.243350051844033 29.525235654319943 27.256593563434848 32.875 30.25 C38.64343240739902 35.49402946127185 39.86714340779338 37.070003854553875 41 45 C37.16046843217504 52.67906313564998 31.89936950818344 57.763523662777516 26 64 C20.101193479474944 70.38034174669036 14.214482437489437 76.75900849720284 8.4375 83.25 C4 88 4 88 1 89 C-10.407038419746925 89 -14.189919930450856 84.42661922445103 -22 77 C-23.451484375000007 75.64261718749998 -24.902968750000014 74.28523437500002 -26.3984375 72.88671875 C-29.27363342450559 70.18965451017147 -32.13910388592018 67.48216375204004 -34.9921875 64.76171875 C-37.73630437236295 62.18610028208036 -40.53701434410277 59.669838744987715 -43.3828125 57.20703125 C-47 54 -47 54 -49 51 C-49 38.228520693595385 -45.054238860757465 35.10977637939797 -36.4375 26.375 C-34.97312500000001 24.931250000000006 -33.50874999999999 23.48750000000001 -32 22 C-29.654158306828123 19.34433015867333 -27.32216710696227 16.67639598768531 -25 14 C-11.272727272727252 -1.2525252525252597 -11.272727272727252 -1.2525252525252597 0 0 Z " fill="#FFFFFF" transform="translate(283,220)"/>
<path d="M0 0 C2.3100000000000023 0 4.6200000000000045 0 7 0 C8.649999999999977 2.969999999999999 10.300000000000011 5.939999999999998 12 9 C13.649999999999977 6.030000000000001 15.300000000000011 3.0600000000000023 17 0 C19.310000000000002 0 21.620000000000005 0 24 0 C25.83197431328057 5.495922939841762 24.795555698827116 11.46468783991196 24.5625 17.1875 C24.460664062499973 19.759179687500023 24.358828125000002 22.33085937499999 24.25390625 24.98046875 C24.17011718750001 26.966914062499995 24.086328125000023 28.95335937499999 24 31 C21.689999999999998 31 19.379999999999995 31 17 31 C16.504999999999995 24.564999999999998 16.504999999999995 24.564999999999998 16 18 C15.009999999999991 20.475000000000023 15.009999999999991 20.475000000000023 14 23 C12.680000000000007 22.670000000000016 11.360000000000014 22.339999999999975 10 22 C9.339999999999975 20.680000000000007 8.680000000000007 19.360000000000014 8 18 C7.670000000000016 22.29000000000002 7.339999999999975 26.579999999999984 7 31 C4.689999999999998 31 2.3799999999999955 31 0 31 C-0.922026329689345 20.972963664628367 -1.1623930781921672 11.068370847914935 -1 1 C-0.6700000000000159 0.6699999999999875 -0.339999999999975 0.3400000000000034 0 0 Z " fill="#000000" transform="translate(288,249)"/>
<path d="M0 0 C13.5 -0.375 13.5 -0.375 18 3 C19.57843624670278 7.735308740108337 19.274902990650446 12.051746168292198 19 17 C15 22 15 22 8 24 C7.670000000000016 26.310000000000002 7.339999999999975 28.620000000000005 7 31 C4.689999999999998 31 2.3799999999999955 31 0 31 C-1.167468567183846 25.162657164080827 -1.132134461210967 19.766207880541174 -1.125 13.8125 C-1.1275781250000136 11.6533203125 -1.1301562500000273 9.494140625 -1.1328125 7.26953125 C-1 2 -1 2 0 0 Z " fill="#000000" transform="translate(266,249)"/>
<path d="M0 0 C0 2.3100000000000023 0 4.6200000000000045 0 7 C-2 8 -2 8 -10 8 C-10.609488495073606 15.706464084613117 -10.609488495073606 15.706464084613117 -9 23 C-8.009999999999991 23 -7.02000000000001 23 -6 23 C-6 21.680000000000007 -6 20.360000000000014 -6 19 C-6.990000000000009 18.00999999999999 -7.97999999999999 17.019999999999982 -9 16 C-8.669999999999987 14.350000000000023 -8.340000000000003 12.699999999999989 -8 11 C-5.030000000000001 11 -2.0600000000000023 11 1 11 C1.0419416851331107 17.33319445510392 1.041393451386 23.666801937939 1 30 C0 31 0 31 -5.25 31.25 C-11 31 -11 31 -16 28 C-20.835817358032756 19.94030440327873 -20.01857276343935 15.083577435477025 -18 6 C-11.258883652519955 -0.7411163474800446 -9.421543376974682 -0.10955282996482651 0 0 Z " fill="#000000" transform="translate(261,249)"/>
<path d="M0 0 C3.210604398752082 6.421208797504164 3 10.599322612639469 3 18 C1 17 1 17 -1 13 C-1 5 -1 5 0 0 Z " fill="#FFFFFF" transform="translate(64,275)"/>
<path d="M0 0 C0.9900000000000091 0.3299999999999841 1.9800000000000182 0.660000000000025 3 1 C3 3.3100000000000023 3 5.6200000000000045 3 8 C1.6800000000000068 7.670000000000016 0.36000000000001364 7.339999999999975 -1 7 C-1 1 -1 1 0 0 Z " fill="#FFFFFF" transform="translate(274,256)"/>
<path d="M0 0 C0.3299999999999983 0 0.6599999999999966 0 1 0 C0.6700000000000017 2.6399999999999864 0.3400000000000034 5.280000000000001 0 8 C-0.6599999999999966 8 -1.3200000000000003 8 -2 8 C-2 6.02000000000001 -2 4.039999999999992 -2 2 C-1.3400000000000034 2 -0.6799999999999997 2 0 2 C0 1.3400000000000034 0 0.6800000000000068 0 0 Z " fill="#FFFFFF" transform="translate(56,231)"/>
</svg>
