<?xml version="1.0" encoding="UTF-8"?>
<!-- Generator: visioncortex VTracer 0.6.5 -->
<svg version="1.1" xmlns="http://www.w3.org/2000/svg" width="1080" height="1080">
<path d="M0 0 C356.4 0 712.8 0 1080 0 C1080 356.4 1080 712.8 1080 1080 C723.6 1080 367.2 1080 0 1080 C0 723.6 0 367.2 0 0 Z " fill="#FEFEFE" transform="translate(0,0)"/>
<path d="M0 0 C25.17 25.62 41.91 57.08 41.65 93.61 C40.07 132.51 14.66 164.3 -12.56 189.81 C-17.15 193.58 -21.81 197.25 -26.56 200.81 C-29.1 202.77 -31.64 204.73 -34.25 206.75 C-48.56 217.42 -63.87 226.37 -79.56 234.81 C-81.1 235.65 -82.63 236.48 -84.21 237.34 C-263.47 333.49 -505.57 334.97 -714.28 279.56 C-794.87 254.92 -891.25 216.75 -933.81 138.44 C-947.42 111.83 -949.47 85.22 -941.56 56.56 C-935.61 41.2 -928.14 27.5 -917.56 14.81 C-915.81 12.67 -914.06 10.52 -912.25 8.31 C-902.22 -3.15 -891.69 -12.98 -879.56 -22.19 C-877.44 -23.86 -875.31 -25.53 -873.12 -27.25 C-697.29 -159.54 -409.24 -162.36 0 0 Z " fill="#020202" transform="translate(996.5625,458.1875)"/>
<path d="M0 0 C133.65 0 267.3 0 405 0 C399 7 399 7 397 9 C390.67 9.41 384.34 9.75 378 10 C378 18.58 378 27.16 378 36 C261.84 36 145.68 36 26 36 C26 27.42 26 18.84 26 10 C23.38 10.16 20.76 10.33 18.06 10.5 C9 10 9 10 3.44 6.12 C0 2 0 2 0 0 Z " fill="#FAFAFA" transform="translate(322,622)"/>
<path d="M0 0 C0.33 0 0.66 0 1 0 C1.86 6.37 2.07 9.78 0 16 C0.33 16.33 0.66 16.66 1 17 C1.04 23 1.04 29 1 35 C0.67 35 0.34 35 0 35 C0 33.35 0 31.7 0 30 C-0.99 30 -1.98 30 -3 30 C-3 29.34 -3 28.68 -3 28 C-2.01 28 -1.02 28 0 28 C0 26.68 0 25.36 0 24 C-5 26 -5 26 -8 28 C-13.03 26.8 -18.03 25.44 -23 24 C-25.62 23.26 -28.24 22.51 -30.94 21.75 C-32.94 21.17 -34.94 20.6 -37 20 C-37 18.02 -37 16.04 -37 14 C-40.05 14.82 -43.11 15.65 -46.25 16.5 C-55.5 19 -55.5 19 -60 19 C-60 21.31 -60 23.62 -60 26 C-60.33 27.32 -60.66 28.64 -61 30 C-61.66 30 -62.32 30 -63 30 C-63.33 31.32 -63.66 32.64 -64 34 C-65.65 33.67 -67.3 33.34 -69 33 C-68.34 32.67 -67.68 32.34 -67 32 C-65.94 28.69 -64.93 25.35 -64 22 C-72.74 23.09 -80.75 25.25 -89.25 27.56 C-105.56 32 -105.56 32 -110 32 C-110.33 32.66 -110.66 33.32 -111 34 C-112.32 34.33 -113.64 34.66 -115 35 C-114.01 35.99 -113.02 36.98 -112 38 C-118.97 37 -124.69 35.15 -131 32 C-131.33 32.66 -131.66 33.32 -132 34 C-133.32 34 -134.64 34 -136 34 C-136.33 34.99 -136.66 35.98 -137 37 C-141 39 -141 39 -145 39 C-145 39.66 -145 40.32 -145 41 C-145.33 41.17 -145.33 41.17 -147 42 C-141 43 -141 43 -136 42 C-134.68 42.66 -133.36 43.32 -132 44 C-144.45 47.35 -156.94 50.56 -169.44 53.75 C-171.42 54.26 -173.4 54.76 -175.45 55.29 C-180.3 56.52 -185.15 57.76 -190 59 C-190.66 58.01 -191.32 57.02 -192 56 C-189.69 55.34 -187.38 54.68 -185 54 C-186.98 53.34 -188.96 52.68 -191 52 C-190.67 51.01 -190.34 50.02 -190 49 C-193 49 -193 49 -196 50 C-195.34 50 -194.68 50 -194 50 C-194.33 50.99 -194.66 51.98 -195 53 C-196.98 53.33 -198.96 53.66 -201 54 C-196 56 -196 56 -193 56 C-196.13 60.69 -200.71 60.63 -206 62 C-206.99 62.66 -207.98 63.32 -209 64 C-215.66 65.77 -222.31 67.48 -229 69.12 C-230.87 69.59 -232.74 70.06 -234.66 70.54 C-248.59 74 -248.59 74 -252 74 C-251.55 75.45 -251.55 75.45 -249.25 82.79 C-245.49 94.85 -241.74 106.93 -238 119 C-237.48 120.66 -236.97 122.32 -236.44 124.03 C-235.14 128.22 -233.85 132.42 -232.56 136.62 C-231.84 138.97 -231.12 141.31 -230.38 143.73 C-229 149 -229 149 -230 152 C-229.01 152.99 -228.02 153.98 -227 155 C-225.52 159.19 -224.16 163.43 -222.88 167.69 C-222.17 169.98 -221.47 172.27 -220.74 174.64 C-219 181 -219 181 -218 189 C-219.65 187.68 -221.3 186.36 -223 185 C-223.33 186.65 -223.66 188.3 -224 190 C-226.31 190 -228.62 190 -231 190 C-236.02 174.64 -240.81 159.21 -245.5 143.75 C-246.04 141.98 -246.58 140.22 -247.14 138.4 C-251 125.58 -251 125.58 -251 120 C-249.68 120 -248.36 120 -247 120 C-248.96 109.73 -251.73 99.73 -254.62 89.69 C-255.12 87.87 -255.62 86.05 -256.13 84.17 C-260.08 70.58 -260.08 70.58 -269 65 C-263.14 62.07 -257.04 60.91 -250.68 59.34 C-247.81 58.63 -244.95 57.92 -242 57.19 C-238.99 56.44 -235.98 55.7 -232.88 54.94 C-226.93 53.47 -220.99 52 -215.05 50.53 C-212.41 49.87 -209.76 49.22 -207.04 48.55 C-201 47 -201 47 -199 46 C-199.33 45.67 -199.66 45.34 -200 45 C-208.31 45.92 -215.78 47.55 -223.88 49.6 C-226.74 50.32 -229.6 51.03 -232.54 51.78 C-235.52 52.53 -238.5 53.28 -241.56 54.06 C-243.07 54.44 -243.07 54.44 -250.69 56.36 C-258.13 58.24 -265.56 60.12 -273 62 C-268.53 82.11 -261.79 101.73 -255.67 121.39 C-252.13 132.79 -248.63 144.21 -245.12 155.62 C-244.8 156.69 -244.8 156.69 -243.14 162.08 C-242.52 164.11 -241.9 166.14 -241.26 168.23 C-240.7 170.04 -240.15 171.85 -239.57 173.71 C-237.96 179.12 -236.46 184.55 -235 190 C-235.66 190 -236.32 190 -237 190 C-237.65 187.84 -238.3 185.68 -238.98 183.45 C-246.99 156.95 -246.99 156.95 -250.62 145.56 C-253 138 -253 138 -253 136 C-254.32 135.34 -255.64 134.68 -257 134 C-256.83 133.01 -256.83 133.01 -256 128 C-257.16 123.63 -258.47 119.3 -259.88 115 C-260.7 112.43 -261.52 109.86 -262.37 107.21 C-263.24 104.5 -264.11 101.79 -265 99 C-266.66 93.57 -268.31 88.13 -269.94 82.69 C-270.67 80.26 -271.4 77.83 -272.15 75.32 C-273.54 70.58 -274.8 65.8 -276 61 C-266.96 58.14 -257.89 55.64 -248.69 53.38 C-246.3 52.78 -243.91 52.19 -241.45 51.59 C-240.39 51.32 -240.39 51.32 -235 50 C-232.36 49.34 -229.72 48.68 -227 48 C-225.68 48 -224.36 48 -223 48 C-223 47.34 -223 46.68 -223 46 C-220.36 46 -217.72 46 -215 46 C-215 44.02 -215 42.04 -215 40 C-213 42 -213 42 -213 45 C-211.43 44.5 -209.87 44.01 -208.25 43.5 C-203 42 -203 42 -199 42 C-196 33 -196 33 -195 28 C-193 32 -193 32 -193 41 C-193.66 42.32 -194.32 43.64 -195 45 C-188.26 44.04 -181.98 42.54 -175.39 40.84 C-172.95 40.21 -170.5 39.58 -167.98 38.94 C-165.43 38.28 -162.88 37.62 -160.25 36.94 C-155.19 35.63 -150.14 34.33 -145.08 33.03 C-142.83 32.45 -140.59 31.87 -138.28 31.27 C-133 30 -133 30 -130 30 C-129.01 29.83 -129.01 29.83 -124 29 C-121.69 29.33 -119.38 29.66 -117 30 C-116.34 28.68 -115.68 27.36 -115 26 C-109.01 24.12 -103.08 22.52 -97 21 C-94.7 20.4 -92.4 19.81 -90.02 19.2 C-82.19 17.17 -74.34 15.18 -66.5 13.19 C-63.78 12.49 -61.07 11.8 -58.27 11.09 C-55.7 10.43 -53.12 9.78 -50.47 9.11 C-48.12 8.51 -45.78 7.91 -43.36 7.3 C-38 6 -38 6 -36 6 C-35.67 8.31 -35.34 10.62 -35 13 C-30.38 14.2 -25.75 15.38 -21.12 16.56 C-19.84 16.89 -19.84 16.89 -13.32 18.57 C-7 20 -7 20 -5 19 C-4.34 19.33 -3.68 19.66 -3 20 C-3 20.66 -3 21.32 -3 22 C-2.34 22 -1.68 22 -1 22 C-0.67 21.34 -0.34 20.68 0 20 C-0.99 19.67 -1.98 19.34 -3 19 C-3 18.34 -3 17.68 -3 17 C-3.99 16.67 -4.98 16.34 -6 16 C-5.5 15.5 -5.5 15.5 -3 13 C-3.33 12.34 -3.66 11.68 -4 11 C-8.95 9.47 -13.93 8.08 -18.94 6.75 C-21.69 6 -24.44 5.25 -27.28 4.48 C-34.87 3.02 -37.75 3.24 -45 5 C-47.25 5.54 -49.5 6.09 -51.82 6.65 C-54.37 7.29 -56.92 7.93 -59.55 8.59 C-62.36 9.29 -65.16 9.99 -68.04 10.72 C-70.96 11.45 -73.87 12.18 -76.88 12.94 C-78.33 13.3 -78.33 13.3 -85.68 15.15 C-91.1 16.5 -96.51 17.86 -101.92 19.22 C-104.26 19.81 -106.59 20.4 -109 21 C-110.08 21.29 -110.08 21.29 -115.55 22.73 C-121 24 -121 24 -127 24 C-127.33 23.34 -127.66 22.68 -128 22 C-125.69 21.34 -123.38 20.68 -121 20 C-121.99 19.34 -122.98 18.68 -124 18 C-123.18 16.85 -123.18 16.85 -119 11 C-118.01 11.33 -117.02 11.66 -116 12 C-116.66 13.65 -117.32 15.3 -118 17 C-118 17.99 -118 18.98 -118 20 C-103.5 17.25 -103.5 17.25 -99 15 C-96.36 14.67 -93.72 14.34 -91 14 C-74.1 10.05 -74.1 10.05 -68 7 C-66.51 6.83 -66.51 6.83 -59 6 C-55.82 5.15 -52.65 4.31 -49.38 3.44 C-37.6 0.38 -30.79 1.35 -19.25 4.44 C-16.84 5.08 -14.43 5.71 -11.95 6.37 C-8.95 7.19 -5.95 8.02 -3 9 C-3 8.34 -3 7.68 -3 7 C-2.34 7 -1.68 7 -1 7 C-1 5.02 -1 3.04 -1 1 C-0.67 0.67 -0.34 0.34 0 0 Z " fill="#FEFEFE" transform="translate(576,358)"/>
<path d="M0 0 C17.16 0 34.32 0 52 0 C56.41 17.64 55.64 26.36 50.5 43 C48.69 48.94 46.87 54.88 45 61 C28.17 61 11.34 61 -6 61 C-9.27 49.01 -8.46 45.55 -5 34 C-4.48 32.22 -3.96 30.43 -3.42 28.6 C0.69 14.63 0.69 14.63 2 12 C1.34 9.36 0.68 6.72 0 4 C0 2.68 0 1.36 0 0 Z " fill="#FFFFFF" transform="translate(379,553)"/>
<path d="M0 0 C17.16 0 34.32 0 52 0 C56.24 18.04 55.68 26.07 50.5 42.94 C48.68 48.9 46.87 54.86 45 61 C28.17 61 11.34 61 -6 61 C-10.7 43.75 -3.52 28.55 2 12 C1.34 8.04 0.68 4.08 0 0 Z " fill="#FEFEFE" transform="translate(635,553)"/>
<path d="M0 0 C19.14 0 38.28 0 58 0 C53.49 18.04 53.49 18.04 44 24 C43.67 24.16 43.67 24.16 42 25 C44.97 25.33 47.94 25.66 51 26 C54.23 38.94 49.04 47.13 45 61 C26.19 61 7.38 61 -12 61 C-10.03 51.13 -7.34 41.63 -4.44 32 C-3.93 30.3 -3.42 28.59 -2.9 26.84 C0.85 14.29 0.85 14.29 2 12 C1.34 9.36 0.68 6.72 0 4 C0 2.68 0 1.36 0 0 Z " fill="#FEFEFE" transform="translate(443,553)"/>
<path d="M0 0 C2.42 0.01 4.85 0.01 7.35 0.02 C9.96 0.02 12.57 0.02 15.27 0.03 C16.65 0.03 16.65 0.03 23.62 0.05 C26.39 0.06 29.15 0.06 31.99 0.06 C38.85 0.08 45.71 0.09 52.56 0.11 C54.9 9.45 52.4 16.74 49.56 25.61 C48.82 27.95 48.08 30.3 47.31 32.71 C46.73 34.49 46.16 36.28 45.56 38.11 C43.58 38.11 41.6 38.11 39.56 38.11 C39.88 39.27 39.88 39.27 41.5 45.11 C43.56 53.11 43.56 53.11 44.56 61.11 C37.96 61.11 31.36 61.11 24.56 61.11 C22.91 53.85 21.26 46.59 19.56 39.11 C16.59 38.78 13.62 38.45 10.56 38.11 C10.31 39.5 10.07 40.88 9.81 42.3 C8.43 48.71 6.56 54.87 4.56 61.11 C-3.03 61.11 -10.62 61.11 -18.44 61.11 C-16.02 51.13 -13.24 41.28 -10.38 31.43 C-9.94 29.91 -9.94 29.91 -7.72 22.23 C-6.96 19.88 -6.21 17.53 -5.44 15.11 C-4.78 14.78 -4.12 14.45 -3.44 14.11 C-3.7 13.05 -3.7 13.05 -5 7.68 C-5.47 5.51 -5.95 3.34 -6.44 1.11 C-5.44 0.11 -5.44 0.11 0 0 Z " fill="#FFFFFF" transform="translate(318.437744140625,552.886474609375)"/>
<path d="M0 0 C9.24 0 18.48 0 28 0 C31 10.94 33.59 21.91 36 33 C36.27 31.57 36.54 30.13 36.81 28.65 C37.96 23.18 39.39 17.91 41 12.56 C41.52 10.83 42.03 9.1 42.56 7.32 C44 3 44 3 46 0 C51.33 -0.12 56.67 -0.13 62 0 C61.12 7.01 59.7 12.88 57.66 19.61 C57.32 20.72 57.32 20.72 55.63 26.33 C54.93 28.63 54.22 30.94 53.5 33.31 C52.8 35.64 52.09 37.96 51.37 40.35 C46.32 57.04 46.32 57.04 45 61 C37.41 61 29.82 61 22 61 C21.38 58.67 20.76 56.34 20.12 53.94 C18.79 48.95 17.42 43.97 16 39 C15.67 41.31 15.34 43.62 15 46 C13.38 51.02 11.72 56.02 10 61 C2.74 61 -4.52 61 -12 61 C-10.66 51.6 -7.75 42.75 -5 33.69 C-4.44 31.83 -3.88 29.97 -3.3 28.05 C0.85 14.3 0.85 14.3 2 12 C1.34 9.36 0.68 6.72 0 4 C0 2.68 0 1.36 0 0 Z " fill="#FEFEFE" transform="translate(699,553)"/>
<path d="M0 0 C20.46 0 40.92 0 62 0 C60 9 60 9 57 17 C44.62 19 44.62 19 39 19 C38.34 17.02 37.68 15.04 37 13 C33.04 13 29.08 13 25 13 C23.68 15.97 22.36 18.94 21 22 C20.01 22.33 19.02 22.66 18 23 C24.11 23.16 24.11 23.16 55 24 C48.07 51.7 48.07 51.7 40 61 C34.43 62.14 34.43 62.14 27.94 61.98 C25.62 61.94 23.29 61.91 20.9 61.88 C18.48 61.8 16.06 61.71 13.56 61.62 C11.11 61.58 8.67 61.53 6.14 61.49 C0.09 61.37 -5.95 61.21 -12 61 C-11 53 -11 53 -8 45 C-1.48 43.14 4.27 42.45 11 42 C11.33 44.31 11.66 46.62 12 49 C14.14 48.84 14.14 48.84 25 48 C25.99 45.03 26.98 42.06 28 39 C29.32 38.34 30.64 37.68 32 37 C25.89 36.84 25.89 36.84 -5 36 C-0.71 16.71 -0.71 16.71 2 14 C1.35 10.66 0.68 7.33 0 4 C0 2.68 0 1.36 0 0 Z " fill="#FFFFFF" transform="translate(569,553)"/>
<path d="M0 0 C9.17 1.15 17.98 3.26 26.94 5.44 C28.66 5.85 30.38 6.25 32.15 6.67 C36.45 7.72 40.73 8.85 45 10 C45.16 10.33 45.16 10.33 46 12 C48.31 12.33 50.62 12.66 53 13 C52.67 13.99 52.34 14.98 52 16 C48.09 17.3 44.02 18.11 40 19 C40.16 19.33 40.16 19.33 41 21 C51 21 51 21 53 20 C53 20.66 53 21.32 53 22 C55.31 21.67 57.62 21.34 60 21 C61.98 21 63.96 21 66 21 C66.33 20.34 66.66 19.68 67 19 C63.37 18.01 59.74 17.02 56 16 C56 15.01 56 14.02 56 13 C76.73 17.77 97.38 22.78 118 28 C117.14 34.02 115.87 39.1 114.07 44.88 C113.45 46.89 112.83 48.89 112.19 50.96 C111.51 53.14 110.83 55.32 110.12 57.56 C108.68 62.23 107.23 66.9 105.78 71.57 C105.01 74.05 104.24 76.54 103.45 79.09 C100.87 87.41 98.32 95.73 95.78 104.05 C95.35 105.46 95.35 105.46 93.18 112.57 C91.49 118.1 89.81 123.62 88.12 129.15 C87.74 130.41 87.74 130.41 85.79 136.78 C85.11 139.02 84.42 141.26 83.72 143.57 C82 149 82 149 80 154 C77.69 154 75.38 154 73 154 C72.34 153.01 71.68 152.02 71 151 C70.34 151.66 69.68 152.32 69 153 C68.34 152.67 67.68 152.34 67 152 C67.16 150.41 67.33 148.82 67.5 147.19 C68 142 68 142 68 139 C68.99 138.67 69.98 138.34 71 138 C72.06 134.01 73.04 130.01 74 126 C76.19 118.44 76.19 118.44 79 112 C81.64 111.01 84.28 110.02 87 109 C86.5 108.67 86.5 108.67 84 107 C84.33 106.34 84.66 105.68 85 105 C84.5 104.84 84.5 104.84 82 104 C83 101 83 101 85 99 C84.34 99 83.68 99 83 99 C85 92 85 92 88 88 C89.32 87.67 90.64 87.34 92 87 C92.33 86.34 92.66 85.68 93 85 C92.34 84.67 91.68 84.34 91 84 C91.99 84 92.98 84 94 84 C94.47 81.94 94.95 79.88 95.44 77.75 C98.11 66.98 101.63 56.49 105.07 45.95 C106.14 42.66 107.16 39.35 108 36 C106.35 36.66 104.7 37.32 103 38 C93.75 36.97 85.27 34.98 76.25 32.69 C73.14 31.91 70.03 31.13 66.83 30.32 C59 28 59 28 54 24 C52.02 24.66 50.04 25.32 48 26 C44.11 24.94 40.22 23.85 36.37 22.62 C29.95 20.68 23.46 19.13 16.94 17.56 C6.59 15.02 -3.15 12.04 -13 8 C-13 7.01 -13 6.02 -13 5 C-14.32 4.34 -15.64 3.68 -17 3 C-10 3 -10 3 -2 4 C-0.68 3.34 0.64 2.68 2 2 C1.34 1.34 0.68 0.68 0 0 Z " fill="#FEFEFE" transform="translate(654,394)"/>
<path d="M0 0 C19.14 0 38.28 0 58 0 C57.01 3.96 56.02 7.92 55 12 C45.1 12.33 35.2 12.66 25 13 C23.68 16.96 22.36 20.92 21 25 C24.63 25.16 24.63 25.16 43 26 C42 33 42 33 40 38 C32.41 38.33 24.82 38.66 17 39 C16.01 41.31 15.02 43.62 14 46 C12.68 46.66 11.36 47.32 10 48 C22.54 48.33 35.08 48.66 48 49 C45 60 45 60 44 61 C40.25 61.09 36.5 61.11 32.75 61.1 C30.45 61.09 28.15 61.09 25.78 61.09 C24.57 61.08 24.57 61.08 18.44 61.06 C16.01 61.06 13.58 61.05 11.08 61.05 C5.05 61.04 -0.97 61.02 -7 61 C-9.85 49.58 -7.38 41.19 -4.06 30.19 C-3.35 27.81 -2.64 25.43 -1.91 22.98 C0 17 0 17 2 13 C1.34 10.36 0.68 7.72 0 5 C0 3.35 0 1.7 0 0 Z " fill="#FFFFFF" transform="translate(506,553)"/>
<path d="M0 0 C34.12 -1.3 34.12 -1.3 47 7 C47.66 7.66 48.32 8.32 49 9 C48.67 9.66 48.34 10.32 48 11 C48.66 11.33 49.32 11.66 50 12 C49.34 12 48.68 12 48 12 C48 12.66 48 13.32 48 14 C50.97 14.99 53.94 15.98 57 17 C62.42 19.39 67.81 21.84 73.19 24.31 C83.41 29.01 93.64 33.61 104 38 C104 35.69 104 33.38 104 31 C106.44 29.94 108.89 28.87 111.41 27.77 C112.2 27.43 112.2 27.43 116.24 25.66 C119.78 24.12 123.33 22.59 126.88 21.06 C135.2 17.47 143.4 13.8 151.52 9.75 C171.18 0.12 187.21 -1.7 209 0 C204.8 4.2 197.92 5.9 192.56 8.12 C189.77 9.29 186.97 10.45 184.09 11.64 C181.42 12.75 178.75 13.86 176 15 C172.19 16.6 168.37 18.2 164.56 19.81 C162.07 20.86 159.57 21.92 157 23 C155 21 155 21 154 19 C144.21 22.26 134.88 26.21 125.4 30.29 C120.46 32.38 115.46 34.34 110.44 36.25 C109.54 36.7 109.54 36.7 105 39 C104.67 41.31 104.34 43.62 104 46 C96.67 43.56 89.96 40.85 82.94 37.69 C72.79 33.14 62.63 28.64 52.44 24.19 C51.12 23.61 51.12 23.61 44.43 20.68 C40.05 18.77 35.68 16.86 31.3 14.95 C26.57 12.89 21.85 10.82 17.12 8.75 C14.28 7.51 11.44 6.26 8.51 4.98 C2 2 2 2 0 0 Z " fill="#FEFEFE" transform="translate(436,683)"/>
<path d="M0 0 C4.58 -0.08 9.17 -0.14 13.75 -0.19 C16.3 -0.22 18.85 -0.26 21.48 -0.29 C28 0 28 0 32 3 C33.25 9.23 32.37 13.82 31 20 C25.78 25.22 25.28 24.98 17.8 25.1 C15.33 25.09 12.86 25.07 10.31 25.06 C7.83 25.05 5.35 25.04 2.8 25.04 C0.89 25.02 -1.03 25.01 -3 25 C-2.69 21.58 -2.38 18.17 -2.06 14.75 C-1.89 12.85 -1.71 10.94 -1.54 8.98 C-1 4 -1 4 0 0 Z " fill="#000000" transform="translate(479,628)"/>
<path d="M0 0 C1.18 -0.01 1.18 -0.01 7.12 -0.05 C13 0.31 13 0.31 16 3.31 C16.4 10.07 15.88 14.74 14 21.31 C8.88 26.43 3.44 25.48 -3.5 25.5 C-4.43 25.51 -4.43 25.51 -9.16 25.54 C-14 25.31 -14 25.31 -18 23.31 C-20.65 18.02 -18.99 12.28 -17.69 6.88 C-14.43 -1.93 -8.54 0.01 0 0 Z " fill="#000000" transform="translate(589,627.6875)"/>
<path d="M0 0 C2.64 0 5.28 0 8 0 C9.65 5.61 11.3 11.22 13 17 C15.97 11.39 18.94 5.78 22 0 C24.97 0 27.94 0 31 0 C34 11.38 34 11.38 34 17 C34.66 17 35.32 17 36 17 C36.66 15.35 37.32 13.7 38 12 C39.98 7.99 41.98 3.99 44 0 C46.64 0 49.28 0 52 0 C43.57 17 43.57 17 39 25 C35.7 25 32.4 25 29 25 C26 13.5 26 13.5 26 9 C25.34 9 24.68 9 24 9 C23.01 11.97 22.02 14.94 21 18 C19.68 20.31 18.36 22.62 17 25 C13.7 25 10.4 25 7 25 C4.69 16.75 2.38 8.5 0 0 Z " fill="#000000" transform="translate(516,628)"/>
<path d="M0 0 C0.33 0.66 0.66 1.32 1 2 C1.66 2 2.32 2 3 2 C3 1.34 3 0.68 3 0 C3.99 0.33 4.98 0.66 6 1 C9.87 12.6 8.28 26.77 8.56 38.94 C8.61 40.68 8.65 42.43 8.69 44.22 C8.8 48.48 8.9 52.74 9 57 C7.02 57 5.04 57 3 57 C-9 27.57 -9 27.57 -9 17 C-6.41 11.07 -3.18 5.65 0 0 Z " fill="#FBFBFB" transform="translate(648,448)"/>
<path d="M0 0 C4.6 -0.08 9.21 -0.14 13.81 -0.19 C15.09 -0.2 15.09 -0.2 21.58 -0.29 C28 0 28 0 31 3 C31 10 31 10 27 15 C27.66 15.66 28.32 16.32 29 17 C29 19.31 29 21.62 29 24 C28.67 24.33 28.34 24.66 28 25 C25.69 25 23.38 25 21 25 C20.67 23.02 20.34 21.04 20 19 C15.38 19 10.76 19 6 19 C5.67 20.98 5.34 22.96 5 25 C2.36 25 -0.28 25 -3 25 C-2.01 16.75 -1.02 8.5 0 0 Z " fill="#000000" transform="translate(612,628)"/>
<path d="M0 0 C2.42 9.69 -3.64 20.04 -7 29 C-13.21 32.45 -13.21 32.45 -20.94 35.69 C-23.46 36.76 -25.99 37.84 -28.59 38.95 C-31.04 39.96 -33.48 40.96 -36 42 C-38.25 42.96 -40.5 43.91 -42.82 44.89 C-48 47 -48 47 -50 47 C-50 47.66 -50 48.32 -50 49 C-52.97 49.99 -55.94 50.98 -59 52 C-59.66 52.66 -60.32 53.32 -61 54 C-63.64 54.33 -66.28 54.66 -69 55 C-69 55.66 -69 56.32 -69 57 C-75.64 59.44 -82.29 61.76 -89 64 C-87.35 66.31 -85.7 68.62 -84 71 C-88 69 -88 69 -90 67 C-96 68 -96 68 -105 72 C-105.99 72 -106.98 72 -108 72 C-108.33 72.99 -108.66 73.98 -109 75 C-109.83 75.16 -109.83 75.16 -114 76 C-119.52 78.28 -125.02 80.63 -130.5 83 C-132.07 83.68 -133.64 84.35 -135.26 85.05 C-142.13 88.01 -148.98 90.99 -155.8 94.03 C-169.5 100.1 -169.5 100.1 -175 99 C-178.16 97.7 -181.29 96.35 -184.4 94.96 C-186.26 94.13 -188.12 93.3 -190.04 92.45 C-191.99 91.58 -193.93 90.71 -195.94 89.81 C-199.76 88.11 -203.58 86.41 -207.4 84.71 C-209.21 83.9 -211.03 83.09 -212.89 82.26 C-219.24 79.45 -225.61 76.71 -232 74 C-232.66 75.65 -233.32 77.3 -234 79 C-235.64 82.01 -237.31 85.01 -239 88 C-239.33 87.01 -239.66 86.02 -240 85 C-237 79 -237 79 -234 75 C-234 74.34 -234 73.68 -234 73 C-236.6 71.95 -239.2 70.9 -241.88 69.81 C-248.45 67.07 -254.67 64.21 -261 61 C-276.49 54 -276.49 54 -280 54 C-280 53.34 -280 52.68 -280 52 C-289.5 49.12 -289.5 49.12 -294 48 C-293.67 47.67 -293.34 47.34 -293 47 C-295.35 45.96 -297.7 44.93 -300.12 43.86 C-303.23 42.49 -306.33 41.12 -309.44 39.75 C-310.98 39.07 -312.53 38.39 -314.12 37.68 C-321.42 34.47 -328.71 31.24 -336 28 C-330.54 26.18 -325.36 30.01 -320.31 32.19 C-318.02 33.17 -315.73 34.15 -313.36 35.17 C-308.52 37.32 -303.74 39.63 -299 42 C-294.41 44.02 -289.8 46.02 -285.19 48 C-272.91 53.3 -260.67 58.68 -248.46 64.12 C-240.42 67.7 -232.37 71.25 -224.31 74.78 C-218.39 77.39 -212.47 80.02 -206.56 82.66 C-202.83 84.31 -199.1 85.97 -195.38 87.62 C-193.58 88.43 -191.78 89.24 -189.92 90.07 C-171.91 98.05 -171.91 98.05 -163.62 95.06 C-161.39 94.05 -159.17 93.04 -156.88 92 C-154.22 90.81 -151.57 89.63 -148.84 88.41 C-147.31 87.72 -145.78 87.03 -144.21 86.32 C-133.68 81.63 -123.08 77.08 -112.5 72.5 C-107.88 70.5 -103.26 68.49 -98.64 66.48 C-88.85 62.23 -79.05 57.99 -69.25 53.75 C-60.47 49.95 -51.7 46.11 -42.94 42.25 C-10.59 28 -10.59 28 -8 28 C-7.61 26.16 -7.22 24.33 -6.81 22.44 C-4.95 14.78 -2.57 7.44 0 0 Z " fill="#FFFFFF" transform="translate(711,635)"/>
<path d="M0 0 C5.81 -1 5.81 -1 13 0 C17.57 4.97 20.52 10.14 24 16 C24.33 16 24.66 16 25 16 C25.66 10.72 26.32 5.44 27 0 C29.64 0 32.28 0 35 0 C34.01 8.25 33.02 16.5 32 25 C26.12 25.94 26.12 25.94 19 25 C13.31 17.56 13.31 17.56 9 10 C8.34 9.67 7.68 9.34 7 9 C6.34 14.28 5.68 19.56 5 25 C2.36 25 -0.28 25 -3 25 C-2.01 16.75 -1.02 8.5 0 0 Z " fill="#000000" transform="translate(438,628)"/>
<path d="M0 0 C5.83 -0.39 5.83 -0.39 11 0 C12.67 3.98 14.33 7.96 16 11.94 C16.93 14.15 17.86 16.37 18.81 18.65 C21 24 21 24 21 25 C18.36 25 15.72 25 13 25 C12.34 23.35 11.68 21.7 11 20 C5.66 20.17 0.32 20.51 -5 21 C-5.99 22.32 -6.98 23.64 -8 25 C-10.97 25 -13.94 25 -17 25 C-14.71 21.31 -12.36 17.65 -10 14 C-8.43 11.46 -6.87 8.93 -5.25 6.31 C-3.52 4.23 -1.79 2.15 0 0 Z " fill="#000000" transform="translate(410,628)"/>
<path d="M0 0 C1.96 0.02 3.92 0.04 5.94 0.06 C8.22 4.62 3.4 14.22 2.06 18.56 C1.14 21.58 0.21 24.61 -0.74 27.72 C-3.06 35.06 -3.06 35.06 -4.06 37.06 C-10.33 37.06 -16.6 37.06 -23.06 37.06 C-21.06 35.06 -21.06 35.06 -16.06 34.06 C-15.93 33.36 -15.93 33.36 -15.29 29.82 C-14 23.75 -12.32 17.92 -10.5 12 C-9.88 9.97 -9.26 7.93 -8.62 5.84 C-6.74 0.07 -6.74 0.07 0 0 Z " fill="#070707" transform="translate(410.0625,564.9375)"/>
<path d="M0 0 C1.96 0.02 3.92 0.04 5.94 0.06 C8.1 4.39 3.95 12.13 2.62 16.31 C1.8 18.92 0.98 21.52 0.14 24.2 C-1.24 28.5 -2.64 32.78 -4.06 37.06 C-10.33 37.06 -16.6 37.06 -23.06 37.06 C-21.06 35.06 -21.06 35.06 -16.06 34.06 C-15.93 33.36 -15.93 33.36 -15.29 29.82 C-14 23.75 -12.32 17.92 -10.5 12 C-9.88 9.97 -9.26 7.93 -8.62 5.84 C-6.74 0.07 -6.74 0.07 0 0 Z " fill="#050505" transform="translate(666.0625,564.9375)"/>
<path d="M0 0 C10 0 10 0 17 6 C19.64 4.02 22.28 2.04 25 0 C28.3 0 31.6 0 35 0 C30 5 30 5 23 11 C24.49 16.96 28.68 19.8 33 24 C33 24.33 33 24.66 33 25 C27.88 25.44 27.88 25.44 22 25 C20.02 22.69 18.04 20.38 16 18 C12 20 12 20 6 25 C2.7 25 -0.6 25 -4 25 C0.2 20.8 4.51 16.88 9 13 C7 8 7 8 0 1 C0 0.67 0 0.34 0 0 Z " fill="#000000" transform="translate(649,628)"/>
<path d="M0 0 C2.97 0.05 5.95 0.09 9.01 0.14 C11.27 0.19 13.54 0.25 15.88 0.31 C10.13 4.62 3.79 6.93 -2.81 9.75 C-5.46 10.88 -8.1 12.02 -10.82 13.18 C-13.23 14.22 -15.64 15.25 -18.12 16.31 C-21.1 17.63 -24.07 18.95 -27.12 20.31 C-28.12 19.98 -29.11 19.65 -30.12 19.31 C-29.25 12.62 -29.25 12.62 -27.12 5.31 C-18.57 -0.87 -10.26 -0.2 0 0 Z " fill="#FFFFFF" transform="translate(677.125,661.6875)"/>
<path d="M0 0 C5.33 -0.11 10.67 -0.19 16 -0.25 C18.97 -0.3 21.94 -0.34 25 -0.39 C33 0 33 0 41 4 C41 12 41 12 39 18 C25.95 12.44 12.95 6.79 0 1 C0 0.67 0 0.34 0 0 Z " fill="#FFFFFF" transform="translate(388,662)"/>
<path d="M0 0 C8 0.12 8 0.12 9 1.12 C8.4 13.73 8.4 13.73 4 18.12 C-1.33 18.21 -6.67 18.21 -12 18.12 C-12.33 17.79 -12.66 17.47 -13 17.12 C-11.12 0.17 -11.12 0.17 0 0 Z " fill="#FFFFFF" transform="translate(530,661.875)"/>
<path d="M0 0 C0.33 0 0.66 0 1 0 C1.66 4.29 2.32 8.58 3 13 C3.66 13 4.32 13 5 13 C5.33 11.68 5.66 10.36 6 9 C6.17 10.15 6.17 10.15 7 16 C8.32 16.33 9.64 16.66 11 17 C11.66 17.33 12.32 17.66 13 18 C13 17.34 13 16.68 13 16 C14.98 16 16.96 16 19 16 C19.17 16.33 19.17 16.33 20 18 C18.02 17.67 16.04 17.34 14 17 C14.17 17.5 14.17 17.5 15 20 C14.67 20.66 14.34 21.32 14 22 C9.67 22.68 5.33 23.34 1 24 C-7.45 26.04 -15.85 28.23 -24.26 30.42 C-31 32 -31 32 -33 31 C-31.43 30.55 -29.87 30.09 -28.25 29.62 C-23 27 -23 27 -20.38 21.75 C-19.92 20.18 -19.47 18.62 -19 17 C-18.34 17 -17.68 17 -17 17 C-17 16.34 -17 15.68 -17 15 C-16.01 15.17 -16.01 15.17 -11 16 C-10.34 14.35 -9.68 12.7 -9 11 C-8.67 11 -8.34 11 -8 11 C-7.34 13.97 -6.68 16.94 -6 20 C-5.34 20 -4.68 20 -4 20 C-4 20.66 -4 21.32 -4 22 C-4.66 22 -5.32 22 -6 22 C-6 22.66 -6 23.32 -6 24 C-4.35 23.67 -2.7 23.34 -1 23 C-1 21.35 -1 19.7 -1 18 C-0.34 18 0.32 18 1 18 C1 16.02 1 14.04 1 12 C0.83 11.83 0.83 11.83 0 11 C-0.04 7.33 -0.04 3.67 0 0 Z " fill="#FDFDFD" transform="translate(418,367)"/>
<path d="M0 0 C0.33 0 0.66 0 1 0 C1 2.97 1 5.94 1 9 C0.67 9.33 0.34 9.66 0 10 C0 11.98 0 13.96 0 16 C0.99 16 1.98 16 3 16 C5 12 5 12 6 7 C6.99 7.99 7.98 8.98 9 10 C9 10.66 9 11.32 9 12 C10.98 11.67 12.96 11.34 15 11 C15 11.66 15 12.32 15 13 C15.66 13 16.32 13 17 13 C17.16 13.78 17.16 13.78 18 17.75 C21 23 21 23 29.12 25.62 C37 27 37 27 39 27 C39 27.99 39 28.98 39 30 C32.92 29.13 27.35 27.88 21.43 26.31 C19.4 25.78 17.37 25.25 15.28 24.7 C13.16 24.14 11.05 23.58 8.88 23 C4.69 21.89 0.5 20.79 -3.7 19.69 C-5.55 19.2 -7.41 18.71 -9.32 18.2 C-12.53 17.38 -15.76 16.65 -19 16 C-15 14 -15 14 -11 15 C-10.34 15.33 -9.68 15.66 -9 16 C-8.67 15.01 -8.34 14.02 -8 13 C-7.34 13 -6.68 13 -6 13 C-5.67 11.02 -5.34 9.04 -5 7 C-4.67 7.99 -4.34 8.98 -4 10 C-1 7 -1 7 0 0 Z " fill="#FDFDFD" transform="translate(663,371)"/>
<path d="M0 0 C0.33 0 0.66 0 1 0 C1 1.98 1 3.96 1 6 C4.96 6.33 8.92 6.66 13 7 C13 7.66 13 8.32 13 9 C14.98 8.67 16.96 8.34 19 8 C19 8.66 19 9.32 19 10 C20.25 10.27 20.25 10.27 26.56 11.62 C58.81 18.81 58.81 18.81 62 22 C56.4 41.95 50.39 61.77 43.88 81.44 C42 88 42 88 43 94 C41.68 95.32 40.36 96.64 39 98 C37.06 103.52 35.27 109.09 33.56 114.69 C32.64 117.7 31.71 120.72 30.75 123.82 C28.14 132.54 25.56 141.27 23 150 C22.34 150 21.68 150 21 150 C23.76 139.55 26.92 129.22 30.06 118.88 C30.64 116.97 31.22 115.06 31.81 113.1 C32.99 109.23 34.16 105.35 35.34 101.48 C36.82 96.61 38.29 91.73 39.76 86.86 C53.16 42.51 53.16 42.51 59 25 C59 24.01 59 23.02 59 22 C58.1 21.78 58.1 21.78 53.52 20.65 C45.39 18.65 37.26 16.64 29.12 14.62 C26.28 13.93 23.44 13.23 20.5 12.51 C17.8 11.84 15.1 11.17 12.32 10.48 C9.82 9.86 7.31 9.24 4.73 8.6 C-1 7 -1 7 -3 5 C-2.34 5 -1.68 5 -1 5 C-0.67 3.35 -0.34 1.7 0 0 Z " fill="#FFFFFF" transform="translate(717,398)"/>
<path d="M0 0 C2.64 0 5.28 0 8 0 C7.34 5.94 6.68 11.88 6 18 C11.28 18 16.56 18 22 18 C23 22 23 22 22 25 C13.75 25 5.5 25 -3 25 C-2.01 16.75 -1.02 8.5 0 0 Z " fill="#000000" transform="translate(369,628)"/>
<path d="M0 0 C17.16 0 34.32 0 52 0 C51.67 1.65 51.34 3.3 51 5 C49.02 5 47.04 5 45 5 C44.34 5.66 43.68 6.32 43 7 C36.5 7.25 36.5 7.25 30 7 C29.34 6.34 28.68 5.68 28 5 C24 4.92 20 4.91 16 5 C15.67 5.99 15.34 6.98 15 8 C9.39 8 3.78 8 -2 8 C-1.34 5.36 -0.68 2.72 0 0 Z " fill="#000000" transform="translate(311,584)"/>
<path d="M0 0 C9.3 9.3 18.69 19.03 26 30 C24 32 24 32 21 33 C20.67 34.32 20.34 35.64 20 37 C19.34 37 18.68 37 18 37 C17.67 35.68 17.34 34.36 17 33 C12 32 12 32 10 33 C8.33 28.06 6.66 23.13 5 18.19 C4.54 16.81 4.54 16.81 2.19 9.86 C0 3 0 3 0 0 Z " fill="#FEFEFE" transform="translate(327,436)"/>
<path d="M0 0 C0 0.99 0 1.98 0 3 C-3.6 4.17 -7.21 5.34 -10.81 6.5 C-12.82 7.15 -14.83 7.8 -16.89 8.47 C-22 10 -22 10 -25 10 C-25 10.66 -25 11.32 -25 12 C-26.05 12.24 -26.05 12.24 -31.38 13.44 C-41.66 16.18 -51.56 19.59 -61.58 23.17 C-67 25 -67 25 -70 25 C-70 24.34 -70 23.68 -70 23 C-73.96 23.99 -77.92 24.98 -82 26 C-81.34 27.32 -80.68 28.64 -80 30 C-74 30 -74 30 -72 29 C-73 34 -73 34 -77 39 C-77.66 39 -78.32 39 -79 39 C-79 38.34 -79 37.68 -79 37 C-79.99 37 -80.98 37 -82 37 C-84 29 -84 29 -84 25 C-84.66 24.67 -85.32 24.34 -86 24 C-78 21 -78 21 -68 21 C-64.37 20.11 -60.78 19.08 -57.23 17.93 C-55.18 17.28 -53.14 16.63 -51.04 15.96 C-48.92 15.27 -46.8 14.58 -44.62 13.88 C-40.45 12.54 -36.28 11.2 -32.1 9.87 C-30.08 9.22 -28.07 8.57 -25.99 7.9 C-17.36 5.16 -8.68 2.57 0 0 Z " fill="#FFFFFF" transform="translate(636,437)"/>
<path d="M0 0 C7.94 0.19 7.94 0.19 8.94 1.19 C7.44 14.69 7.44 14.69 3.94 18.19 C-1.73 18.27 -7.4 18.27 -13.06 18.19 C-13.06 17.2 -13.06 16.21 -13.06 15.19 C-11.08 15.02 -11.08 15.02 -1.06 14.19 C-1.06 13.53 -1.06 12.87 -1.06 12.19 C-3.7 12.19 -6.34 12.19 -9.06 12.19 C-9.72 11.86 -10.38 11.53 -11.06 11.19 C-9.84 0.23 -9.84 0.23 0 0 Z " fill="#FFFFFF" transform="translate(552.0625,661.8125)"/>
<path d="M0 0 C7.38 0.25 7.38 0.25 8.38 1.25 C8.38 8.25 8.38 8.25 5.38 16.25 C3.38 18.25 3.38 18.25 -5.25 18.38 C-6.63 18.35 -6.63 18.35 -13.62 18.25 C-13.46 17.75 -13.46 17.75 -12.62 15.25 C-10.81 15.09 -10.81 15.09 -1.62 14.25 C-1.62 13.59 -1.62 12.93 -1.62 12.25 C-4.26 12.25 -6.9 12.25 -9.62 12.25 C-10.28 11.92 -10.95 11.59 -11.62 11.25 C-10.26 0.34 -10.26 0.34 0 0 Z " fill="#FFFFFF" transform="translate(627.625,661.75)"/>
<path d="M0 0 C2.45 0.12 4.91 0.25 7.44 0.38 C8.1 1.37 8.76 2.36 9.44 3.38 C7.69 10.5 7.69 10.5 5.44 17.38 C0.51 19.84 -7.15 18.42 -12.56 18.38 C-12.56 17.38 -12.56 16.39 -12.56 15.38 C-8.6 15.38 -4.64 15.38 -0.56 15.38 C-0.89 14.38 -1.22 13.39 -1.56 12.38 C-4.2 12.38 -6.84 12.38 -9.56 12.38 C-10.22 11.72 -10.88 11.05 -11.56 10.38 C-10.18 0.69 -9.86 0.49 0 0 Z " fill="#FFFFFF" transform="translate(442.5625,661.625)"/>
<path d="M0 0 C6.03 1.35 7.72 1.24 13.23 -0.6 C13.89 0.06 14.55 0.72 15.23 1.4 C5.97 6.94 1.88 8.74 -8.89 6.52 C-11.82 5.49 -14.75 4.46 -17.77 3.4 C-18.96 3.13 -18.96 3.13 -25.02 1.77 C-30.77 0.4 -30.77 0.4 -36.77 -2.6 C-25.58 -10.06 -12.06 -3.17 0 0 Z " fill="#FFFFFF" transform="translate(614.765625,389.6015625)"/>
<path d="M0 0 C1.85 5.55 -1.42 11.21 -3.19 16.56 C-3.99 19.02 -4.78 21.47 -5.61 24 C-8 30 -8 30 -12 32 C-12 33.32 -12 34.64 -12 36 C-14 35 -14 35 -15 32 C-18 31 -18 31 -25 31 C-24.34 29.35 -23.68 27.7 -23 26 C-21.51 25.67 -21.51 25.67 -14 24 C-15.32 23.34 -16.64 22.68 -18 22 C-14.58 16.3 -10.48 11.9 -6 7 C-4.02 4.69 -2.04 2.38 0 0 Z " fill="#FEFEFE" transform="translate(750,437)"/>
<path d="M0 0 C5.61 0 11.22 0 17 0 C18 4 18 4 15 11 C9.38 12.31 9.38 12.31 4 13 C3.67 13.66 3.34 14.32 3 15 C6.96 15 10.92 15 15 15 C14.67 15.99 14.34 16.98 14 18 C7.73 18 1.46 18 -5 18 C-4.44 14.65 -3.77 11.31 -3 8 C0 6 0 6 10 6 C10 5.34 10 4.68 10 4 C6.37 3.67 2.74 3.34 -1 3 C-0.67 2.01 -0.34 1.02 0 0 Z " fill="#FEFEFE" transform="translate(597,662)"/>
<path d="M0 0 C0 0.66 0 1.32 0 2 C-4.46 3.67 -8.92 5.34 -13.38 7 C-14.62 7.46 -14.62 7.46 -20.9 9.81 C-27 12 -27 12 -29 12 C-29 12.66 -29 13.32 -29 14 C-29.66 14 -30.32 14 -31 14 C-30.67 15.32 -30.34 16.64 -30 18 C-32.97 19.32 -35.94 20.64 -39 22 C-39.99 22.99 -40.98 23.98 -42 25 C-42.66 25 -43.32 25 -44 25 C-44.33 23.68 -44.66 22.36 -45 21 C-44.34 20.34 -43.68 19.68 -43 19 C-42.01 19 -41.02 19 -40 19 C-39.67 18.34 -39.34 17.68 -39 17 C-38.34 17.33 -37.68 17.66 -37 18 C-37 17.34 -37 16.68 -37 16 C-37.99 15.67 -38.98 15.34 -40 15 C-39.67 13.35 -39.34 11.7 -39 10 C-37.35 10 -35.7 10 -34 10 C-34.33 8.68 -34.66 7.36 -35 6 C-33.02 6 -31.04 6 -29 6 C-26.03 5.01 -23.06 4.02 -20 3 C-4.64 -1.16 -4.64 -1.16 0 0 Z " fill="#FBFBFB" transform="translate(604,457)"/>
<path d="M0 0 C5.33 -0.04 10.67 -0.04 16 0 C17 1 17 1 17 9 C16 12 16 12 14 13 C0.48 13.24 0.48 13.24 -2 12 C-2 5 -2 5 0 0 Z " fill="#E7E7E7" transform="translate(580,634)"/>
<path d="M0 0 C0 0.66 0 1.32 0 2 C1.65 2 3.3 2 5 2 C-1.68 7.01 -9.57 9.84 -17.19 13.19 C-18.03 13.56 -18.03 13.56 -22.31 15.46 C-34.85 21 -34.85 21 -36 21 C-36.33 17.04 -36.66 13.08 -37 9 C-36.34 8.67 -35.68 8.34 -35 8 C-34.34 9.32 -33.68 10.64 -33 12 C-26.49 10.7 -20.91 8.07 -14.81 5.44 C-2.21 0 -2.21 0 0 0 Z " fill="#F9F9F9" transform="translate(599,480)"/>
<path d="M0 0 C1.33 0.67 2.67 1.33 4 2 C4.66 1.34 5.32 0.68 6 0 C6.66 0.33 7.32 0.66 8 1 C6 7 6 7 3.38 11.62 C0.64 17.81 0.61 22.31 1 29 C0.34 27.68 -0.32 26.36 -1 25 C-3.64 25 -6.28 25 -9 25 C-8.34 26.98 -7.68 28.96 -7 31 C-7.99 31 -8.98 31 -10 31 C-11 28 -11 28 -11 19 C-9.51 19.33 -9.51 19.33 -2 21 C-2.33 20.01 -2.66 19.02 -3 18 C-4.98 17.67 -6.96 17.34 -9 17 C-6.98 9.94 -4.32 5.83 0 0 Z " fill="#FFFFFF" transform="translate(637,448)"/>
<path d="M0 0 C5.33 -0.04 10.67 -0.04 16 0 C17 1 17 1 17 10 C11.17 14.37 6.1 13.2 -1 13 C-1 5 -1 5 0 0 Z " fill="#E3E3E3" transform="translate(486,634)"/>
<path d="M0 0 C13.86 0 27.72 0 42 0 C41.67 1.32 41.34 2.64 41 4 C39.36 4.05 37.73 4.1 36.04 4.15 C33.92 4.22 31.81 4.3 29.62 4.38 C28.57 4.41 28.57 4.41 23.23 4.59 C18 5 18 5 16 7 C10.33 7.08 4.67 7.08 -1 7 C-0.67 4.69 -0.34 2.38 0 0 Z " fill="#000000" transform="translate(504,584)"/>
<path d="M0 0 C5.61 0 11.22 0 17 0 C17 6 17 6 15 9 C15 10.98 15 12.96 15 15 C14.67 15.5 14.67 15.5 13 18 C7.33 18.12 1.67 18.13 -4 18 C-4 17.01 -4 16.02 -4 15 C-2.19 14.84 -2.19 14.84 7 14 C7.33 12.68 7.66 11.36 8 10 C5.69 10.33 3.38 10.66 1 11 C1.33 9.68 1.66 8.36 2 7 C3.15 6.84 3.15 6.84 9 6 C9.33 5.01 9.66 4.02 10 3 C6.37 3 2.74 3 -1 3 C-0.67 2.01 -0.34 1.02 0 0 Z " fill="#FFFFFF" transform="translate(454,662)"/>
<path d="M0 0 C17.49 0 34.98 0 53 0 C52.34 2.31 51.68 4.62 51 7 C47.7 7 44.4 7 41 7 C40.84 6.34 40.84 6.34 40 3 C26.8 3 13.6 3 0 3 C0 2.01 0 1.02 0 0 Z " fill="#000000" transform="translate(567,584)"/>
<path d="M0 0 C4.29 0 8.58 0 13 0 C12.34 3.63 11.68 7.26 11 11 C12.65 11.66 14.3 12.32 16 13 C16 13.33 16 13.66 16 14 C9.4 14 2.8 14 -4 14 C-1.12 2.25 -1.12 2.25 0 0 Z " fill="#050505" transform="translate(337,565)"/>
<path d="M0 0 C6.27 0 12.54 0 19 0 C19 0.66 19 1.32 19 2 C19.99 1.34 20.98 0.68 22 0 C25.3 0 28.6 0 32 0 C28 4 28 4 21 8 C20.67 7.67 20.34 7.34 20 7 C16.48 6.93 12.96 6.92 9.44 6.94 C8.47 6.94 8.47 6.94 3.56 6.96 C2.81 6.97 2.81 6.97 -1 7 C-0.67 4.69 -0.34 2.38 0 0 Z " fill="#000000" transform="translate(441,584)"/>
<path d="M0 0 C0 10.89 0 21.78 0 33 C-0.33 33 -0.66 33 -1 33 C-1 29.7 -1 26.4 -1 23 C-2.65 23.33 -4.3 23.66 -6 24 C-4.68 22.68 -3.36 21.36 -2 20 C-1.67 18.02 -1.34 16.04 -1 14 C-12.62 16.88 -12.62 16.88 -16 18 C-17.32 17.01 -18.64 16.02 -20 15 C-25.83 13.39 -31.69 11.88 -37.56 10.44 C-54.69 6.21 -54.69 6.21 -58 4 C-49.6 4.93 -42.14 6.82 -34 9 C-32.35 9 -30.7 9 -29 9 C-27.85 9.5 -27.85 9.5 -22 12 C-19.36 12.33 -16.72 12.66 -14 13 C-12.68 13.33 -11.36 13.66 -10 14 C-10.99 11.36 -11.98 8.72 -13 6 C-12.01 6 -11.02 6 -10 6 C-10 6.66 -10 7.32 -10 8 C-8.68 7.67 -7.36 7.34 -6 7 C-5.84 7.33 -5.84 7.33 -5 9 C-5.66 9.33 -6.32 9.66 -7 10 C-5.02 10.66 -3.04 11.32 -1 12 C-2 4 -2 4 -4 2 C-1 0 -1 0 0 0 Z " fill="#FDFDFD" transform="translate(636,365)"/>
<path d="M0 0 C7 3 7 3 13 7 C12.01 7.33 11.02 7.66 10 8 C9.67 9.32 9.34 10.64 9 12 C6.69 12.33 4.38 12.66 2 13 C1.67 13.99 1.34 14.98 1 16 C0.67 15.01 0.34 14.02 0 13 C-1.65 13.33 -3.3 13.66 -5 14 C-5 13.01 -5 12.02 -5 11 C-6.98 10.01 -8.96 9.02 -11 8 C-11 7.67 -11 7.34 -11 7 C-9.02 7 -7.04 7 -5 7 C-5.33 6.01 -5.66 5.02 -6 4 C-3 2 -3 2 0 2 C0 1.34 0 0.68 0 0 Z " fill="#FFFFFF" transform="translate(561,401)"/>
<path d="M0 0 C6.27 0 12.54 0 19 0 C18 4 18 4 13 8 C12.45 8.87 12.45 8.87 9.69 13.25 C8.47 14.82 7.25 16.38 6 18 C3.36 18 0.72 18 -2 18 C2 11 2 11 9 4 C6.03 3.67 3.06 3.34 0 3 C0 2.01 0 1.02 0 0 Z " fill="#FDFDFD" transform="translate(576,662)"/>
<path d="M0 0 C5.94 0 11.88 0 18 0 C16.57 5.7 12.9 8.68 9 13 C8.5 13.83 8.5 13.83 6 18 C3.36 18 0.72 18 -2 18 C2 11 2 11 9 4 C5.7 3.67 2.4 3.34 -1 3 C-0.67 2.01 -0.34 1.02 0 0 Z " fill="#FFFFFF" transform="translate(500,662)"/>
<path d="M0 0 C5.28 0 10.56 0 16 0 C9.86 6.14 2.82 13.09 -5 17 C-3.89 10.76 -2.53 5.9 0 0 Z " fill="#030303" transform="translate(468,565)"/>
<path d="M0 0 C7.33 3.67 9.36 6.72 13 14 C13 15.32 13 16.64 13 18 C10.69 17.67 8.38 17.34 6 17 C5.34 17.33 4.68 17.66 4 18 C-1 7.75 -1 7.75 -1 1 C-0.67 0.67 -0.34 0.34 0 0 Z " fill="#000000" transform="translate(642,466)"/>
<path d="M0 0 C-1 8 -1 8 -3 14 C-5.39 14.14 -7.79 14.29 -10.25 14.44 C-18 15 -18 15 -22 16 C-6 0 -6 0 0 0 Z " fill="#010101" transform="translate(473,588)"/>
<path d="M0 0 C-1.32 5.94 -2.64 11.88 -4 18 C-6.64 18 -9.28 18 -12 18 C-11.01 13.71 -10.02 9.42 -9 5 C-9.66 5 -10.32 5 -11 5 C-10.67 4.01 -10.34 3.02 -10 2 C-5 0 -5 0 0 0 Z " fill="#FFFFFF" transform="translate(484,662)"/>
<path d="M0 0 C-1.06 6.15 -2.28 11.99 -4 18 C-6.31 18 -8.62 18 -11 18 C-10.63 16.06 -10.26 14.12 -9.88 12.12 C-9.59 10.1 -9.3 8.08 -9 6 C-9.66 5.34 -10.32 4.68 -11 4 C-7.25 0.25 -5.23 0 0 0 Z " fill="#FFFFFF" transform="translate(649,662)"/>
<path d="M0 0 C6.27 0 12.54 0 19 0 C18.34 2.31 17.68 4.62 17 7 C11.06 7 5.12 7 -1 7 C-0.67 4.69 -0.34 2.38 0 0 Z " fill="#000000" transform="translate(377,584)"/>
<path d="M0 0 C6.27 0 12.54 0 19 0 C18.67 2.31 18.34 4.62 18 7 C12.72 7 7.44 7 2 7 C1.34 4.69 0.68 2.38 0 0 Z " fill="#000000" transform="translate(474,584)"/>
<path d="M0 0 C1.47 0.01 1.47 0.01 8.94 0.06 C7.95 2.37 6.96 4.68 5.94 7.06 C0.33 7.06 -5.28 7.06 -11.06 7.06 C-9.9 0.07 -9.9 0.07 0 0 Z " fill="#000000" transform="translate(643.0625,583.9375)"/>
<path d="M0 0 C-0.33 1.65 -0.66 3.3 -1 5 C0.98 5 2.96 5 5 5 C5 6.32 5 7.64 5 9 C3.35 9.33 1.7 9.66 0 10 C-0.33 11.65 -0.66 13.3 -1 15 C-1.33 15 -1.66 15 -2 15 C-2 13.02 -2 11.04 -2 9 C-8 6 -8 6 -12 7 C-12.33 6.34 -12.66 5.68 -13 5 C-13.33 5.16 -13.33 5.16 -15 6 C-15 4.02 -15 2.04 -15 0 C-9.59 -0.65 -5.37 -1.07 0 0 Z " fill="#F6F6F6" transform="translate(677,533)"/>
<path d="M0 0 C5.61 0 11.22 0 17 0 C16.34 2.31 15.68 4.62 15 7 C9.72 7 4.44 7 -1 7 C-0.67 4.69 -0.34 2.38 0 0 Z " fill="#000000" transform="translate(669,584)"/>
<path d="M0 0 C5.61 0 11.22 0 17 0 C16.34 2.31 15.68 4.62 15 7 C9.72 7 4.44 7 -1 7 C-0.67 4.69 -0.34 2.38 0 0 Z " fill="#000000" transform="translate(413,584)"/>
<path d="M0 0 C0.33 0.66 0.66 1.32 1 2 C0.01 2 -0.98 2 -2 2 C-1.01 2.66 -0.02 3.32 1 4 C1.33 4.33 1.66 4.66 2 5 C2.33 4.01 2.66 3.02 3 2 C3 3.32 3 4.64 3 6 C-0.3 6.66 -3.6 7.32 -7 8 C-7 9.65 -7 11.3 -7 13 C-7.99 13 -8.98 13 -10 13 C-8.68 13.33 -7.36 13.66 -6 14 C-6 12.35 -6 10.7 -6 9 C-4.68 8.67 -3.36 8.34 -2 8 C-2 9.32 -2 10.64 -2 12 C-2.99 12 -3.98 12 -5 12 C-3.68 12.33 -2.36 12.66 -1 13 C-0.67 12.01 -0.34 11.02 0 10 C0 11.32 0 12.64 0 14 C-0.99 14 -1.98 14 -3 14 C-3 14.99 -3 15.98 -3 17 C-3.66 17 -4.32 17 -5 17 C-5.33 17.99 -5.66 18.98 -6 20 C-9.3 20.66 -12.6 21.32 -16 22 C-13 16 -13 16 -11 15 C-11 14.01 -11 13.02 -11 12 C-10.01 12 -9.02 12 -8 12 C-8 10.35 -8 8.7 -8 7 C-6.68 6.34 -5.36 5.68 -4 5 C-3.67 3.68 -3.34 2.36 -3 1 C-2.01 0.67 -1.02 0.34 0 0 Z " fill="#EAEAEA" transform="translate(590,426)"/>
<path d="M0 0 C4.95 0 9.9 0 15 0 C15 2.31 15 4.62 15 7 C9.72 7 4.44 7 -1 7 C-0.67 4.69 -0.34 2.38 0 0 Z " fill="#000000" transform="translate(697,584)"/>
<path d="M0 0 C5.28 0 10.56 0 16 0 C16.33 2.31 16.66 4.62 17 7 C12.05 7 7.1 7 2 7 C1.34 4.69 0.68 2.38 0 0 Z " fill="#000000" transform="translate(716,584)"/>
<path d="M0 0 C4.95 0 9.9 0 15 0 C15.33 1.65 15.66 3.3 16 5 C15 6 15 6 6.94 6.06 C4.32 6.04 1.7 6.02 -1 6 C-0.67 4.02 -0.34 2.04 0 0 Z " fill="#FFFFFF" transform="translate(619,634)"/>
<path d="M0 0 C5 2 5 2 8 4 C8.33 5.32 8.66 6.64 9 8 C8.67 8.5 8.67 8.5 7 11 C7.33 13.31 7.66 15.62 8 18 C8.07 22.31 8.08 26.63 8.06 30.94 C8.05 33.19 8.04 35.45 8.04 37.78 C8.02 39.5 8.01 41.22 8 43 C7.67 43 7.34 43 7 43 C6.91 40.9 6.83 38.8 6.74 36.64 C6.6 33.87 6.46 31.1 6.31 28.25 C6.18 25.51 6.06 22.77 5.93 19.95 C5.04 12.34 3.32 6.85 0 0 Z " fill="#FFFFFF" transform="translate(512,425)"/>
<path d="M0 0 C3.99 3.99 5.23 10.44 7.12 15.62 C8.04 18.11 8.95 20.6 9.88 23.16 C10.58 25.09 11.28 27.02 12 29 C11.01 29.33 10.02 29.66 9 30 C8.4 28.4 7.79 26.8 7.17 25.14 C6.37 23.05 5.57 20.97 4.75 18.81 C3.96 16.74 3.17 14.66 2.36 12.52 C0 7 0 7 -4 2 C-2.68 1.34 -1.36 0.68 0 0 Z " fill="#FFFFFF" transform="translate(638,477)"/>
<path d="M0 0 C0.99 0 1.98 0 3 0 C3 0.66 3 1.32 3 2 C3.99 2 4.98 2 6 2 C6 2.99 6 3.98 6 5 C6.66 5.33 7.32 5.66 8 6 C6.35 7.65 4.7 9.3 3 11 C2.01 10.83 2.01 10.83 -3 10 C-3 8.68 -3 7.36 -3 6 C-3.99 6.33 -4.98 6.66 -6 7 C-6.33 6.01 -6.66 5.02 -7 4 C-5.68 4 -4.36 4 -3 4 C-2.34 3.01 -1.68 2.02 -1 1 C-0.67 0.67 -0.34 0.34 0 0 Z " fill="#FFFFFF" transform="translate(526,410)"/>
<path d="M0 0 C3.73 -0.05 7.46 -0.09 11.19 -0.12 C13.26 -0.15 15.34 -0.17 17.48 -0.2 C23 0 23 0 28 2 C27.67 3.32 27.34 4.64 27 6 C26.34 5.34 25.68 4.68 25 4 C19.34 3.61 13.67 3.28 8 3 C7.01 2.84 7.01 2.84 2 2 C1.67 3.98 1.34 5.96 1 8 C0.67 8 0.34 8 0 8 C0 5.36 0 2.72 0 0 Z " fill="#FFFFFF" transform="translate(597,510)"/>
<path d="M0 0 C0 0.66 0 1.32 0 2 C-11.62 6 -11.62 6 -15 6 C-15 6.66 -15 7.32 -15 8 C-18.63 8 -22.26 8 -26 8 C-17.52 1.64 -10.31 0 0 0 Z " fill="#FFFFFF" transform="translate(625,481)"/>
<path d="M0 0 C3.96 0 7.92 0 12 0 C11 6 11 6 9 8 C6.36 8 3.72 8 1 8 C0.67 5.36 0.34 2.72 0 0 Z " fill="#000000" transform="translate(738,584)"/>
<path d="M0 0 C6.84 -0.09 13.16 0.24 20 1 C16 4 16 4 10 7 C4 5 4 5 -1 2 C-0.67 1.34 -0.34 0.68 0 0 Z " fill="#FFFFFF" transform="translate(531,703)"/>
<path d="M0 0 C1.65 0 3.3 0 5 0 C4 8 4 8 3 12 C1.02 12 -0.96 12 -3 12 C-1.12 1.12 -1.12 1.12 0 0 Z " fill="#000000" transform="translate(527,665)"/>
<path d="M0 0 C0.66 0 1.32 0 2 0 C5 7 5 7 4 13 C3.17 12.67 3.17 12.67 -1 11 C-0.67 10.01 -0.34 9.02 0 8 C-0.66 8 -1.32 8 -2 8 C-2 9.98 -2 11.96 -2 14 C-3.32 13.34 -4.64 12.68 -6 12 C-5.67 10.35 -5.34 8.7 -5 7 C-1 6 -1 6 2 7 C1.67 6.34 1.34 5.68 1 5 C0.34 5 -0.32 5 -1 5 C-0.67 3.35 -0.34 1.7 0 0 Z " fill="#F8F8F8" transform="translate(714,519)"/>
<path d="M0 0 C0.66 0.33 1.32 0.66 2 1 C2.25 12.5 2.25 12.5 0 17 C0.66 17.66 1.32 18.32 2 19 C1.34 19.66 0.68 20.32 0 21 C-1.65 19.35 -3.3 17.7 -5 16 C-4.67 14.68 -4.34 13.36 -4 12 C-3.34 12 -2.68 12 -2 12 C-1.67 9.69 -1.34 7.38 -1 5 C-0.67 3.35 -0.34 1.7 0 0 Z " fill="#FAFAFA" transform="translate(705,379)"/>
<path d="M0 0 C0.33 1.32 0.66 2.64 1 4 C0.01 4 -0.98 4 -2 4 C-2 5.65 -2 7.3 -2 9 C-3.65 9.33 -5.3 9.66 -7 10 C-7 10.99 -7 11.98 -7 13 C-8.32 12.67 -9.64 12.34 -11 12 C-10.01 12 -9.02 12 -8 12 C-8.99 11.34 -9.98 10.68 -11 10 C-8 4 -8 4 -4 1 C-3.67 1.66 -3.34 2.32 -3 3 C-2.01 3 -1.02 3 0 3 C0 2.01 0 1.02 0 0 Z " fill="#9E9E9E" transform="translate(588,422)"/>
<path d="M0 0 C0.66 0.33 1.32 0.66 2 1 C2.99 3.97 3.98 6.94 5 10 C1.37 10 -2.26 10 -6 10 C-4.02 6.7 -2.04 3.4 0 0 Z " fill="#FFFFFF" transform="translate(414,633)"/>
<path d="M0 0 C1.32 0 2.64 0 4 0 C5 7 5 7 3 10 C1.68 9.67 0.36 9.34 -1 9 C-2 3 -2 3 0 0 Z " fill="#FFFFFF" transform="translate(777,437)"/>
<path d="M0 0 C1.65 0.33 3.3 0.66 5 1 C6 7 6 7 4 10 C0 9 0 9 -1 8 C-1 2 -1 2 0 0 Z " fill="#FFFFFF" transform="translate(298,437)"/>
<path d="M0 0 C0 0.66 0 1.32 0 2 C1.65 2 3.3 2 5 2 C1 5 1 5 -8 8 C-8.33 6.68 -8.66 5.36 -9 4 C-2 0 -2 0 0 0 Z " fill="#ECECEC" transform="translate(599,480)"/>
<path d="M0 0 C0.33 1.32 0.66 2.64 1 4 C0.01 4 -0.98 4 -2 4 C-2 4.99 -2 5.98 -2 7 C-2.66 7 -3.32 7 -4 7 C-4.33 7.99 -4.66 8.98 -5 10 C-8.3 10.66 -11.6 11.32 -15 12 C-11 6 -11 6 -3 3 C-2.01 3 -1.02 3 0 3 C0 2.01 0 1.02 0 0 Z " fill="#777777" transform="translate(589,436)"/>
<path d="M0 0 C-2 4 -2 4 -7 6 C-8.32 6.33 -9.64 6.66 -11 7 C-11.66 5.68 -12.32 4.36 -13 3 C-11.68 3.33 -10.36 3.66 -9 4 C-9.66 2.68 -10.32 1.36 -11 0 C-8 -1 -8 -1 0 0 Z " fill="#F5F5F5" transform="translate(419,515)"/>
<path d="M0 0 C3.3 0 6.6 0 10 0 C9.67 1.65 9.34 3.3 9 5 C5.7 5 2.4 5 -1 5 C-0.67 3.35 -0.34 1.7 0 0 Z " fill="#FFFFFF" transform="translate(562,671)"/>
<path d="M0 0 C3.3 0 6.6 0 10 0 C9.67 1.65 9.34 3.3 9 5 C5.7 5 2.4 5 -1 5 C-0.67 3.35 -0.34 1.7 0 0 Z " fill="#FFFFFF" transform="translate(486,671)"/>
<path d="M0 0 C5.61 0 11.22 0 17 0 C15.35 1.65 13.7 3.3 12 5 C5 3 5 3 0 1 C0 0.67 0 0.34 0 0 Z " fill="#FFFFFF" transform="translate(466,487)"/>
<path d="M0 0 C0 2.64 0 5.28 0 8 C-3 10 -3 10 -9 10 C-7 6 -7 6 -3 4 C-3 3.01 -3 2.02 -3 1 C-1 0 -1 0 0 0 Z " fill="#FFFFFF" transform="translate(516,469)"/>
<path d="M0 0 C0.66 0 1.32 0 2 0 C3 9 3 9 2 13 C1.34 13 0.68 13 0 13 C-0.33 14.32 -0.66 15.64 -1 17 C-2.32 16.67 -3.64 16.34 -5 16 C-4.01 14.02 -3.02 12.04 -2 10 C-1.27 6.68 -0.59 3.35 0 0 Z " fill="#FFFFFF" transform="translate(634,349)"/>
<path d="M0 0 C0.66 1.65 1.32 3.3 2 5 C1.01 5.99 0.02 6.98 -1 8 C-1 7.34 -1 6.68 -1 6 C-3.97 6.66 -6.94 7.32 -10 8 C-10 7.34 -10 6.68 -10 6 C-10.66 5.67 -11.32 5.34 -12 5 C-11.34 4.34 -10.68 3.68 -10 3 C-9.01 3.16 -9.01 3.16 -4 4 C-4.33 3.01 -4.66 2.02 -5 1 C-2 0 -2 0 0 0 Z " fill="#FFFFFF" transform="translate(378,533)"/>
<path d="M0 0 C0.66 0.66 1.32 1.32 2 2 C3.32 2.33 4.64 2.66 6 3 C5.01 3 4.02 3 3 3 C4.32 3.33 5.64 3.66 7 4 C7.33 3.01 7.66 2.02 8 1 C8 2.98 8 4.96 8 7 C1 9 1 9 -4 9 C-4.33 9.99 -4.66 10.98 -5 12 C-5 10.02 -5 8.04 -5 6 C-3.35 5.67 -1.7 5.34 0 5 C0 3.35 0 1.7 0 0 Z M-2 6 C-2 6.66 -2 7.32 -2 8 C-1.01 7.67 -0.02 7.34 1 7 C0.01 6.67 -0.98 6.34 -2 6 Z " fill="#DFDFDF" transform="translate(549,433)"/>
<path d="M0 0 C2 2 2 2 3 8 C2.34 9.32 1.68 10.64 1 12 C0.67 13.32 0.34 14.64 0 16 C-1.65 16.33 -3.3 16.66 -5 17 C-4.01 14.03 -3.02 11.06 -2 8 C-1.34 5.36 -0.68 2.72 0 0 Z " fill="#FFFFFF" transform="translate(444,352)"/>
<path d="M0 0 C0.99 0.66 1.98 1.32 3 2 C3.66 1.34 4.32 0.68 5 0 C6.6 4.8 4.97 9.13 4 14 C3.67 14 3.34 14 3 14 C3.33 11.03 3.66 8.06 4 5 C3.01 5.33 2.02 5.66 1 6 C-0.98 5.34 -2.96 4.68 -5 4 C-5 3.34 -5 2.68 -5 2 C-3.35 1.34 -1.7 0.68 0 0 Z " fill="#FFFFFF" transform="translate(423,533)"/>
<path d="M0 0 C0.33 0.17 0.33 0.17 2 1 C2.33 0.67 2.66 0.34 3 0 C3.99 0.17 3.99 0.17 9 1 C8.01 1.33 7.02 1.66 6 2 C7.32 2 8.64 2 10 2 C10.33 2.66 10.66 3.32 11 4 C9.35 4.66 7.7 5.32 6 6 C6 7.32 6 8.64 6 10 C5.01 9.67 4.02 9.34 3 9 C2.67 7.35 2.34 5.7 2 4 C1.34 3.67 0.68 3.34 0 3 C0 2.01 0 1.02 0 0 Z " fill="#FFFFFF" transform="translate(537,426)"/>
<path d="M0 0 C5 2 5 2 8 4 C8.33 5.32 8.66 6.64 9 8 C8.01 8.99 7.02 9.98 6 11 C2.13 9.07 1.46 3.84 0 0 Z " fill="#F9F9F9" transform="translate(512,425)"/>
<path d="M0 0 C0.66 0 1.32 0 2 0 C2.33 2.64 2.66 5.28 3 8 C4.32 9.32 5.64 10.64 7 12 C5.35 12.33 3.7 12.66 2 13 C0 11 0 11 -2 3 C-1.34 2.01 -0.68 1.02 0 0 Z " fill="#F8F8F8" transform="translate(618,493)"/>
<path d="M0 0 C-4.07 2.71 -8.46 4.23 -13 6 C-13 5.34 -13 4.68 -13 4 C-13.66 4 -14.32 4 -15 4 C-15.33 3.01 -15.66 2.02 -16 1 C-7 0 -7 0 0 0 Z " fill="#FFFFFF" transform="translate(626,449)"/>
<path d="M0 0 C-0.33 1.65 -0.66 3.3 -1 5 C-5 6 -5 6 -9 5 C-7.28 -0.17 -5.3 0 0 0 Z " fill="#F1F1F1" transform="translate(708,527)"/>
<path d="M0 0 C9 1 9 1 11 3 C10.67 3.99 10.34 4.98 10 6 C8.35 6 6.7 6 5 6 C4.01 5.01 3.02 4.02 2 3 C1.01 2.34 0.02 1.68 -1 1 C-0.67 0.67 -0.34 0.34 0 0 Z " fill="#EAEAEA" transform="translate(658,522)"/>
<path d="M0 0 C3.3 0 6.6 0 10 0 C10 2.64 10 5.28 10 8 C8.68 7.67 7.36 7.34 6 7 C6 5.02 6 3.04 6 1 C4.02 1 2.04 1 0 1 C0 0.67 0 0.34 0 0 Z " fill="#FFFFFF" transform="translate(628,513)"/>
<path d="M0 0 C5 1 5 1 10 4 C9.67 4.17 9.67 4.17 8 5 C6.02 4.34 4.04 3.68 2 3 C3.32 4.32 4.64 5.64 6 7 C4.35 6.67 2.7 6.34 1 6 C0.67 6.66 0.34 7.32 0 8 C-1 3 -1 3 0 0 Z " fill="#FFFFFF" transform="translate(506,414)"/>
<path d="M0 0 C1.65 0 3.3 0 5 0 C4.67 1.98 4.34 3.96 4 6 C2.35 6 0.7 6 -1 6 C-0.67 4.02 -0.34 2.04 0 0 Z " fill="#000000" transform="translate(624,665)"/>
<path d="M0 0 C1.65 0 3.3 0 5 0 C4.67 1.98 4.34 3.96 4 6 C2.35 6 0.7 6 -1 6 C-0.67 4.02 -0.34 2.04 0 0 Z " fill="#000000" transform="translate(549,665)"/>
<path d="M0 0 C1.65 0 3.3 0 5 0 C4.67 1.98 4.34 3.96 4 6 C2.35 5.67 0.7 5.34 -1 5 C-0.67 3.35 -0.34 1.7 0 0 Z " fill="#000000" transform="translate(439,665)"/>
<path d="M0 0 C1.32 0 2.64 0 4 0 C2 9 2 9 0 12 C0 8.04 0 4.08 0 0 Z " fill="#FFFFFF" transform="translate(703,635)"/>
<path d="M0 0 C0.99 0.66 1.98 1.32 3 2 C2.67 3.32 2.34 4.64 2 6 C2.66 6.99 2.66 6.99 6 12 C5.67 12.66 5.34 13.32 5 14 C-1 6 -1 6 -3 3 C-2.01 2.67 -1.02 2.34 0 2 C0 1.34 0 0.68 0 0 Z " fill="#FFFFFF" transform="translate(363,533)"/>
<path d="M0 0 C0.99 0.33 1.98 0.66 3 1 C3 3.31 3 5.62 3 8 C2.67 8 2.34 8 2 8 C2 6.35 2 4.7 2 3 C-0.64 3.99 -3.28 4.98 -6 6 C-6.99 6 -7.98 6 -9 6 C-4 2 -4 2 0 0 Z " fill="#FFFFFF" transform="translate(592,509)"/>
<path d="M0 0 C1.98 0.66 3.96 1.32 6 2 C6.33 4.31 6.66 6.62 7 9 C2 6 2 6 1 3 C0.34 2.34 -0.32 1.68 -1 1 C-0.67 0.67 -0.34 0.34 0 0 Z " fill="#FFFFFF" transform="translate(609,539)"/>
<path d="M0 0 C0.33 0.66 0.66 1.32 1 2 C1.99 1.67 2.98 1.34 4 1 C4 1.99 4 2.98 4 4 C2.51 4.17 2.51 4.17 -5 5 C-5.66 4.34 -6.32 3.68 -7 3 C-4.69 2.01 -2.38 1.02 0 0 Z " fill="#FFFFFF" transform="translate(630,395)"/>
<path d="M0 0 C5 4 5 4 8 11 C7.67 11.99 7.34 12.98 7 14 C0 2.25 0 2.25 0 0 Z " fill="#FFFFFF" transform="translate(604,711)"/>
<path d="M0 0 C1.32 2.31 2.64 4.62 4 7 C3.67 7.99 3.34 8.98 3 10 C0 5 0 5 0 3 C-2.31 3 -4.62 3 -7 3 C-7 2.34 -7 1.68 -7 1 C-4 0 -4 0 0 0 Z " fill="#FFFFFF" transform="translate(443,537)"/>
<path d="M0 0 C1.32 0 2.64 0 4 0 C5 2 5 2 5 9 C4.67 9.66 4.34 10.32 4 11 C3.01 10.67 2.02 10.34 1 10 C1.33 8.68 1.66 7.36 2 6 C1 2 1 2 0 0 Z " fill="#FFFFFF" transform="translate(627,491)"/>
<path d="M0 0 C2.64 0.66 5.28 1.32 8 2 C8 3.32 8 4.64 8 6 C5.69 5.34 3.38 4.68 1 4 C0.67 2.68 0.34 1.36 0 0 Z " fill="#FFFFFF" transform="translate(693,518)"/>
<path d="M0 0 C0 1.98 0 3.96 0 6 C-1.32 6 -2.64 6 -4 6 C-4.99 4.35 -5.98 2.7 -7 1 C-1 0 -1 0 0 0 Z " fill="#D7D7D7" transform="translate(614,457)"/>
<path d="M0 0 C0.99 0.33 1.98 0.66 3 1 C2.67 1.16 2.67 1.16 1 2 C1 3.98 1 5.96 1 8 C-0.32 7.34 -1.64 6.68 -3 6 C-2.67 4.35 -2.34 2.7 -2 1 C-1.34 0.67 -0.68 0.34 0 0 Z " fill="#FFFFFF" transform="translate(711,525)"/>
<path d="M0 0 C4 5 4 5 6 12 C4.68 11.34 3.36 10.68 2 10 C0.75 4.88 0.75 4.88 0 0 Z " fill="#FFFFFF" transform="translate(336,391)"/>
<path d="M0 0 C0.66 0.33 1.32 0.66 2 1 C2.33 3.31 2.66 5.62 3 8 C1.02 8 -0.96 8 -3 8 C-2.01 5.36 -1.02 2.72 0 0 Z " fill="#F4F4F4" transform="translate(611,499)"/>
<path d="M0 0 C1 3 1 3 -3 12 C-3.66 11.67 -4.32 11.34 -5 11 C-1 2 -1 2 0 0 Z " fill="#FFFFFF" transform="translate(742,391)"/>
<path d="M0 0 C1.32 0.33 2.64 0.66 4 1 C3.67 1.17 3.67 1.17 2 2 C2 2.99 2 3.98 2 5 C0.02 5.33 -1.96 5.66 -4 6 C-2.68 4.02 -1.36 2.04 0 0 Z " fill="#8B8B8B" transform="translate(578,442)"/>
<path d="M0 0 C0.33 0.99 0.66 1.98 1 3 C1.66 3.33 2.32 3.66 3 4 C2.34 4 1.68 4 1 4 C0.67 6.97 0.34 9.94 0 13 C-0.33 13 -0.66 13 -1 13 C-1 10.36 -1 7.72 -1 5 C-1.66 4.34 -2.32 3.68 -3 3 C-2.01 3 -1.02 3 0 3 C0 2.01 0 1.02 0 0 Z " fill="#FFFFFF" transform="translate(637,535)"/>
<path d="M0 0 C-0.66 1.65 -1.32 3.3 -2 5 C-3.65 4.67 -5.3 4.34 -7 4 C-7 3.01 -7 2.02 -7 1 C-2 0 -2 0 0 0 Z " fill="#FFFFFF" transform="translate(679,514)"/>
<path d="M0 0 C0.99 0.33 1.98 0.66 3 1 C2.67 2.65 2.34 4.3 2 6 C1.01 5.67 0.02 5.34 -1 5 C-0.67 3.35 -0.34 1.7 0 0 Z " fill="#FFFFFF" transform="translate(739,363)"/>
<path d="M0 0 C0.99 0.33 1.98 0.66 3 1 C2.67 2.65 2.34 4.3 2 6 C1.01 5.67 0.02 5.34 -1 5 C-0.67 3.35 -0.34 1.7 0 0 Z " fill="#FFFFFF" transform="translate(338,363)"/>
<path d="M0 0 C0.66 1.32 1.32 2.64 2 4 C3.32 4.99 4.64 5.98 6 7 C2 8 2 8 0 7 C0 4.69 0 2.38 0 0 Z " fill="#FFFFFF" transform="translate(505,389)"/>
<path d="M0 0 C0.99 0.66 1.98 1.32 3 2 C2.67 2.66 2.34 3.32 2 4 C0.35 4.33 -1.3 4.66 -3 5 C-3 3.68 -3 2.36 -3 1 C-2.01 0.67 -1.02 0.34 0 0 Z " fill="#FFFFFF" transform="translate(657,513)"/>
<path d="M0 0 C1.32 0.33 2.64 0.66 4 1 C2.35 2.65 0.7 4.3 -1 6 C-1.66 6 -2.32 6 -3 6 C-2 4 -1 2 0 0 Z " fill="#FFFFFF" transform="translate(507,470)"/>
<path d="M0 0 C0.33 0.17 0.33 0.17 2 1 C2.33 0.67 2.66 0.34 3 0 C3.66 1.32 4.32 2.64 5 4 C3.35 3.67 1.7 3.34 0 3 C0 2.01 0 1.02 0 0 Z M5 1 C9 2 9 2 9 2 Z " fill="#F0F0F0" transform="translate(537,426)"/>
<path d="M0 0 C0 3.63 0 7.26 0 11 C-0.33 11 -0.66 11 -1 11 C-1.33 8.69 -1.66 6.38 -2 4 C-2.66 3.34 -3.32 2.68 -4 2 C-1 0 -1 0 0 0 Z " fill="#F0F0F0" transform="translate(636,365)"/>
</svg>
