<?xml version="1.0" encoding="UTF-8"?>
<!-- Generator: visioncortex VTracer 0.6.5 -->
<svg version="1.1" xmlns="http://www.w3.org/2000/svg" width="500" height="500">
<path d="M0 0 C165 0 330 0 500 0 C500 165 500 330 500 500 C335 500 170 500 0 500 C0 335 0 170 0 0 Z " fill="#FEFEFE" transform="translate(0,0)"/>
<path d="M0 0 C3.71 2.94 7.39 5.93 11 9 C12.98 10.65 14.96 12.3 17 14 C46.87 46.17 59.5 83.51 58 127 C55.16 156.68 43.46 184.44 24 207 C22.02 209.31 20.04 211.62 18 214 C15.39 216.39 12.71 218.72 10 221 C8.41 222.4 6.82 223.81 5.19 225.25 C-26.03 249.21 -64.03 258.55 -103.02 254.35 C-140.87 248.03 -174.06 228.37 -196.99 197.37 C-218.48 166.18 -227.06 129.65 -222.09 92.12 C-215.14 55.32 -196.64 24.17 -167 1 C-115.33 -33.82 -51.7 -35.79 0 0 Z " fill="#000000" transform="translate(355,148)"/>
<path d="M0 0 C3.42 2.55 6.77 5.21 10 8 C11.46 9.2 12.93 10.39 14.44 11.62 C34.71 31.07 47.15 57.5 48.21 85.56 C48.7 115.57 40.73 140.98 21 164 C19.35 165.65 17.7 167.3 16 169 C14.85 170.24 13.69 171.48 12.5 172.75 C-9.83 193.84 -38.61 201.61 -68.66 201.31 C-98.9 199.84 -125.06 185.06 -145.44 163.25 C-148 160 -148 160 -148 159 C-145.03 159 -142.06 159 -139 159 C-140.98 156.69 -142.96 154.38 -145 152 C-143.07 142.37 -137.93 135.6 -132 128 C-129.94 124.37 -127.92 120.71 -126 117 C-120.9 118.7 -118.97 122.67 -116 127 C-114 132.48 -114 132.48 -112.56 138.19 C-112.07 140.08 -111.58 141.97 -111.07 143.92 C-110 149 -110 149 -110 155 C-105.05 155 -100.1 155 -95 155 C-96 153 -96 153 -103 149 C-107.87 144.13 -107.86 134.06 -108.75 127.44 C-110.69 118.99 -114.82 111.9 -120 105 C-119.69 97.58 -118.27 90.31 -117 83 C-110 81 -110 81 -108 82 C-108.99 84.64 -109.98 87.28 -111 90 C-111 99.54 -110.78 102.33 -106 110 C-102.63 113.25 -102.63 113.25 -98 117 C-95.53 119.28 -93.07 121.57 -90.62 123.88 C-84.81 129.32 -78.95 134.7 -73 140 C-71.6 141.3 -70.19 142.6 -68.75 143.94 C-62.05 149.41 -57.81 149 -49 149 C-38.77 144.45 -33.24 138.19 -26 130 C-24.12 127.96 -22.25 125.92 -20.31 123.81 C-18.56 121.89 -16.81 119.98 -15 118 C-13.04 115.94 -11.08 113.88 -9.06 111.75 C-3.43 105.36 -0.22 100.6 0.5 92 C-0.56 79.3 -8.71 72.6 -17.8 64.7 C-23.6 59.59 -29.12 54.21 -34.68 48.84 C-44.27 40.31 -50.19 37.37 -63 38 C-70.99 42 -75.7 46.33 -81.5 53.06 C-85 57 -85 57 -92 63 C-92.33 63.66 -92.33 63.66 -94 67 C-99.58 72.58 -104.28 72.2 -112 73 C-114.64 73 -117.28 73 -120 73 C-120 72.34 -120 71.68 -120 71 C-119.34 70.84 -119.34 70.84 -116 70 C-115.34 67.36 -114.68 64.72 -114 62 C-113.84 61.34 -113.84 61.34 -113 58 C-119 55 -119 55 -125 56 C-125.33 56.33 -125.66 56.66 -126 57 C-125.95 57.93 -125.95 57.93 -125.69 62.62 C-126 69 -126 69 -132 76 C-132.98 81.33 -133 86.21 -132.88 91.62 C-133 97 -133 97 -136 105 C-136.14 107.06 -136.29 109.12 -136.44 111.25 C-137.32 121.88 -140.36 128.97 -146 138 C-147.68 142.66 -149.35 147.33 -151 152 C-151.66 152.33 -152.32 152.66 -153 153 C-169.37 125.62 -174.59 98.66 -169.38 67.19 C-160.23 35.67 -142.44 10.86 -113.81 -5.75 C-75.8 -24.08 -36.09 -22.07 0 0 Z " fill="#FFFFFF" transform="translate(334,171)"/>
<path d="M0 0 C9.44 0 11.55 0.19 19.12 4.5 C27.63 9.27 36.26 13.67 45 18 C48.44 19.72 51.88 21.44 55.31 23.16 C57.07 24.03 58.82 24.91 60.62 25.81 C64.69 27.84 64.69 27.84 85 38 C82.24 46.28 78.19 53.87 74.27 61.65 C73.41 63.37 72.55 65.09 71.66 66.87 C68.9 72.37 66.14 77.87 63.38 83.38 C61.5 87.11 59.64 90.84 57.77 94.57 C53.18 103.71 48.59 112.86 44 122 C37.84 119.95 32.42 117.31 26.62 114.38 C24.64 113.37 22.65 112.37 20.6 111.34 C19.08 110.57 17.56 109.79 16 109 C18.28 102.15 21.37 96.07 24.62 89.62 C25.81 87.27 27 84.91 28.23 82.48 C29.14 80.67 30.06 78.86 31 77 C8.09 87.97 -11.96 100.96 -30 119 C-31.65 120.65 -33.3 122.3 -35 124 C-73.73 164.35 -89.62 217.07 -89.25 272.05 C-88.59 296.05 -82.56 318.67 -74 341 C-74.33 341.99 -74.66 342.98 -75 344 C-78.53 345.69 -82.12 347.23 -85.75 348.69 C-86.74 349.09 -86.74 349.09 -91.73 351.14 C-97 353 -97 353 -102 353 C-105 348 -105 348 -106 339 C-105.34 338.67 -104.68 338.34 -104 338 C-103.67 337.01 -103.34 336.02 -103 335 C-102.34 335 -101.68 335 -101 335 C-102.62 327.73 -104.63 321.04 -107 314 C-108 309 -108 309 -108 300 C-107.01 300 -106.02 300 -105 300 C-100.67 289.16 -101.56 278.52 -103 267 C-105.52 274.55 -106.87 281.19 -108 289 C-108.33 289.66 -108.66 290.32 -109 291 C-109.66 291 -110.32 291 -111 291 C-111.33 288.36 -111.66 285.72 -112 283 C-112.66 283 -113.32 283 -114 283 C-114.33 283.66 -114.66 284.32 -115 285 C-116.73 275.79 -117.5 266.8 -117.88 257.44 C-118 254.8 -118.12 252.15 -118.24 249.43 C-118.01 242.25 -116.72 237.57 -114 231 C-114 229.35 -114 227.7 -114 226 C-113.34 225.01 -112.68 224.02 -112 223 C-110 217 -110 217 -110 210.31 C-110 203.86 -109.36 198.28 -108 192 C-107.34 192 -106.68 192 -106 192 C-106.33 190.35 -106.66 188.7 -107 187 C-105.13 181.62 -103.11 176.29 -101 171 C-100.09 168.59 -99.19 166.17 -98.25 163.69 C-83.27 128.24 -58.77 98.08 -28 75 C-25.92 73.41 -23.83 71.82 -21.69 70.19 C-6.97 60.26 8.49 51.57 25 45 C25.33 44.67 25.66 44.34 26 44 C23.07 42.56 20.14 41.11 17.12 39.62 C7.25 34.69 -2.39 29.43 -12 24 C-10.57 20.94 -9.13 17.87 -7.69 14.81 C-7.29 13.96 -7.29 13.96 -5.26 9.64 C-3 5 -3 5 0 0 Z " fill="#000000" transform="translate(159,0)"/>
<path d="M0 0 C4.5 3.56 4.5 3.56 10 9 C12.83 11.67 15.66 14.34 18.5 17 C19.96 18.38 21.41 19.75 22.91 21.17 C26.19 24.24 29.53 27.26 32.88 30.25 C38.64 35.49 39.87 37.07 41 45 C37.16 52.68 31.9 57.76 26 64 C20.1 70.38 14.21 76.76 8.44 83.25 C4 88 4 88 1 89 C-10.41 89 -14.19 84.43 -22 77 C-23.45 75.64 -24.9 74.29 -26.4 72.89 C-29.27 70.19 -32.14 67.48 -34.99 64.76 C-37.74 62.19 -40.54 59.67 -43.38 57.21 C-47 54 -47 54 -49 51 C-49 38.23 -45.05 35.11 -36.44 26.38 C-34.97 24.93 -33.51 23.49 -32 22 C-29.65 19.34 -27.32 16.68 -25 14 C-11.27 -1.25 -11.27 -1.25 0 0 Z " fill="#FFFFFF" transform="translate(283,220)"/>
<path d="M0 0 C2.31 0 4.62 0 7 0 C8.65 2.97 10.3 5.94 12 9 C13.65 6.03 15.3 3.06 17 0 C19.31 0 21.62 0 24 0 C25.83 5.5 24.8 11.46 24.56 17.19 C24.46 19.76 24.36 22.33 24.25 24.98 C24.17 26.97 24.09 28.95 24 31 C21.69 31 19.38 31 17 31 C16.83 28.86 16.83 28.86 16 18 C15.67 18.82 15.67 18.82 14 23 C12.68 22.67 11.36 22.34 10 22 C9.34 20.68 8.68 19.36 8 18 C7.67 22.29 7.34 26.58 7 31 C4.69 31 2.38 31 0 31 C-0.92 20.97 -1.16 11.07 -1 1 C-0.67 0.67 -0.34 0.34 0 0 Z " fill="#000000" transform="translate(288,249)"/>
<path d="M0 0 C13.5 -0.38 13.5 -0.38 18 3 C19.58 7.74 19.27 12.05 19 17 C15 22 15 22 8 24 C7.67 26.31 7.34 28.62 7 31 C4.69 31 2.38 31 0 31 C-1.17 25.16 -1.13 19.77 -1.12 13.81 C-1.13 11.65 -1.13 9.49 -1.13 7.27 C-1 2 -1 2 0 0 Z " fill="#000000" transform="translate(266,249)"/>
<path d="M0 0 C0 2.31 0 4.62 0 7 C-2 8 -2 8 -10 8 C-10.12 20.75 -10.12 20.75 -9 23 C-8.01 23 -7.02 23 -6 23 C-6 21.68 -6 20.36 -6 19 C-6.99 18.01 -7.98 17.02 -9 16 C-8.67 14.35 -8.34 12.7 -8 11 C-5.03 11 -2.06 11 1 11 C1.04 17.33 1.04 23.67 1 30 C0 31 0 31 -5.25 31.25 C-11 31 -11 31 -16 28 C-20.84 19.94 -20.02 15.08 -18 6 C-11.26 -0.74 -9.42 -0.11 0 0 Z " fill="#000000" transform="translate(261,249)"/>
<path d="M0 0 C3.21 6.42 3 10.6 3 18 C1 17 1 17 -1 13 C-1 5 -1 5 0 0 Z " fill="#FFFFFF" transform="translate(64,275)"/>
<path d="M0 0 C0.99 0.33 1.98 0.66 3 1 C3 3.31 3 5.62 3 8 C1.68 7.67 0.36 7.34 -1 7 C-1 1 -1 1 0 0 Z " fill="#FFFFFF" transform="translate(274,256)"/>
<path d="M0 0 C0.33 0 0.66 0 1 0 C0.67 2.64 0.34 5.28 0 8 C-0.66 8 -1.32 8 -2 8 C-2 6.02 -2 4.04 -2 2 C-1.34 2 -0.68 2 0 2 C0 1.34 0 0.68 0 0 Z " fill="#FFFFFF" transform="translate(56,231)"/>
</svg>
