<?xml version="1.0" encoding="UTF-8"?>
<!-- Generator: visioncortex VTracer 0.6.4 -->
<svg version="1.1" xmlns="http://www.w3.org/2000/svg" width="237" height="246">
<path d="M0 0 C2.082869615879659 0.003753514894231813 4.1656470311278895 0.0000004606589421030094 6.248514890670776 -0.003753662109375 C108.17672448902277 0.03267784837492016 150.1827140365964 51.554912352070644 150.21518397331238 149.43000411987305 C150.2133938884735 150.5000450348854 150.2133938884735 150.5000450348854 150.21156764030457 151.59170293807983 C150.20795145665693 153.75366436604477 150.2115672036088 155.91554334691548 150.21518397331238 158.0775032043457 C150.1827140365964 255.952594972148 108.17672448902283 307.4748294758438 6.248514890670776 307.5112609863281 C5.56125283956527 307.51002227783204 4.873990788459778 307.50878356933595 4.165902614593506 307.50750732421875 C2.083032998713861 307.5037538093245 0.0002555834656305933 307.5075068635598 -2.0826122760772705 307.5112609863281 C-104.01082187442928 307.4748294758438 -146.0168114220029 255.95259497214806 -146.04928135871887 158.0775032043457 C-146.04808796882628 157.36414259433747 -146.04689457893372 156.65078198432923 -146.04566502571106 155.91580438613892 C-146.04204884206342 153.753842958174 -146.04566458901527 151.5919639773033 -146.04928135871887 149.43000411987305 C-146.0163588459563 50.19069897282206 -102.56791213277027 -0.18486652068317966 0 0 Z " fill="#FDFDFD" transform="translate(116.41704869270325,-30.753753662109375)"/>
<path d="M0 0 C4.915717562173164 1.638572520724388 5.21654965457769 3.505464934448767 6.73046875 8.21875 C8.05857514031431 10.864785720166445 8.974518975611844 10.671543032993249 11.75 11.25 C12.75 14.25 12.75 14.25 12.75 16.25 C13.079999999999998 16.909999999999997 13.409999999999997 17.57 13.75 18.25 C15.15949448198792 22.47848344596376 15.334385790506957 26.824137027778193 14.75 31.25 C14.090000000000003 31.25 13.43 31.25 12.75 31.25 C12.503839645603584 33.538619220881856 12.503839645603584 33.538619220881856 12.625 36.25 C12.652070312500001 37.642187500000006 12.652070312500001 37.642187500000006 12.6796875 39.0625 C12.702890624999995 39.784375 12.726093750000004 40.506249999999994 12.75 41.25 C13.409999999999997 40.59 14.07 39.93000000000001 14.75 39.25 C15.9561010952401 43.91359090159506 16.975656351546988 48.493317588074376 17.75 53.25 C18.08 54.24000000000001 18.409999999999997 55.22999999999999 18.75 56.25 C14.578801931467439 54.85960064382249 14.44649866776303 52.67357020769221 12.91015625 48.76953125 C11.831735955561818 46.890295446571784 11.831735955561818 46.890295446571784 9.4921875 47.65234375 C6.68596785448085 50.22576042044244 8.311114443393308 51.78102936663525 9.8125 55 C10.312656250000003 56.07249999999999 10.8128125 57.14500000000001 11.328125 58.25 C11.797343749999996 59.24000000000001 12.2665625 60.22999999999999 12.75 61.25 C13.183125000000004 62.4875 13.61625 63.724999999999994 14.0625 65 C16.643206438961514 68.44094191861535 19.746485318695136 68.51517996422189 23.75 67.25 C26.209011685626393 63.187285041139006 26.012238223571664 58.38121489677019 26.40625 53.73046875 C27.720078740157476 44.25 27.720078740157476 44.25 31.75 44.25 C31.853125 43.05375000000001 31.956249999999997 41.8575 32.0625 40.625 C32.289375 39.51124999999999 32.51625 38.39750000000001 32.75 37.25 C35.312499999999986 37.9375 35.312499999999986 37.9375 37.75 39.25 C37.75 38.59 37.75 37.93000000000001 37.75 37.25 C38.41 37.25 39.06999999999999 37.25 39.75 37.25 C40.245000000000005 36.260000000000005 40.245000000000005 36.260000000000005 40.75 35.25 C41.77479812123448 42.42358684864139 40.01476933778238 44.562020326406895 34.73046875 49.28515625 C31.96041104711278 52.033359454245115 30.971875393911596 54.584373818265206 29.75 58.25 C30.185703125000003 57.805273437500006 30.62140625 57.360546875 31.0703125 56.90234375 C35.16718964081089 53.00942369628575 36.98183235306734 51.561755810653864 42.75 53.25 C43.04814239699998 51.026393202250006 43.04814239699998 51.026393202250006 40.75 50.25 C42.875 48.375 42.875 48.375 45.75 46.25 C46.41 45.713750000000005 47.06999999999999 45.17750000000001 47.75 44.625 C49.75 43.25 49.75 43.25 52.125 42.375 C57.18725865754297 40.20546057533872 60.53256110503909 36.59354250819723 63.75 32.25 C67.1486848761456 32.25 65.98921704991477 34.41099282327576 66.00210571289063 37.17668151855469 C65.99496551513671 37.89439224243165 65.98782531738281 38.61210296630858 65.98046875 39.3515625 C65.9804183959961 40.091872100830074 65.9803680419922 40.83218170166015 65.98031616210938 41.59492492675781 C65.9766799948016 44.02178203508012 65.95773473267106 46.44822860287388 65.9375 48.875 C65.92998944850955 50.529377061504604 65.92274683975828 52.18375536100416 65.915771484375 53.838134765625 C65.73464441672596 85.40491352332793 65.73464441672596 85.40491352332793 63.75 95.25 C63.465584595550794 98.06215281693704 63.339740158682375 100.86317778369079 63.25 103.6875 C63.1687890625 104.823486328125 63.1687890625 104.823486328125 63.0859375 105.982421875 C62.937744672398594 108.30847429101232 62.937744672398594 108.30847429101232 63.75 111.25 C68.07865458590906 110.75928140135875 71.28855382564082 109.21099235395357 74.875 106.75 C77.0926047501708 105.28441535778694 78.95130558296331 104.17041407185172 81.4375 103.1875 C84.97633131522825 101.75283865598854 88.02029878896583 99.70940242206834 89.75 96.25 C91.70651924590604 95.46208048468037 93.691706099999 94.74484260525122 95.6875 94.0625 C101.19237144276786 92.01543221157704 105.56534206632756 89.59399131456934 110.2578125 86.1015625 C113.02641070240969 84.04464157846051 115.86083003333982 82.13358873151093 118.75 80.25 C119.6575 79.651875 120.565 79.05375 121.5 78.4375 C123.75 77.25 123.75 77.25 125.75 78.25 C124.0804936195155 80.22478182775535 122.3867069681034 82.00733232245874 120.546875 83.81640625 C119.71739349365234 84.64663551330565 119.71739349365234 84.64663551330565 118.87115478515625 85.49363708496094 C117.69421722962744 86.66822424437908 116.51356150774586 87.8390952857286 115.32958984375 89.006591796875 C113.51356409025038 90.79911147910568 111.71112578612849 92.60447689320483 109.91015625 94.412109375 C108.76901823780145 95.5476684991531 107.62711563694 96.68245990029129 106.484375 97.81640625 C105.94157897949219 98.36011367797852 105.39878295898438 98.90382110595704 104.83953857421875 99.46400451660156 C100.98097360905082 103.25 100.98097360905082 103.25 98.75 103.25 C98.0774140501988 104.58035723110459 97.41201688733092 105.91435189398146 96.75 107.25 C95.5274009279288 108.60754378201284 94.2517528863172 109.9184795265962 92.9375 111.1875 C92.22078125 111.8848828125 91.5040625 112.58226562499999 90.765625 113.30078125 C89.767890625 114.26564453124999 89.767890625 114.26564453124999 88.75 115.25 C87.904375 116.11624999999998 87.05875 116.98250000000002 86.1875 117.875 C84.25471029296999 119.75823099659334 82.30573061727635 121.50815513288842 80.25 123.25 C73.52850627084592 128.94095830352114 73.52850627084592 128.94095830352114 68.75 136.25 C69.41 136.58 70.07 136.91 70.75 137.25 C69.43945376598575 138.605737483463 68.10251497122893 139.93612831366332 66.75 141.25 C66.42 142.24 66.09 143.23 65.75 144.25 C65.069375 144.683125 64.38875 145.11625 63.6875 145.5625 C60.8442664103425 148.0388647393791 60.8945707095441 149.6727502399117 61.75 153.25 C65.23254712815118 153.99751372563196 65.23254712815118 153.99751372563196 68.75 154.25 C68.75 157.25 68.75 157.25 67.75 159.25 C73.23093423257454 161.1185003065595 74.24143875670744 160.15805460644197 76.75 155.25 C78.4127028677168 153.91172696013038 80.07916181461503 152.57810214735727 81.75 151.25 C82.12125 150.5075 82.4925 149.765 82.875 149 C83.75 147.25 83.75 147.25 86.75 147.25 C86.75 146.59 86.75 145.93 86.75 145.25 C87.41 144.92 88.07 144.59 88.75 144.25 C89.10631287182879 141.89766393399242 89.10631287182879 141.89766393399242 89.1875 139.125 C89.74985697927225 131.7857648467858 90.70926696939313 126.77036651530344 97.75 123.25 C98.08 122.59 98.41 121.93 98.75 121.25 C100.3278125 120.8478125 100.3278125 120.8478125 101.9375 120.4375 C106.41547167918424 119.04272193599178 108.28542339348985 117.32087471940673 111.75 114.25 C112.74000000000001 113.92000000000002 113.73000000000002 113.59 114.75 113.25 C115.22437500000001 112.25999999999999 115.69875000000002 111.26999999999998 116.1875 110.25 C117.83929703493459 107.07854969292558 118.24809956587939 106.3667300144707 121.75 106.25 C124.18413502399574 108.68413502399574 123.19609411103079 113.48172680878031 121.625 116.1875 C118.99983077630509 117.67509589342711 116.71492017972673 117.31588711510506 113.75 117.25 C113.75 117.91 113.75 118.57 113.75 119.25 C113.09 119.25 112.43 119.25 111.75 119.25 C111.2006311876093 121.39187758236287 111.2006311876093 121.39187758236287 110.875 124 C110.0822961145359 128.36908885709278 109.35763272972764 130.46696903706726 105.75 133.25 C102.27642442270448 136.63216569368248 99.12535728755086 140.12851565208086 96.08203125 143.89453125 C94.75000000000001 145.25 94.75000000000001 145.25 92.75 145.25 C92.05357217863035 146.5680328189558 91.39182972775843 147.90453471884715 90.75 149.25 C89.82744018083488 150.4045177165552 88.86731384121994 151.5298557089127 87.875 152.625 C85.19368748051075 155.66988031874203 82.98571001808038 158.86037513387814 80.75 162.25 C79.925 163.19875 79.1 164.1475 78.25 165.125 C76.25868675721351 167.42593816773194 75.00548486622617 169.66834587973503 73.75 172.4375 C72.40653547303837 175.3256767765855 72.0311004314464 176.08545340598258 69.1875 177.75 C66.35906610309715 179.49057470578637 66.23774327302765 180.1461435943499 65.25 183.1875 C63.230187004119585 189.3259260880388 59.29635952881672 192.1012191016178 52.75 192.25 C52.42 191.26 52.09 190.27 51.75 189.25 C51.09 188.92 50.43000000000001 188.59 49.75 188.25 C39.00622625580414 162.36566061629378 39.00622625580414 162.36566061629378 43.75 155.25 C44.95017430887552 150.15881471521595 44.933352198359046 145.07634325776 44.9375 139.875 C44.955869140625 138.62783203125002 44.955869140625 138.62783203125002 44.974609375 137.35546875 C44.9796254507892 135.3189419795887 44.87570892713394 133.2826494319624 44.75 131.25 C44.09 131.25 43.43000000000001 131.25 42.75 131.25 C42.41666666666666 129.91666666666666 42.08333333333334 128.58333333333334 41.75 127.25 C41.09 127.25 40.43000000000001 127.25 39.75 127.25 C39.646874999999994 126.30124999999998 39.54375 125.35250000000002 39.4375 124.375 C39.16536246665618 121.0278047644926 39.16536246665618 121.0278047644926 36.4375 120.4375 C31.544031289971166 118.2752696397547 30.021494706258444 112.37670853235784 29.375 107.3125 C28.38865686345912 104.05756764941509 25.816058906628186 104.25116209196023 22.75 103.25 C21.104695841369548 100.33332444606418 20.75 98.60279017815628 20.75 95.25 C20.090000000000003 95.25 19.43 95.25 18.75 95.25 C16.968013921054876 91.09203248246138 16.75 87.71406278967623 16.75 83.25 C16.090000000000003 83.25 15.43 83.25 14.75 83.25 C14.75 81.25 14.75 79.25 14.75 77.25 C14.090000000000003 77.25 13.43 77.25 12.75 77.25 C11.679687499999986 74.73046874999997 11.679687499999986 74.73046874999997 10.625 71.4375 C10.271796875 70.3585546875 9.91859375 69.279609375 9.5546875 68.16796875 C8.75 65.25 8.75 65.25 8.75 62.25 C8.090000000000003 62.25 7.43 62.25 6.75 62.25 C6.75 61.59 6.75 60.93000000000001 6.75 60.25 C6.090000000000003 60.25 5.43 60.25 4.75 60.25 C3.9746047053419282 57.869294134370136 3.3322309648304085 55.553994806401846 2.75 53.125 C1.8246246822641865 49.394580750377486 0.8988010266803066 45.69531694116003 -0.3203125 42.046875 C-1.150467349642085 39.54943435990029 -1.6891540217163943 37.213391422051615 -2.125 34.625 C-2.8557137862878434 30.688574119029994 -3.980699859022277 27.125863759531626 -5.375 23.375 C-7.666816048068011 16.723563950719907 -10.986537049281274 6.596359279252617 -3.25 3.25 C-3.25 0.25 -3.25 0.25 0 0 Z " fill="#ECEDEC" transform="translate(26.25,43.75)"/>
<path d="M0 0 C0.19762023738951484 2.404412657123032 0.2544123798603266 4.694822447191498 0.23046875 7.1015625 C0.2304183959960966 7.841872100830074 0.23036804199219318 8.582181701660161 0.230316162109375 9.344924926757813 C0.22667999480160006 11.77178203508015 0.20773473267104237 14.198228602873868 0.1875 16.625 C0.17998944850955922 18.279377061504604 0.17274683975827543 19.93375536100416 0.165771484375 21.588134765625 C-0.015355583274043738 53.15491352332796 -0.015355583274043738 53.15491352332796 -2 63 C-2.2844154044491916 65.81215281693699 -2.4102598413176253 68.61317778369084 -2.5 71.4375 C-2.5541406250000023 72.19482421875 -2.6082812500000045 72.9521484375 -2.6640625 73.732421875 C-2.8122553276013775 76.05847429101237 -2.8122553276013775 76.05847429101237 -2 79 C2.328654585909078 78.50928140135875 5.538553825640832 76.96099235395357 9.125 74.5 C11.342604750170779 73.03441535778694 13.201305582963357 71.9204140718517 15.6875 70.9375 C19.22633131522828 69.50283865598854 22.270298788965817 67.45940242206837 24 64 C25.956519245906037 63.21208048468037 27.941706099998996 62.49484260525122 29.9375 61.8125 C35.442371442767836 59.765432211577064 39.81534206632756 57.34399131456934 44.5078125 53.8515625 C47.276410702409635 51.794641578460556 50.11083003333988 49.88358873151088 53 48 C53.9075 47.40187499999999 54.815 46.80375000000001 55.75 46.1875 C58 45 58 45 60 46 C58.33049361951544 47.97478182775541 56.636706968103425 49.75733232245872 54.796875 51.56640625 C54.24388732910157 52.1198924255371 53.690899658203136 52.673378601074205 53.12115478515625 53.24363708496094 C51.94421722962744 54.418224244379076 50.76356150774586 55.589095285728604 49.57958984375 56.756591796875 C47.763564090250384 58.549111479105704 45.96112578612849 60.354476893204804 44.16015625 62.162109375 C43.01901823780145 63.297668499153104 41.877115636940005 64.43245990029129 40.734375 65.56640625 C40.19157897949219 66.11011367797852 39.648782958984384 66.65382110595704 39.08953857421875 67.21400451660156 C35.23097360905082 71 35.23097360905082 71 33 71 C32.3274140501988 72.33035723110459 31.66201688733092 73.66435189398146 31 75 C29.777400927928795 76.35754378201284 28.501752886317206 77.6684795265962 27.1875 78.9375 C26.47078125 79.6348828125 25.754062500000003 80.33226562499999 25.015625 81.05078125 C24.017890625000007 82.01564453124999 24.017890625000007 82.01564453124999 23 83 C22.154375 83.86624999999998 21.308750000000003 84.73250000000002 20.4375 85.625 C18.50471029297003 87.50823099659328 16.55573061727634 89.25815513288845 14.5 91 C7.778506270845909 96.69095830352114 7.778506270845909 96.69095830352114 3 104 C3.989999999999995 104.495 3.989999999999995 104.495 5 105 C3.6894537659857463 106.35573748346303 2.3525149712289277 107.68612831366335 1 109 C0.5049999999999955 110.48500000000001 0.5049999999999955 110.48500000000001 0 112 C-0.680624999999992 112.43312500000002 -1.3612499999999983 112.86624999999998 -2.0625 113.3125 C-4.90573358965753 115.78886473937914 -4.855429290455902 117.4227502399117 -4 121 C-0.5174528718488176 121.74751372563193 -0.5174528718488176 121.74751372563193 3 122 C3 128.48759457262918 2.7677734650384878 132.2417899665752 -4.5625 132.3125 C-11 132.11165845648603 -11 132.11165845648603 -11 129 C-11.804374999999993 129 -12.60875 129 -13.4375 129 C-16 129 -16 129 -17 127 C-17.659999999999997 127 -18.319999999999993 127 -19 127 C-18.79296875 124.91796875 -18.79296875 124.91796875 -18.1875 122.1875 C-17.995429687500007 121.29417968749999 -17.803359375 120.40085937499998 -17.60546875 119.48046875 C-17.000000000000014 117.00000000000003 -17.000000000000014 117.00000000000003 -16 114 C-16.21864615167945 111.82475110636858 -16.5203175128687 109.65724690803145 -16.875 107.5 C-17.058046875000002 106.3553125 -17.241093750000005 105.210625 -17.4296875 104.03125 C-17.934887025267287 100.96973325581473 -17.934887025267287 100.96973325581473 -19 98 C-19.470986116055542 91.4061943752225 -19.470986116055542 91.4061943752225 -17.5234375 89.7265625 C-15.1469292244376 87.0331864543626 -15.512087843845563 84.38877789225225 -15.375 80.875 C-15.043483972674721 73.15541250656858 -15.043483972674721 73.15541250656858 -11.0625 72.5625 C-3.0217140473148163 73.71118370752646 -4.881276724075519 91.35149654822936 -5 98 C-5 98.99000000000001 -5 99.98000000000002 -5 101 C-3.4215130150528523 97.8430260301057 -3.853270031222337 94.4641191893057 -3.875 91 C-3.879833984374997 90.21069091796875 -3.8846679687499943 89.4213818359375 -3.8896484375 88.608154296875 C-3.9147038805629393 86.07179179561291 -3.955079709261028 83.5360849250182 -4 81 C-4.0125683593749955 80.1332666015625 -4.025136718749991 79.266533203125 -4.0380859375 78.37353515625 C-4.084425646938797 75.85180382525925 -4.161709202989741 73.33307612493297 -4.25 70.8125 C-4.26401855468751 70.01650390625 -4.278037109374992 69.22050781249999 -4.29248046875 68.400390625 C-3.999860413972044 64.35027430972781 -3.999860413972044 64.35027430972781 -6.921875 62.88671875 C-9.137694794252113 63.944768460067905 -9.137694794252113 63.944768460067905 -11 66 C-13 65 -13 65 -14 62 C-15.499856092959035 60.332896536186865 -15.499856092959035 60.332896536186865 -17 59 C-13 59 -13 59 -12 61 C-11.009999999999991 61 -10.02000000000001 61 -9 61 C-14.85579259615018 56.9033223650749 -18.800962270324305 56.49870891838506 -25.8125 57.3125 C-27.099306640625002 57.394677734374994 -27.099306640625002 57.394677734374994 -28.412109375 57.478515625 C-34.70496989347883 58.13701322449464 -35.94157169635645 59.47677875272166 -37 66 C-37.66 66 -38.32 66 -39 66 C-39 66.66 -39 67.32 -39 68 C-43.614192164058636 66.46193594531377 -42.40149585020265 63.68979476382211 -42.49609375 59.25 C-43.19268922052051 56.13962022465262 -44.08141678699363 56.63567626798434 -47 56 C-50.3279588780174 49.849103241018426 -49.0411081183565 45.51462163079968 -44 41 C-43.175 40.113125 -42.35 39.22624999999999 -41.5 38.3125 C-39.00000000000001 36 -39.00000000000001 36 -36.650390625 34.64990234375 C-33.702957084966364 32.8150869546981 -31.5319145932052 30.75830173998135 -29.09375 28.2890625 C-28.1849609375 27.373828125000003 -27.276171875000003 26.458593750000006 -26.33984375 25.515625 C-25.393097935777277 24.552212276379493 -24.446484360119925 23.588669584884002 -23.5 22.625 C-22.553854543998483 21.66880640794639 -21.607243762978584 20.713073015334288 -20.66015625 19.7578125 C-18.90979991458275 17.990076739975763 -17.161512144548993 16.220288509141028 -15.416015625 14.44775390625 C-13.719348515001158 12.728798323706712 -12.01369324757421 11.01869036854913 -10.301513671875 9.315185546875 C-7.790668556262574 6.789425047102782 -5.567634931935402 4.121954572764395 -3.33203125 1.35546875 C-2 0 -2 0 0 0 Z " fill="#EAECEA" transform="translate(92,76)"/>
<path d="M0 0 C0.3299999999999983 0.990000000000002 0.6600000000000001 1.9799999999999969 1 3 C2.7015625000000014 3.9281250000000014 2.7015625000000014 3.9281250000000014 4.4375 4.875 C10.957408375239297 8.4556054191888 10.908880465445492 15.116567063170137 10 22 C9.340000000000003 22 8.68 22 8 22 C7.753839645603591 24.288619220881856 7.753839645603591 24.288619220881856 7.875 27 C7.902070312500001 28.392187500000006 7.902070312500001 28.392187500000006 7.9296875 29.8125 C7.952890624999995 30.534374999999997 7.976093750000004 31.256249999999994 8 32 C8.659999999999997 31.340000000000003 9.32 30.680000000000007 10 30 C11.2061010952401 34.66359090159506 12.225656351546988 39.243317588074376 13 44 C13.329999999999998 44.99000000000001 13.659999999999997 45.97999999999999 14 47 C9.828801931467439 45.609600643822475 9.69649866776303 43.423570207692194 8.16015625 39.51953125 C7.081735955561811 37.640295446571784 7.081735955561811 37.640295446571784 4.7421875 38.40234375 C1.9359678544808432 40.975760420442455 3.561114443393322 42.531029366635266 5.0625 45.75 C5.562656250000003 46.82249999999999 6.0628125 47.89500000000001 6.578125 49 C7.047343749999996 49.99000000000001 7.516562499999999 50.97999999999999 8 52 C8.433125000000004 53.2375 8.86625 54.474999999999994 9.3125 55.75 C11.89320643896152 59.19094191861535 14.996485318695122 59.265179964221886 19 58 C21.459011685626393 53.937285041139006 21.262238223571664 49.13121489677019 21.65625 44.48046875 C22.970078740157483 35 22.970078740157483 35 27 35 C27.103125 33.80375000000001 27.206249999999997 32.6075 27.3125 31.375 C27.539375 30.26124999999999 27.76625 29.147500000000008 28 28 C30.562499999999993 28.6875 30.562499999999993 28.6875 33 30 C33 29.340000000000003 33 28.680000000000007 33 28 C33.66 28 34.31999999999999 28 35 28 C35.33 27.340000000000003 35.66 26.680000000000007 36 26 C37.02479812123448 33.173586848641406 35.26476933778241 35.31202032640688 29.98046875 40.03515625 C27.21041104711278 42.7833594542451 26.22187539391159 45.33437381826525 25 49 C25.435703125000003 48.555273437500006 25.87140625 48.110546875 26.3203125 47.65234375 C30.417189640810875 43.75942369628578 32.23183235306734 42.311755810653864 38 44 C38.29814239699998 41.776393202250006 38.29814239699998 41.776393202250006 36 41 C38.125000000000014 39.124999999999986 38.125000000000014 39.124999999999986 41 37 C41.68062499999999 36.40187499999999 42.36125 35.80375000000001 43.0625 35.1875 C45.52965150890016 33.67537488164183 46.33182497821136 34.18457021163633 49 35 C45.64654203845794 38.42752346188192 42.28341704465035 41.84514529908998 38.910888671875 45.25390625 C37.76461014398389 46.415286619950024 36.6210365420456 47.57934315047761 35.480224609375 48.74609375 C33.84148887988343 50.42115087114914 32.19331821920161 52.08639414338606 30.54296875 53.75 C30.033481903076172 54.27497070312501 29.523995056152344 54.79994140625 28.999069213867188 55.3408203125 C25.34161512040997 59 25.34161512040997 59 22 59 C20.9083372474903 60.93330602555882 20.9083372474903 60.93330602555882 20 63 C19.009999999999998 63.495000000000005 19.009999999999998 63.495000000000005 18 64 C18 63.010000000000005 18 62.019999999999996 18 61 C15.663270158418243 61.30862469605796 13.330069105211571 61.64456572971349 11 62 C4.622690756226639 57.7484605041511 2.8404293595241086 48.01979363456482 0.4375 41 C0.14681640625000014 40.162109375 -0.14386718749999972 39.32421875 -0.443359375 38.4609375 C-1.02104981370789 36.79119242883536 -1.5942834839586837 35.11989813567564 -2.162841796875 33.447021484375 C-2.716865908866996 31.827603673206795 -3.283284350123992 30.212368476855943 -3.862548828125 28.601806640625 C-5.436122776112178 24.140604611210506 -6.373620965535636 20.208218838245017 -6.5625 15.4375 C-6.152896720918378 11.244692924411837 -6.152896720918378 11.244692924411837 -9 10 C-9.763201704135497 3.512785514848275 -7.717226545011741 -5.005768569737349 0 0 Z " fill="#DFE2DF" transform="translate(31,53)"/>
<path d="M0 0 C0.2587890625 2.500000000000014 0.2587890625 2.500000000000014 0.265625 6 C0.26957275390626023 7.273352050781256 0.27352050781249204 8.546704101562497 0.277587890625 9.858642578125 C0.2693988499187867 11.239101392510804 0.260185482685074 12.619554472445358 0.25 14 C0.2478952026367267 14.68484466552735 0.2457904052734392 15.369689331054687 0.243621826171875 16.075286865234375 C0.1323148584731939 46.67028264647651 0.1323148584731939 46.67028264647651 -5.375 47.25 C-8 47 -8 47 -9.417724609375 45.52783203125 C-11.333771423093083 43.67771307426068 -12.3243243756136 43.540894017707075 -14.94140625 43.3046875 C-15.689707031249995 43.228632812499995 -16.438007812500004 43.15257812499999 -17.208984375 43.07421875 C-17.985644531250003 43.00847656249999 -18.762304687500006 42.942734375 -19.5625 42.875 C-30 41.892444260941375 -30 41.892444260941375 -30 39 C-30.990000000000002 39 -31.979999999999997 39 -33 39 C-35.31375658102204 30.072491730759708 -28.268690550258725 25.374154572550594 -22.3125 19.8125 C-21.29309357081796 18.83327999498536 -20.27549558133434 17.852173656939215 -19.259765625 16.869140625 C-17.37954831964737 15.053923867067269 -15.488594382342825 13.253525408016174 -13.587158203125 11.460205078125 C-10.244473060508966 8.281547138883539 -6.982364527771878 5.038499643644556 -3.8125 1.6875 C-2 0 -2 0 0 0 Z " fill="#48B748" transform="translate(90,79)"/>
<path d="M0 0 C0.6599999999999966 0.9900000000000091 1.3199999999999932 1.9799999999999898 2 3 C3.9664051950437056 2.2680456608240718 3.9664051950437056 2.2680456608240718 6 1 C7.324228704526206 0.632158693187165 8.65613912192498 0.28797018815893693 10 0 C9 2 9 2 7 2 C6.311862750174271 3.657917171521092 5.649129862707213 5.326425190329417 5 7 C0.5093669295331438 13.599690290897172 -4.8989614076088515 19.97898167282625 -10.6015625 25.5703125 C-12.228894007024849 27.234008956902528 -13.365543937504697 29.097079997066146 -14.62109375 31.046875 C-17.224263049493857 34.73408363950972 -20.183529707886436 38.14622544381814 -23.07421875 41.609375 C-25.004981934399083 43.83260448488156 -25.004981934399083 43.83260448488156 -26 46 C-26.659999999999997 46 -27.319999999999993 46 -28 46 C-28 46.66 -28 47.31999999999999 -28 48 C-28.659999999999997 48 -29.319999999999993 48 -30 48 C-30.33 48.99000000000001 -30.659999999999997 49.97999999999999 -31 51 C-31.659999999999997 51 -32.31999999999999 51 -33 51 C-33.28874999999999 51.78375 -33.5775 52.567499999999995 -33.875 53.375 C-35.214487176848536 56.50047007931323 -36.07556996711824 56.58495320989593 -39 58 C-39.590700139431846 59.94603274232469 -39.590700139431846 59.94603274232469 -40 62 C-42.46428571428572 65 -42.46428571428572 65 -45 65 C-45.34716023767888 66.32980023246489 -45.677669650674744 67.66396405931849 -46 69 C-47.7753257608599 71.83575524217889 -49.90171806228456 74.39700882114141 -52 77 C-52.6097265625 77.76957031249998 -53.219453125 78.53914062500002 -53.84765625 79.33203125 C-54.4548046875 80.0680859375 -55.061953125 80.804140625 -55.6875 81.5625 C-56.52861328125 82.58537109374998 -56.52861328125 82.58537109374998 -57.38671875 83.62890625 C-59 85 -59 85 -62 84 C-60.70420050132621 80.92247619064975 -59.640851188239054 79.32042559411951 -56.625 77.8125 C-53.06234720187801 75.35257306796339 -52.10726624438212 72.42861376143048 -50.3203125 68.5625 C-48.72155932270408 65.45959442512981 -46.74946574809843 63.13427821930313 -44.40234375 60.578125 C-42.79601394172386 58.84356841415209 -42.79601394172386 58.84356841415209 -41 56 C-37.28669936186037 50.43004904279056 -32.78730292923737 45.66455157207744 -28 41 C-27.113124999999997 40.071875000000006 -26.226249999999993 39.14375000000001 -25.3125 38.1875 C-23 36 -23 36 -21 36 C-20.32558869018564 34.33645210245791 -19.659967904023773 32.66933058076603 -19 31 C-18.463750000000005 30.504999999999995 -17.92750000000001 30.00999999999999 -17.375 29.5 C-15.433281729881088 27.381761887143 -15.930120389527673 25.795184418892745 -16 23 C-14 20 -14 20 -12 20 C-12 19.340000000000003 -12 18.680000000000007 -12 18 C-10.545937500000008 18.030937499999993 -10.545937500000008 18.030937499999993 -9.0625 18.0625 C-5.634504975992826 18.47357078689862 -5.634504975992826 18.47357078689862 -5 15 C-4.340000000000003 15 -3.680000000000007 15 -3 15 C-2.6900820164089794 10.12617395081611 -2.6900820164089794 10.12617395081611 -5.875 7.6875 C-8.272295033196798 8.90357772469946 -8.272295033196798 8.90357772469946 -9.375 11.875 C-11.388921015062579 15.747925028966534 -13.077348344998597 16.274033271799368 -17 18 C-17.845624999999984 18.72187500000001 -18.691249999999997 19.443749999999994 -19.5625 20.1875 C-22.397100792962192 22.295280076818017 -23.591253388445466 22.094687405876527 -27 22 C-27.495000000000005 23.485000000000014 -27.495000000000005 23.485000000000014 -28 25 C-30.45806702117042 26.8344559375754 -32.99438633468466 28.30844287346727 -36 29 C-37.75837941816235 23.724861745512953 -34.79037722058895 21.26148737585561 -31 18 C-30.566874999999996 17.422500000000014 -30.133749999999992 16.845 -29.6875 16.25 C-28 15 -28 15 -24.5 14.8125 C-19.11473810642994 14.373700882746135 -15.639914802993331 11.156561509213333 -11.515625 7.91015625 C-9.366773844812798 6.278497531232091 -7.4068097109600615 5.167558753401892 -5 4 C-4.133749999999992 3.2368749999999977 -3.267499999999984 2.4737499999999955 -2.375 1.6875 C-1.5912500000000023 1.130625000000009 -0.8075000000000045 0.5737499999999898 0 0 Z " fill="#F4F4F4" transform="translate(152,143)"/>
<path d="M0 0 C-0.1856250000000017 1.0106250000000045 -0.3712500000000034 2.021249999999995 -0.5625 3.0625 C-0.7068749999999966 4.031874999999999 -0.8512500000000003 5.001249999999999 -1 6 C-0.00999999999999801 6 0.980000000000004 6 2 6 C2 6.659999999999997 2 7.319999999999993 2 8 C3.792699633554804 8.425209640510516 3.792699633554804 8.425209640510516 6.05078125 8.52734375 C7.316318359375003 8.632724609375003 7.316318359375003 8.632724609375003 8.607421875 8.740234375 C10.398869750113704 8.87087425614547 12.190538730139195 8.99851951672511 13.982421875 9.123046875 C14.829980468749994 9.194589843749995 15.677539062500003 9.266132812500004 16.55078125 9.33984375 C17.331066894531247 9.395192871093755 18.111352539062494 9.450541992187496 18.915283203125 9.507568359375 C21.4351387575972 10.102784269126772 22.21709220801523 11.19442682807933 24 13 C25.577812499999993 12.845312500000006 25.577812499999993 12.845312500000006 27.1875 12.6875 C31.581558379967902 13.175728708885316 30.531237558397066 15.32691831481398 30.30859375 19.15234375 C29.624099356407697 23.250645625558974 26.51746271559918 22.215354860138717 23 22 C22.340000000000003 21.340000000000003 21.680000000000007 20.680000000000007 21 20 C18.19922786085715 19.754417776951527 18.19922786085715 19.754417776951527 14.92578125 19.875 C13.087900390625009 19.89820312500001 13.087900390625009 19.89820312500001 11.212890625 19.921875 C8.632153595857588 19.973567279001344 6.051424248706681 20.025644651780226 3.470703125 20.078125 C-13.120579707967792 20.286492759283732 -13.120579707967792 20.286492759283732 -15.25 14.75 C-14.93956780912741 10.093517136911174 -13.2114263429023 8.100392985301951 -10 5 C-9.13375 4.071875000000006 -8.267499999999998 3.143749999999997 -7.375 2.1875 C-3.2407407407407405 -1.6203703703703667 -3.2407407407407405 -1.6203703703703667 0 0 Z " fill="#D6DBD6" transform="translate(58,112)"/>
<path d="M0 0 C0.730205278592365 7.886217008797644 0.730205278592365 7.886217008797644 -3 10 C-4.9996156433134615 10.039208149868898 -7.000493644336785 10.044433474570297 -9 10 C-9 10.659999999999997 -9 11.319999999999993 -9 12 C-9.659999999999997 12 -10.319999999999993 12 -11 12 C-11.549368812390668 14.14187758236298 -11.549368812390668 14.14187758236298 -11.875 16.75 C-12.667703885464078 21.119088857092777 -13.392367270272388 23.21696903706726 -17 26 C-20.47357557729555 29.38216569368251 -23.62464271244913 32.878515652080864 -26.66796875 36.64453125 C-28 38 -28 38 -30 38 C-31.150083099284302 39.96672915328094 -31.150083099284302 39.96672915328094 -32 42 C-32.33 41.34 -32.66 40.68000000000001 -33 40 C-33.989999999999995 40 -34.980000000000004 40 -36 40 C-36 38 -36 38 -34 37 C-33.64368712817122 34.647663933992305 -33.64368712817122 34.647663933992305 -33.5625 31.875 C-33.00014302072775 24.53576484678581 -32.04073303060687 19.520366515303436 -25 16 C-24.67 15.340000000000003 -24.340000000000003 14.680000000000007 -24 14 C-22.948125000000005 13.731875000000002 -21.896249999999995 13.463750000000005 -20.8125 13.1875 C-16.334528320815764 11.792721935991807 -14.46457660651015 10.070874719406703 -11 7 C-10.009999999999991 6.6699999999999875 -9.02000000000001 6.340000000000003 -8 6 C-7.5049999999999955 5.009999999999991 -7.009999999999991 4.02000000000001 -6.5 3 C-4.822140452079111 -0.35571909584180617 -3.657177854453664 -1.828588927226832 0 0 Z " fill="#E9EAEA" transform="translate(149,151)"/>
<path d="M0 0 C0.32131021627114364 4.470422277968424 0.27874439208763135 8.95700564309773 0.3125 13.4375 C0.34150390624999716 14.716894531250006 0.3705078124999943 15.996289062499997 0.400390625 17.314453125 C0.4087695312500017 18.529394531250006 0.4171484375000034 19.744335937499997 0.42578125 20.99609375 C0.44036376953124545 22.12200927734375 0.4549462890625051 23.2479248046875 0.469970703125 24.407958984375 C-0.13370880143749275 27.737447451876264 -0.7165988571489947 27.905404215181676 -4 28 C-8.362381234355482 26.54587292188151 -7.798149482947878 24.2064768096824 -9 20 C-9.989999999999995 19.67 -10.980000000000004 19.340000000000003 -12 19 C-12 19.659999999999997 -12 20.319999999999993 -12 21 C-18.517241379310335 21.48275862068965 -18.517241379310335 21.48275862068965 -21 19 C-20.687916192918593 15.440758485904837 -18.97767258567339 13.51352757798415 -16.625 10.9375 C-16.019140625000006 10.265898437499999 -15.413281249999997 9.594296874999998 -14.7890625 8.90234375 C-13.662457799924098 7.70440381782322 -12.513865505425045 6.526418274064312 -11.3359375 5.37890625 C-9.883782959447231 4.018545014050602 -9.883782959447231 4.018545014050602 -9 2 C-6.672839997329376 1.6259921424279327 -4.338821384818743 1.292352673102343 -2 1 C-1 0 -1 0 0 0 Z " fill="#19C319" transform="translate(88,88)"/>
<path d="M0 0 C1.875 0.75 1.875 0.75 4 2 C4.659999999999997 2.3300000000000125 5.319999999999993 2.6599999999999966 6 3 C6 3.990000000000009 6 4.97999999999999 6 6 C6.659999999999997 6 7.319999999999993 6 8 6 C10.384417844474797 12.311694294197991 12.885648250179315 21.171527624731027 9 27 C8.322150082478132 29.330109091481432 7.6558320728045715 31.663598240633746 7 34 C6.525625000000005 34.763125 6.051249999999996 35.526250000000005 5.5625 36.3125 C4.591115009330778 38.28927689150879 4.591115009330778 38.28927689150879 7.3125 38.8125 C11.32399676098845 40.5850218246228 10.620467007409545 42.901043680023065 11 47 C11.659999999999997 47 12.319999999999993 47 13 47 C13.30078125 48.96875 13.30078125 48.96875 13.3125 51.5 C13.329257812500003 52.335312499999986 13.346015625000007 53.170625 13.36328125 54.03125 C13 56 13 56 10 56 C10.00879316553258 60.88074575245187 10.00879316553258 60.88074575245187 14 63 C14 63.99000000000001 14 64.98000000000002 14 66 C17.718320320535753 64.47886895978081 20.882056449537345 62.51833902152754 24 60 C24 65.96233221886831 18.335681361060523 67.87873451452134 13 68 C12.670000000000002 67.00999999999999 12.340000000000003 66.01999999999998 12 65 C11.340000000000003 64.67000000000002 10.680000000000007 64.34 10 64 C-0.7437737441958632 38.11566061629378 -0.7437737441958632 38.11566061629378 4 31 C5.200174308875518 25.908814715215925 5.183352198359046 20.82634325775996 5.1875 15.625 C5.199746093749994 14.793554687500006 5.211992187500002 13.962109375000011 5.224609375 13.10546875 C5.229625450789186 11.068941979588686 5.125708927133942 9.032649431962398 5 7 C4.340000000000003 7 3.680000000000007 7 3 7 C2.6666666666666714 5.666666666666657 2.3333333333333286 4.333333333333343 2 3 C1.3400000000000034 3 0.6800000000000068 3 0 3 C0 2.009999999999991 0 1.0200000000000102 0 0 Z " fill="#F4F4F3" transform="translate(66,168)"/>
<path d="M0 0 C1.6056291900618476 3.5447948785423478 0.713838543778337 5.028353535448133 -1.625 7.9375 C-2.1792968750000057 8.63230468750001 -2.733593749999997 9.327109374999992 -3.3046875 10.04296875 C-5.418815841631371 12.483471743450025 -7.717667578869964 14.717667578869964 -10 17 C-10.680964218722593 18.326088215407168 -11.353305857815116 19.656866012385223 -12 21 C-12.659999999999997 21 -13.319999999999993 21 -14 21 C-14 21.659999999999997 -14 22.319999999999993 -14 23 C-19.42859003570122 23 -18.72244881534148 21.815385234482108 -20 17 C-20.33 16.670000000000016 -20.659999999999997 16.340000000000003 -21 16 C-21.317916291534928 5.98563681664956 -21.317916291534928 5.98563681664956 -14.6875 5.125 C-8.815933638004651 4.185549382080751 -5.696851387822861 -1.231751651421149 0 0 Z " fill="#DEE1DE" transform="translate(101,206)"/>
<path d="M0 0 C-1.6695063804845347 1.9747818277553932 -3.3632930318965464 3.7573323224587085 -5.203125 5.56640625 C-5.756112670898432 6.1198924255371026 -6.309100341796864 6.673378601074205 -6.87884521484375 7.2436370849609375 C-8.05578277037256 8.418224244379104 -9.236438492254138 9.589095285728604 -10.42041015625 10.756591796875 C-12.236435909749616 12.549111479105676 -14.038874213871509 14.354476893204804 -15.83984375 16.162109375 C-16.980981762198553 17.297668499153104 -18.122884363059995 18.432459900291263 -19.265625 19.56640625 C-19.808421020507808 20.110113677978518 -20.351217041015616 20.653821105957036 -20.91046142578125 21.214004516601563 C-24.76902639094918 25 -24.76902639094918 25 -27 25 C-27.309375000000003 25.639375 -27.618750000000006 26.278750000000002 -27.9375 26.9375 C-29 29 -29 29 -32 30 C-32 29.340000000000003 -32 28.680000000000007 -32 28 C-32.680625000000006 27.91749999999999 -33.36125 27.835000000000008 -34.0625 27.75 C-37.54716457174773 26.401097585129918 -36.03225790886472 23.97533161966888 -35 21 C-32.5625 19.8125 -32.5625 19.8125 -30 19 C-29.340000000000003 18.00999999999999 -28.680000000000007 17.02000000000001 -28 16 C-27.010000000000005 16 -26.019999999999996 16 -25 16 C-25 15.340000000000003 -25 14.680000000000007 -25 14 C-23.211669921875 12.611328125 -23.211669921875 12.611328125 -20.73046875 11.03125 C-19.841660156249986 10.460195312499991 -18.9528515625 9.88914062500001 -18.037109375 9.30078125 C-17.096738281249998 8.70652343750001 -16.156367187499995 8.112265624999992 -15.1875 7.5 C-13.794345703125003 6.608613281250001 -13.794345703125003 6.608613281250001 -12.373046875 5.69921875 C-10.642944180043486 4.592452693876197 -8.910943057633943 3.488645121901712 -7.176513671875 2.388671875 C-1.9244985461534725 -0.9622492730767362 -1.9244985461534725 -0.9622492730767362 0 0 Z " fill="#A4BEA4" transform="translate(152,122)"/>
<path d="M0 0 C1 2 1 2 0.9375 4.5 C1.0354704367323961 8.418817469295746 2.2999343196970017 8.928564726499701 6.0625 9.3125 C10.423491275045336 10.07394292103966 13.10461270566131 11.593733366603686 16.7890625 13.94140625 C19.41124013451784 15.196901195148996 21.12891120957326 15.429183375888528 24 15 C24.82888749217085 12.02685531648369 24.82888749217085 12.02685531648369 25 9 C26 9 26 9 26.1875 12.6875 C26.029485875577095 21.583695205009832 26.029485875577095 21.583695205009832 21.5625 22.5 C19 22 19 22 17.586181640625 20.51220703125 C15.666950929538743 18.682483308844553 14.66530243716565 18.539957778587123 12.05859375 18.3046875 C11.310292968750005 18.228632812499995 10.561992187499996 18.152578125000005 9.791015625 18.07421875 C9.014355468749997 18.008476562499993 8.237695312499994 17.942734375 7.4375 17.875 C-3 16.892444260941375 -3 16.892444260941375 -3 14 C-3.990000000000002 14 -4.979999999999997 14 -6 14 C-7.089342722194658 6.979791345856668 -5.558437591500301 4.310625070959418 0 0 Z " fill="#9ABB9A" transform="translate(63,104)"/>
<path d="M0 0 C2.9798182246088913 2.9166621543377858 2.845320616889893 6.0208853691800925 3.02734375 9.984375 C3.070688476562495 10.70334960937501 3.114033203125004 11.422324218749992 3.15869140625 12.1630859375 C4.062971073738055 30.669850639241815 4.062971073738055 30.669850639241815 -0.97265625 37.984375 C-1.6326562499999966 37.984375 -2.292656249999993 37.984375 -2.97265625 37.984375 C-2.97265625 36.99437499999999 -2.97265625 36.00437500000001 -2.97265625 34.984375 C-3.6326562499999966 34.984375 -4.292656249999993 34.984375 -4.97265625 34.984375 C-6.2852581675032155 31.56824436854933 -6.17365305886365 27.9774439455675 -6.22265625 24.359375 C-6.248437499999994 23.21210937500001 -6.274218750000003 22.064843749999994 -6.30078125 20.8828125 C-5.97265625 17.984375 -5.97265625 17.984375 -2.97265625 15.984375 C-2.6218567385671463 12.4246831155655 -2.5361891166689645 8.969683536085881 -2.533203125 5.3984375 C-2.392428720445068 -0.018949930458973085 -2.392428720445068 -0.018949930458973085 0 0 Z " fill="#D6DBD6" transform="translate(80.97265625,150.015625)"/>
<path d="M0 0 C4.5383271948866835 2.333996843084577 4.1875 6.5445327501369945 4.1875 11.125 C4.847499999999997 11.455000000000013 5.5075 11.784999999999997 6.1875 12.125 C6.1875 11.465000000000003 6.1875 10.805000000000007 6.1875 10.125 C6.847499999999997 9.794999999999987 7.5075 9.465000000000003 8.1875 9.125 C8.290624999999999 7.969999999999999 8.393749999999997 6.814999999999998 8.5 5.625 C11.043065784622662 0.35049318744930247 14.343390159808969 1.2837759651643808 19.828125 1.1953125 C23.188116521692578 1.21322540223278 23.188116521692578 1.21322540223278 26.4453125 0.53515625 C30.04708555248544 -0.0035704886196299412 31.276580024131604 1.0567147539882455 34.1875 3.125 C35.51358821540717 3.8059642187226075 36.84436601238522 4.478305857815116 38.1875 5.125 C33.3125 6.5 33.3125 6.5 32.1875 3.125 C31.19749999999999 3.4550000000000125 30.20750000000001 3.7849999999999966 29.1875 4.125 C29.847499999999997 4.784999999999997 30.507499999999993 5.444999999999993 31.1875 6.125 C29.39892578125 6.094062500000007 29.39892578125 6.094062500000007 27.57421875 6.0625 C16.69339943480729 5.363039929377294 16.69339943480729 5.363039929377294 11.78125 13.28515625 C10.480363081645194 17.316194003586276 6.768772988565651 16.522919220951735 3.1875 16.125 C1.367767901779935 12.258069291282368 1.1875 9.386229688924175 1.1875 5.125 C0.5275000000000034 5.125 -0.13250000000000028 5.125 -0.8125 5.125 C-2.503543549712404 0.17265817584222987 -2.503543549712404 0.17265817584222987 0 0 Z " fill="#E5E7E5" transform="translate(46.8125,131.875)"/>
<path d="M0 0 C-0.1856250000000017 1.0106250000000045 -0.3712500000000034 2.021249999999995 -0.5625 3.0625 C-0.7068749999999966 4.031874999999999 -0.8512500000000003 5.001249999999999 -1 6 C-0.00999999999999801 6 0.980000000000004 6 2 6 C2 6.659999999999997 2 7.319999999999993 2 8 C3.792699633554804 8.425209640510516 3.792699633554804 8.425209640510516 6.05078125 8.52734375 C7.316318359375003 8.632724609375003 7.316318359375003 8.632724609375003 8.607421875 8.740234375 C10.398869750113704 8.87087425614547 12.190538730139195 8.99851951672511 13.982421875 9.123046875 C14.829980468749994 9.194589843749995 15.677539062500003 9.266132812500004 16.55078125 9.33984375 C17.331066894531247 9.395192871093755 18.111352539062494 9.450541992187496 18.915283203125 9.507568359375 C21.43683927007612 10.103185947739021 22.219821653168452 11.187493589991448 24 13 C25.07249999999999 12.958749999999995 26.14500000000001 12.917500000000004 27.25 12.875 C30 13 30 13 30.3125 15.625 C28.115204218062132 19.601059033982807 25.692770264868983 17.450731175484236 22 16 C21.67 15.670000000000002 21.340000000000003 15.340000000000003 21 15 C19.472186840625398 14.949484502445358 17.94209261686953 14.964351858137633 16.4140625 15.0078125 C15.483359374999992 15.024570312500003 14.552656249999998 15.041328125000007 13.59375 15.05859375 C11.622201097337054 15.102694185980624 9.650812723935445 15.15471658799666 7.6796875 15.21484375 C6.746406250000007 15.229023437500004 5.813124999999999 15.243203125000008 4.8515625 15.2578125 C3.9938525390625017 15.279887695312496 3.1361425781250034 15.301962890624992 2.25244140625 15.32470703125 C-2.2198463949137945 14.679991794359921 -2.9225459371496214 12.571223713521562 -3.5 8.3125 C-3.5162891260292994 4.505600456656708 -3.5162891260292994 4.505600456656708 -7 5 C-3.259999999999998 -1.6299999999999955 -3.259999999999998 -1.6299999999999955 0 0 Z " fill="#B6C7B6" transform="translate(58,112)"/>
<path d="M0 0 C0.3299999999999983 0.990000000000002 0.6600000000000001 1.9799999999999969 1 3 C2.778421217030811 3.97004793656226 4.557414990605622 4.939134861778825 6.34375 5.89453125 C9.727300938346325 8.15289189988681 10 11.184497120021746 10 15 C8 15 8 15 5.8125 12.5625 C2.443241391750689 9.492731045817294 0.5526064448759733 8.686772035821107 -4 9 C-4.245367724148874 12.356766781758907 -4.051303738857047 14.790322205145884 -3.5 18.0625 C-3.3814062500000013 18.922949218750006 -3.262812499999999 19.783398437499997 -3.140625 20.669921875 C-2.7956524220320773 23.12035208915259 -2.4075652708511406 25.55928705784936 -2 28 C-1.8040625000000006 29.1949609375 -1.6081250000000011 30.389921875 -1.40625 31.62109375 C-1.2721875000000011 32.406132812500005 -1.1381249999999987 33.19117187500001 -1 34 C-5.492501222435912 27.26124816634612 -6.362718319224118 20.28674625156006 -6.69140625 12.30859375 C-6.65597649943442 9.66960536545973 -6.65597649943442 9.66960536545973 -9 10 C-9.763201704135497 3.512785514848275 -7.717226545011741 -5.005768569737349 0 0 Z " fill="#E3E5E3" transform="translate(31,53)"/>
<path d="M0 0 C1.2993749999999977 0.24750000000000227 1.2993749999999977 0.24750000000000227 2.625 0.5 C8.435629022514789 4.169870961588288 7.24641033853699 14.012460519082083 7.375 20.25 C7.40118408203125 21.03052734375001 7.4273681640625 21.81105468749999 7.454345703125 22.615234375 C7.469055859378926 27.69296238561438 6.770247284999527 30.274459204545906 3 34 C3.0721874999999983 33.3709375 3.1443749999999966 32.74187499999999 3.21875 32.09375 C4.072928208664166 24.21632874231929 4.212438969383314 16.821268883487335 3.375 8.9375 C3.258984374999997 7.79152343749999 3.1429687499999943 6.645546875000008 3.0234375 5.46484375 C2.2472249387675305 2.5730812319954453 2.2472249387675305 2.5730812319954453 -1.04296875 2.69921875 C-5.37308680778996 4.6040130871784015 -4.701426300641387 6.3350259909091164 -4.6875 10.875 C-4.710137697856538 18.224705904089234 -4.710137697856538 18.224705904089234 -8 21 C-8.730418532453882 24.610230992163707 -8.730418532453882 24.610230992163707 -9 28 C-12.638443459079966 22.542334811380044 -12.61203318841548 19.48261466807608 -9.05078125 14 C-7.421050036836547 10.898058062677734 -7.015268887851519 7.6717669773099715 -6.4921875 4.234375 C-5.481986969523447 -0.3516147097824671 -4.311628306890157 -1.6014619425592116 0 0 Z " fill="#E6E8E6" transform="translate(82,146)"/>
<path d="M0 0 C0.3203512895381948 3.4889569409566263 0.27869901874704794 6.998218342194747 0.3125 10.5 C0.34150390624999716 11.5016015625 0.3705078124999943 12.503203124999999 0.400390625 13.53515625 C0.4087695312500017 14.482617187499997 0.4171484375000034 15.430078124999994 0.42578125 16.40625 C0.44036376953124545 17.286035156249994 0.4549462890625051 18.165820312500003 0.469970703125 19.072265625 C0 21 0 21 -4 21 C-4.730802664248387 19.022533967327902 -5.3942174671846175 17.01927510938461 -6 15 C-6.989999999999995 14.340000000000003 -7.980000000000004 13.680000000000007 -9 13 C-9 12.340000000000003 -9 11.680000000000007 -9 11 C-9.989999999999995 10.670000000000002 -10.980000000000004 10.340000000000003 -12 10 C-11.8125 8.1875 -11.8125 8.1875 -11 6 C-10.793750000000003 5.278125000000003 -10.587500000000006 4.556250000000006 -10.375 3.8125 C-8.186560032638113 0.9277382248411499 -5.445702440299996 1.3132456763909062 -2 1 C-1 0 -1 0 0 0 Z " fill="#0DC90E" transform="translate(88,88)"/>
<path d="M0 0 C1 3 1 3 1 4 C1.3299999999999983 4 1.6599999999999966 4 2 4 C2.2276142103155507 6.016011577080604 2.45081044860013 8.03302617699731 2.62109375 10.0546875 C3.4559698188881143 14.340958451611144 5.965957983959143 14.226655765671538 9.71875 14.125 C11.116738281250008 14.101796875000005 11.116738281250008 14.101796875000005 12.54296875 14.078125 C13.518789062500005 14.052343750000006 14.494609374999996 14.026562499999997 15.5 14 C17.42686135401533 13.94909217030343 19.353981709951412 13.906987855436483 21.28125 13.875 C22.566123046874992 13.8401953125 22.566123046874992 13.8401953125 23.876953125 13.8046875 C26 14 26 14 28 16 C29.216875 16.144374999999997 30.433750000000003 16.288749999999993 31.6875 16.4375 C32.780625 16.623125000000016 33.87375 16.808750000000003 35 17 C34 20 34 20 30.5 19.25 C27 18 27 18 26 17 C23.93690744905048 16.998112104181047 21.873700294453556 17.06007583365897 19.8125 17.1484375 C17.880534057816448 17.20199302406465 15.948568097377631 17.25554789234829 14.0166015625 17.30908203125 C12.671806945423981 17.353040208805766 11.327320640798817 17.407738147990187 9.9833984375 17.47314453125 C-1.5444735536660232 18.013071836378174 -1.5444735536660232 18.013071836378174 -3.5 13.6640625 C-3 10 -3 10 -1 7 C-2.980000000000004 7.989999999999995 -4.960000000000001 8.980000000000004 -7 10 C-6.546408197792353 5.766476512728602 -4.271220275323287 4.4534152064924655 -1 2 C-0.6700000000000017 1.3400000000000034 -0.3400000000000034 0.6800000000000068 0 0 Z " fill="#C4D0C4" transform="translate(53,112)"/>
<path d="M0 0 C2.1035228654879106 4.557632875223803 1.7039671587108742 9.944049261933685 -1 14 C-1.1443749999999966 15.072500000000005 -1.2887500000000003 16.144999999999996 -1.4375 17.25 C-1.6231250000000017 18.1575 -1.8087500000000034 19.064999999999998 -2 20 C-8.771210950461658 17.742929683179455 -7.596697177287975 6.9157119902403394 -5.8125 1.1875 C-3.604887387229553 -1.4768600498953646 -2.9627159759803448 -1.7776295855882012 0 0 Z " fill="#D5DAD5" transform="translate(35,66)"/>
<path d="M0 0 C0 2 0 2 -3 3 C-3.989999999999995 4.485000000000014 -3.989999999999995 4.485000000000014 -5 6 C-5.866250000000008 6.103125000000006 -6.732500000000002 6.206250000000011 -7.625 6.3125 C-11.439100254614033 7.416581652651416 -10.5844442735916 9.493334358450369 -10 13 C-9.010000000000005 13.330000000000013 -8.019999999999996 13.659999999999997 -7 14 C-5.515352539676954 18.453942380969153 -7.671914566121075 19.13629858015068 -11 22 C-14.875293191116171 22 -15.229180542815598 16.270476839768122 -16 13 C-15.832042511068181 5.44191299806792 -7.205133134375089 0 0 0 Z " fill="#E1E4E1" transform="translate(127,136)"/>
<path d="M0 0 C0.6848672513487415 1.324076685940895 1.3487020264541485 2.659092407405609 2 4 C3.8938239120915767 6.314939212866392 3.8938239120915767 6.314939212866392 7.0625 6.3125 C11.423491275045336 7.073942921039659 14.10461270566131 8.593733366603686 17.7890625 10.94140625 C20.41124013451784 12.196901195148996 22.12891120957326 12.429183375888528 25 12 C25.82888749217085 9.02685531648369 25.82888749217085 9.02685531648369 26 6 C28.484380482324525 6 27.19292796455045 10.083404776200027 27.23046875 11.95703125 C26.783163805717038 15.922124230677738 25.854487728525243 17.051269263711518 21.875 16.8125 C19 16 19 16 19 14 C16.609312661742138 12.893636047746782 16.609312661742138 12.893636047746782 14 12 C13.340000000000003 11.670000000000002 12.680000000000007 11.340000000000003 12 11 C9.504415781324681 10.765223784305803 7.010298207299698 10.61849452519013 4.5078125 10.4765625 C0.15725083634188763 9.649820252388963 -2.08789051924591 8.464841987431853 -1.8125 3.875 C-1 1 -1 1 0 0 Z " fill="#73B373" transform="translate(62,107)"/>
<path d="M0 0 C0 4.124051289896187 -1.787782545147678 4.85355658600993 -4.78515625 7.40234375 C-6.464652429707726 9.611070237139742 -6.187725105683697 10.557996226676195 -5 13 C-1.4917453038013235 13.989527179277587 -1.4917453038013235 13.989527179277587 2 14 C2 13.340000000000003 2 12.680000000000007 2 12 C5.888218023273026 11.874573612152489 5.971875102073398 12.679376163636647 6.3125 16.5625 C7.342391784588642 21.711958922943253 9.326063378463672 20.346217527521205 14 20 C12.664428660252213 24.006714019243347 11.972261876329867 23.722229432059976 8 23 C6.886250000000004 21.793437499999996 6.886250000000004 21.793437499999996 5.75 20.5625 C2.3876533362122956 17.42940424510691 0.5250904606350844 17.411690963492063 -3.9140625 17.3359375 C-7.641749138192864 16.73559845339966 -8.931839405615591 14.976968519509768 -9.1875 11.3125 C-7.413475143112763 6.363904346577712 -3.854397106426262 3.459299453147949 0 0 Z " fill="#34BA34" transform="translate(74,95)"/>
<path d="M0 0 C3.885620054175533 5.828430081263292 2.894463335426451 13.308092048222875 -1 19 C-4.714465882624268 19 -3.497988428417088 15.808991042602287 -3.75390625 12.84765625 C-3.8114475947982385 10.986032369078742 -3.8114475947982385 10.986032369078742 -5 10 C-5.2734375 7.71484375 -5.2734375 7.71484375 -5.375 4.9375 C-5.423984375000003 4.018398437499997 -5.472968750000007 3.099296874999993 -5.5234375 2.15234375 C-4.698393813474183 -1.2401866326546838 -3.099359853977731 -0.59101907125401 0 0 Z " fill="#CED6CE" transform="translate(81,169)"/>
<path d="M0 0 C0 3.7507784880351522 -0.7183886244939117 3.9325936653015248 -3.4375 6.3125 C-6.633971191460361 9.366618223419607 -8.107242202673461 11.388585285041245 -8 16 C-5.594258162226623 18.405741837773377 -4.96252915083619 18.207919237200187 -1.6875 18.3125 C3.1374188478881706 18.71329198097473 4.680200212327009 20.50075157515549 8 24 C11.250447089769622 24.16798469104532 11.250447089769622 24.16798469104532 14 24 C12.420098904010047 28.739703287969846 9.086360210150218 27.138450907255873 5 26 C2.987452176244375 24.685683053873873 0.9868973142952484 23.352781150158478 -1 22 C-3.330069105211578 21.64456572971349 -5.663270158418243 21.30862469605796 -8 21 C-12.398644652193788 18.663220028522048 -11.721328019720652 14.059352298475076 -10 10 C-6.938887447358383 6.352606568632098 -3.5614703012733173 3.154260448314659 0 0 Z " fill="#5AB35A" transform="translate(74,93)"/>
<path d="M0 0 C-2.1793510567411545 2.9666822513630393 -4.958984490594901 5.467847522116273 -7.5625 8.0625 C-8.292753906249999 8.821113281250007 -9.023007812499998 9.579726562500014 -9.775390625 10.361328125 C-10.847568359375003 11.437373046874995 -10.847568359375003 11.437373046874995 -11.94140625 12.53515625 C-12.598264160156248 13.199104003906257 -13.255122070312495 13.863051757812514 -13.931884765625 14.547119140625 C-16.489787538297946 16.344082828522147 -17.93687202760529 16.453136939132946 -21 16 C-23.677033291306287 10.645933417387397 -13.785709777307062 6.010602923187321 -9.875 3.625 C-9.146679687500011 3.1622265624999955 -8.418359374999994 2.699453125000005 -7.66796875 2.22265625 C-2.256502890173408 -1.128251445086704 -2.256502890173408 -1.128251445086704 0 0 Z " fill="#53AF54" transform="translate(152,122)"/>
<path d="M0 0 C2.9506357050942 4.808860481203141 -2.609880263998889 7.794234880543598 -5.953125 10.669921875 C-9.903047314501293 14.287273010171518 -10.464805899170244 16.791192297738263 -11 22 C-11.989999999999995 22.659999999999997 -12.980000000000004 23.319999999999993 -14 24 C-14.080326700780745 22.16736119700232 -14.138877738432456 20.333753864833326 -14.1875 18.5 C-14.2223046875 17.479062499999998 -14.257109374999999 16.458124999999995 -14.29296875 15.40625 C-14 13 -14 13 -11 13 C-11 12.340000000000003 -11 11.680000000000007 -11 11 C-10.340000000000003 11 -9.680000000000007 11 -9 11 C-8.566874999999996 9.669687499999995 -8.566874999999996 9.669687499999995 -8.125 8.3125 C-6.599403037400748 3.820464499013312 -5.105902263661221 0 0 0 Z " fill="#F1F2F1" transform="translate(81,62)"/>
<path d="M0 0 C4.567721074251125 1.1963079003990913 4.888882617866884 4.03506826861809 4.8125 8.25 C4.806054687499994 9.035039062500005 4.799609375000003 9.820078125000009 4.79296875 10.62890625 C4.450548848566697 14.825540855938328 4.096237666732762 14.6875 -0.375 14.6875 C-2.265895346430611 10.905709307138778 -5.3257091862869 1.5416526591883155 0 0 Z " fill="#D2D7D0" transform="translate(83.375,214.3125)"/>
<path d="M0 0 C0.20624999999999716 0.7218749999999972 0.4124999999999943 1.4437499999999943 0.625 2.1875 C2.964806366148622 5.271790209923196 5.002514598071556 2.5869040363150617 8 1 C14.231019602103643 1.1416140818659954 15 4.286391492000234 15 10 C16.66617115107175 10.04063832075785 18.333880948484193 10.042721001320913 20 10 C19 13 19 13 16.0625 13.125 C11.683279204403973 11.516306646515744 12.006541261723655 9.33587005050191 11 5 C10.010000000000005 4.670000000000002 9.019999999999996 4.340000000000003 8 4 C8 4.659999999999997 8 5.319999999999993 8 6 C1.4827586206896513 6.482758620689651 1.4827586206896513 6.482758620689651 -1 4 C-0.625 1.875 -0.625 1.875 0 0 Z " fill="#26BE27" transform="translate(68,103)"/>
<path d="M0 0 C0.09375 2.01171875 0.09375 2.01171875 -1.90625 3.01171875 C-2.9168750000000045 2.6404687499999966 -3.927499999999995 2.2692187500000003 -4.96875 1.88671875 C-8.249821289304279 0.3766324273466495 -8.249821289304279 0.3766324273466495 -8.90625 4.01171875 C-8.90625 3.021718749999998 -8.90625 2.031718749999996 -8.90625 1.01171875 C-9.607500000000002 1.1767187499999991 -10.308750000000003 1.3417187499999983 -11.03125 1.51171875 C-14.857399906058717 2.1771361249667365 -16.650718443954048 0.9801796908649933 -19.90625 -0.98828125 C-19.90625 -4.13943087663327 -1.852290353621953 -4.063861163765395 0 0 Z " fill="#F7F7F7" transform="translate(89.90625,46.98828125)"/>
<path d="M0 0 C1.2168750000000017 0.1443749999999966 2.4337500000000034 0.2887499999999932 3.6875 0.4375 C4.780625000000001 0.6231249999999875 5.873750000000001 0.8087500000000034 7 1 C5.570038463368462 5.289884609894614 4.1785166729702325 4.596930953281458 0 4 C-0.26804443359375796 3.3330712890625023 -0.5360888671875017 2.6661425781250045 -0.812255859375 1.97900390625 C-2.6856922192670254 -1.1424914962751416 -4.603301290955386 -0.33642566619070635 -8.06640625 -0.1015625 C-9.877216796875004 -0.001015625000007958 -9.877216796875004 -0.001015625000007958 -11.724609375 0.1015625 C-13.624365234375006 0.23691406250000568 -13.624365234375006 0.23691406250000568 -15.5625 0.375 C-18.06324878725161 0.5374027624394841 -20.56455422980782 0.6915227388130631 -23.06640625 0.8359375 C-24.736185302734377 0.9526782226562602 -24.736185302734377 0.9526782226562602 -26.439697265625 1.07177734375 C-29 1 -29 1 -30 -1 C-4.823383084577131 -4.823383084577117 -4.823383084577131 -4.823383084577117 0 0 Z " fill="#D0D7D0" transform="translate(81,130)"/>
<path d="M0 0 C0.990000000000002 0 1.9799999999999969 0 3 0 C3 0.6599999999999966 3 1.3199999999999932 3 2 C4.792699633554811 2.425209640510502 4.792699633554811 2.425209640510502 7.05078125 2.52734375 C7.894472656250002 2.5975976562500023 8.738164062500005 2.6678515625000045 9.607421875 2.740234375 C11.398869750113718 2.87087425614547 13.19053873013921 2.9985195167251106 14.982421875 3.123046875 C16.253759765625006 3.2303613281249994 16.253759765625006 3.2303613281249994 17.55078125 3.33984375 C18.331066894531247 3.395192871093755 19.111352539062494 3.450541992187496 19.915283203125 3.507568359375 C22.437762482957112 4.1034040201574555 23.223395526817967 5.181392542870896 25 7 C26.072500000000005 7 27.144999999999996 7 28.25 7 C29.1575 7 30.064999999999998 7 31 7 C30 10 30 10 26.6875 9.3125 C23 8 23 8 21.28125 6.91015625 C17.266351899333728 5.308321905042391 12.835674167075155 6.008176294814561 8.580078125 6.25390625 C2.305403838019295 6.450170211138314 2.305403838019295 6.450170211138314 2 2 C1.3400000000000034 2 0.6799999999999997 2 0 2 C0 1.3400000000000034 0 0.6800000000000068 0 0 Z " fill="#A7C0A7" transform="translate(57,118)"/>
<path d="M0 0 C9.28125 1.3508668664383592 9.28125 1.3508668664383592 9.28125 5.33203125 C5.223949883135958 7.070874157227443 1.6861035164950806 7.751541108713816 -2.71875 7.33203125 C-2.71875 6.672031250000003 -2.71875 6.01203125 -2.71875 5.33203125 C-3.3787499999999966 5.002031250000002 -4.038749999999993 4.672031250000003 -4.71875 4.33203125 C-7.312299003207471 -0.4228085892136946 -4.263571685115068 -0.20266978080652365 0 0 Z " fill="#F3F3F3" transform="translate(101.71875,50.66796875)"/>
<path d="M0 0 C1.8340888539431432 2.751133280914729 2.7990738250845055 4.890308723546951 3.8125 8 C4.107695312499999 8.866250000000008 4.402890624999998 9.732499999999987 4.70703125 10.625 C5.081002111172296 13.656657114570066 4.5012282355058915 14.344014409596099 2 16 C-1.2286458898237669 14.38567705508811 -0.8498903819080112 11.296609510687233 -1.4375 7.93359375 C-1.7574847651085435 5.679934901132128 -1.7574847651085435 5.679934901132128 -4 6 C-3.6464905146873576 2.4649051468735195 -3.1054108620329544 2.0702739080219885 0 0 Z " fill="#EAEBEA" transform="translate(110,146)"/>
<path d="M0 0 C0 0.990000000000002 0 1.9799999999999969 0 3 C-2.3333333333333357 2.6666666666666643 -4.666666666666664 2.3333333333333357 -7 2 C-7 2.990000000000002 -7 3.979999999999997 -7 5 C-7.474375000000002 5.391874999999999 -7.94875 5.783749999999998 -8.4375 6.1875 C-10.948463473525866 9.10021762929 -10.690607494482201 12.225411432682847 -11 16 C-14.415697011443026 10.876454482835463 -16.022521839304634 5.727570737739377 -11 1.4375 C-7.307295317940184 -0.182237667382374 -4.022034536856022 -0.5745763624080027 0 0 Z " fill="#F5F5F5" transform="translate(30,42)"/>
<path d="M0 0 C2 1 2 1 2.75 4 C4.77819240696779 8.867661776722684 8.215244335025432 8 13 8 C13 12.137298903861037 10.1088292542182 14.649421783395994 7 17 C5.8125 14.875 5.8125 14.875 5 12 C4.340000000000003 11.670000000000002 3.6799999999999997 11.340000000000003 3 11 C2.1484375 8.49609375 2.1484375 8.49609375 1.375 5.4375 C1.1146093750000006 4.425585937500003 0.8542187500000011 3.4136718750000057 0.5859375 2.37109375 C0.392578125 1.5886328124999949 0.19921875 0.806171875000004 0 0 Z " fill="#E9EAE9" transform="translate(36,106)"/>
<path d="M0 0 C1.7204788610963249 5.2761351740287665 1.1618962833250635 6.8883151568215695 -4 9 C-7 9 -7 9 -8.0625 6.25 C-7.980877368399973 2.005623156798947 -4.488664219437396 -2.244332109718698 0 0 Z " fill="#F6F6F6" transform="translate(134,56)"/>
<path d="M0 0 C-2.75 4 -2.75 4 -5 4 C-5.123750000000001 4.618750000000006 -5.247500000000002 5.237499999999997 -5.375 5.875 C-6.5811587237729725 9.975939660828075 -11.079089905917016 10.673257492159749 -15 11 C-15 10.010000000000005 -15 9.019999999999996 -15 8 C-14.009999999999991 8 -13.02000000000001 8 -12 8 C-12 7.340000000000003 -12 6.680000000000007 -12 6 C-10.349971721383014 4.646130643186055 -8.682561299994717 3.3132185756056316 -7 2 C-5.414733731149539 -1.1705325377009217 -3.258674185374616 -0.13866698661168186 0 0 Z " fill="#F8F8F8" transform="translate(162,112)"/>
<path d="M0 0 C0.15607655704879164 2.49422344052968 0.23189683565870212 4.941526216444288 0.25 7.4375 C0.27062499999999545 8.144550781250004 0.2912500000000051 8.851601562500008 0.3125 9.580078125 C0.35309119471841655 14.882302935093861 0.35309119471841655 14.882302935093861 -3 16 C-3.73046875 14.26953125 -3.73046875 14.26953125 -4.1875 11.8125 C-4.346054687500001 11.014570312499998 -4.504609375000001 10.216640624999997 -4.66796875 9.39453125 C-5.214861195952253 5.450471610367856 -5.553862400136964 0 0 0 Z " fill="#05CC05" transform="translate(88,92)"/>
<path d="M0 0 C0.15009138055516758 4.953015558320374 -3.0375676988740423 7.3359488364594085 -6.40625 10.44921875 C-8.101352319489152 11.928404296396423 -8.101352319489152 11.928404296396423 -9 14 C-9.659999999999997 14 -10.319999999999993 14 -11 14 C-10.23220043737318 8.625403061612218 -6.3665895962185175 0 0 0 Z " fill="#D8DCD8" transform="translate(84,189)"/>
<path d="M0 0 C1 2 1 2 1 6 C1.9899999999999949 6.3300000000000125 2.980000000000004 6.659999999999997 4 7 C5.366082088374583 11.098246265123748 4.1404344008632705 11.397925782141868 1 14 C-2.8824341215426728 14 -2.0212334430681835 9.596564581704456 -2.1875 6.4375 C-2 3 -2 3 0 0 Z " fill="#D6DBD6" transform="translate(116,143)"/>
<path d="M0 0 C4.987573045641739 4.987573045641724 -3.6280099021431766 12.062662838086666 -7.1875 15.8125 C-7.1875 12.398274017166457 -6.450676860710203 9.9704421517755 -5.1875 6.8125 C-4.527500000000003 6.8125 -3.8674999999999997 6.8125 -3.1875 6.8125 C-3.0018749999999983 5.018124999999998 -3.0018749999999983 5.018124999999998 -2.8125 3.1875 C-2.1875 -0.1875 -2.1875 -0.1875 0 0 Z " fill="#DEE1DE" transform="translate(61.1875,81.1875)"/>
<path d="M0 0 C-1.6900815927249937 1.9769020090086258 -3.3884963277765507 3.7573372379527967 -5.25 5.5625 C-5.766914062500007 6.0826367187499955 -6.283828125000014 6.602773437499991 -6.81640625 7.138671875 C-10.733402277195268 11 -10.733402277195268 11 -13 11 C-14.04562672259479 5.878201307967856 -11.798557674699168 4.624843028804392 -7.625 2.125 C-6.627265625000007 1.5088281249999937 -5.629531250000014 0.8926562500000017 -4.6015625 0.2578125 C-2 -1 -2 -1 0 0 Z " fill="#37B437" transform="translate(152,122)"/>
<path d="M0 0 C1 0 1 0 1.5 3.5625 C1.5 9.101054125251721 -1.9445840852332736 11.689456396108795 -6 15 C-6 11.747780062943704 -5.313640095912895 9.818805060100857 -4.125 6.8125 C-3.7769531249999986 5.911445312500007 -3.428906249999997 5.010390624999999 -3.0703125 4.08203125 C-2 2 -2 2 0 2 C0 1.3400000000000034 0 0.6800000000000068 0 0 Z " fill="#E9EAE9" transform="translate(66,79)"/>
<path d="M0 0 C2 1 2 1 1.9375 3.5 C1.6177638266002674 6.395078913664719 1.6177638266002674 6.395078913664719 5 7 C3.253709681979018 10.201532249705139 2.766102506950247 11 -1 11 C-1.3299999999999983 10.009999999999991 -1.6599999999999966 9.02000000000001 -2 8 C-2.6599999999999966 7.6699999999999875 -3.319999999999993 7.340000000000003 -4 7 C-3.8125 4.8125 -3.8125 4.8125 -3 3 C-1.5150000000000006 3.990000000000009 -1.5150000000000006 3.990000000000009 0 5 C-0.06187500000000057 3.7315624999999955 -0.06187500000000057 3.7315624999999955 -0.125 2.4375 C-0.08374999999999488 1.6331250000000068 -0.04250000000000398 0.8287500000000136 0 0 Z " fill="#E4E6E4" transform="translate(81,223)"/>
<path d="M0 0 C0.3299999999999983 0.6599999999999966 0.6599999999999966 1.3199999999999932 1 2 C4.769494397649041 4.369637417761481 8.31810165926882 4.356182182612528 12.66015625 4.55859375 C15.379804428687507 5.07164924948529 16.281186576034884 5.886704806600264 18 8 C15.749280937153884 7.912739501574151 13.499366115231012 7.804558848853858 11.25 7.6875 C9.370546875000002 7.600488281249994 9.370546875000002 7.600488281249994 7.453125 7.51171875 C1.9146762347918624 6.690975776875263 0 5.763699574383423 0 0 Z " fill="#92B892" transform="translate(59,112)"/>
<path d="M0 0 C3.5938559915437054 0 2.8849351383037884 3.711634077788787 3.1796875 6.73046875 C2.898345599787291 10.283939272251871 0.9613486195923784 11.338755652423785 -2 13 C-2.0535543706622406 11.667091219073171 -2.0925863454567377 10.333590358351486 -2.125 9 C-2.148203125000002 8.257499999999993 -2.171406249999997 7.515000000000001 -2.1953125 6.75 C-2 5 -2 5 0 5 C0 4.174999999999997 0 3.3499999999999943 0 2.5 C0 1.6749999999999972 0 0.8499999999999943 0 0 Z M-4 13 C-3.009999999999998 13.329999999999998 -2.020000000000003 13.659999999999997 -1 14 C-1.6599999999999966 14.659999999999997 -2.3200000000000003 15.319999999999993 -3 16 C-3.3299999999999983 15.010000000000005 -3.6599999999999966 14.019999999999996 -4 13 Z " fill="#E0E2DF" transform="translate(49,87)"/>
<path d="M0 0 C-2.364531927804663 2.364531927804663 -3.2586992896117124 2.366527040042719 -6.5 2.6875 C-7.294062500000003 2.7738671875000023 -8.088124999999998 2.8602343749999974 -8.90625 2.94921875 C-11 3 -11 3 -13 2 C-13 -5.2937260286359376 -4.348560508353046 -1.9568522287588692 0 0 Z " fill="#F3F3F3" transform="translate(44,38)"/>
<path d="M0 0 C2.3143622006448084 3.4715433009671983 2.7278643017422155 6.468805270803898 3.25 10.5 C3.3531250000000057 11.1767578125 3.456249999999997 11.853515625 3.5625 12.55078125 C4.0801721393843025 16.410483818644735 4.233464421294386 17.64980336805843 2 21 C1.6476350275275564 22.99673484401049 1.311654406151888 24.99650738902355 1 27 C-1.001570391654468 27 -0.1758425992339454 24.010799139281005 -0.1875 22.5 C-0.20167968750000398 21.664687500000014 -0.21585937499999375 20.829375 -0.23046875 19.96875 C0 18 0 18 2 18 C1.777639720298538 15.963462724603005 1.777639720298538 15.963462724603005 1.125 13.5 C0.09211188303419249 8.852003473653866 -0.1758448857662671 4.74781191568934 0 0 Z " fill="#ECEDEC" transform="translate(73,174)"/>
<path d="M0 0 C-1.9024505517215857 4.842601404382236 -3.5150102618228516 8.885465222498397 -9 7 C-9.989999999999995 7.3300000000000125 -10.980000000000004 7.659999999999997 -12 8 C-12.6875 4.5625 -12.6875 4.5625 -13 1 C-11 2 -11 2 -11 5 C-7.702180614799644 3.8396561422443085 -3.005021458806411 0 0 0 Z " fill="#F6F7F6" transform="translate(90,231)"/>
<path d="M0 0 C-0.6599999999999966 0 -1.3199999999999932 0 -2 0 C-2 0.9900000000000091 -2 1.9799999999999898 -2 3 C-3.9914539134530713 4.016912636656883 -5.991870736883044 5.016426483371276 -8 6 C-8.329999999999998 6.990000000000009 -8.659999999999997 7.97999999999999 -9 9 C-6.583333333333329 9.916666666666657 -6.583333333333329 9.916666666666657 -4 10 C-4 9.340000000000003 -4 8.680000000000007 -4 8 C-3.3400000000000034 8 -2.680000000000007 8 -2 8 C-3.163031415348769 11.277633988710164 -3.580214932337327 11.860071644112452 -7 13 C-7 12.340000000000003 -7 11.680000000000007 -7 11 C-7.680625000000006 10.91749999999999 -8.361249999999998 10.835000000000008 -9.0625 10.75 C-12.547164571747729 9.401097585129918 -11.032257908864722 6.975331619668879 -10 4 C-7.5625 2.8125 -7.5625 2.8125 -5 2 C-3 -1 -3 -1 0 0 Z " fill="#B2C5B2" transform="translate(127,139)"/>
<path d="M0 0 C0 0.6599999999999966 0 1.3199999999999932 0 2 C1.7634374999999949 1.9690625000000068 1.7634374999999949 1.9690625000000068 3.5625 1.9375 C4.696875000000006 1.9581249999999955 5.831249999999997 1.9787500000000051 7 2 C5.664428660252213 6.006714019243347 4.972261876329867 5.722229432059976 1 5 C-0.11374999999999602 3.793437499999996 -0.11374999999999602 3.793437499999996 -1.25 2.5625 C-4.65253545420947 -0.6080444005133785 -6.710245139678534 -0.6539753081745516 -11.20703125 -0.859375 C-13 -1 -13 -1 -13 -2 C-3.2867715078630937 -4.497687326549496 -3.2867715078630937 -4.497687326549496 0 0 Z " fill="#3FB63F" transform="translate(81,113)"/>
<path d="M0 0 C-1.375 4 -1.375 4 -4 4 C-4.696583633291752 5.654386129067902 -5.360968830115766 7.322543179053895 -6 9 C-6.659999999999997 9.659999999999997 -7.32 10.319999999999993 -8 11 C-9.604449938195302 3.2694684796044555 -9.604449938195302 3.2694684796044555 -6 1 C-5.340000000000003 1 -4.68 1 -4 1 C-3 0 -3 0 0 0 Z " fill="#DEE1DE" transform="translate(52,119)"/>
<path d="M0 0 C-0.09375 1.84765625 -0.09375 1.84765625 -0.5 4.0625 C-0.6649999999999991 5.361874999999998 -0.8299999999999983 6.6612499999999955 -1 8 C-0.3400000000000034 8 0.3200000000000003 8 1 8 C1.75 10 1.75 10 2 12 C1.3400000000000034 12 0.6799999999999997 12 0 12 C0 11.010000000000005 0 10.019999999999996 0 9 C-0.990000000000002 9 -1.980000000000004 9 -3 9 C-3.3333333333333357 7.666666666666671 -3.6666666666666643 6.333333333333329 -4 5 C-4.990000000000002 5 -5.979999999999997 5 -7 5 C-3.259999999999998 -1.6299999999999955 -3.259999999999998 -1.6299999999999955 0 0 Z " fill="#B2C5B2" transform="translate(58,112)"/>
<path d="M0 0 C4.138473857481671 1.345004003681538 2.965696252060212 3.9538739115010912 2.5 7.8125 C0.5 9.8125 0.5 9.8125 -1.125 8.8125 C-3.4234167339635917 5.469348386962025 -4.425526569815844 1.4382961351901429 0 0 Z " fill="#C4CFC4" transform="translate(79.5,171.1875)"/>
<path d="M0 0 C2.012593237268625 3.018889855902941 2.265431109902927 3.938565760077921 2.5 7.375 C2.817498630227938 10.913666551449552 3.435711391893058 13.767136876578988 5 17 C-1.7419330126749415 14.752688995775017 -1.3894498757746874 5.93674037831002 0 0 Z " fill="#E0E2E0" transform="translate(40,83)"/>
<path d="M0 0 C1 2 1 2 1.5 4.0625 C2.369933031100615 7.433490495514903 2.825371400932738 6.978554382570692 6.5625 7.4375 C10 8 10 8 10 10 C0.8825065274151456 10.759791122715399 0.8825065274151456 10.759791122715399 -2 7 C-1.6808510638297847 1.6808510638297918 -1.6808510638297847 1.6808510638297918 0 0 Z " fill="#80B480" transform="translate(62,107)"/>
<path d="M0 0 C1 2 1 2 0 5 C-0.626484375000004 5.143085937500004 -1.252968750000008 5.286171874999994 -1.8984375 5.43359375 C-4.781549309638848 6.2106406131926235 -5.220275266669248 7.4932131490369756 -6.625 10.0625 C-8.797891036906847 14 -8.797891036906847 14 -11 14 C-10.36540107035546 8.338382098269278 -4.82384809784449 2.679915609913607 0 0 Z " fill="#36BA37" transform="translate(86,81)"/>
<path d="M0 0 C0.3300000000000125 0.9900000000000091 0.6599999999999966 1.9799999999999898 1 3 C3.000164662711171 4.208820963929071 3.000164662711171 4.208820963929071 5 5 C3.5276187153266676 5.580028990931908 2.0468045218745488 6.138700980211752 0.5625 6.6875 C-0.26121093750001023 7.000742187500009 -1.084921874999992 7.31398437499999 -1.93359375 7.63671875 C-4 8 -4 8 -5 5 C-4.340000000000003 5 -3.680000000000007 5 -3 5 C-3 4.009999999999991 -3 3.0200000000000102 -3 2 C-2.010000000000005 1.3400000000000034 -1.0200000000000102 0.6800000000000068 0 0 Z " fill="#98B998" transform="translate(130,134)"/>
<path d="M0 0 C0 3 0 3 -1.5625 5.375 C-3.7662630929312613 9.39926303926579 -2.3847654126231816 11.845703762130455 -1 16 C-1.6599999999999966 16 -2.3200000000000003 16 -3 16 C-3 15.340000000000003 -3 14.680000000000007 -3 14 C-3.990000000000002 14 -4.979999999999997 14 -6 14 C-7.106955473758056 6.866286946892515 -5.427434680640523 4.522862233867102 0 0 Z " fill="#9DBC9E" transform="translate(63,104)"/>
<path d="M0 0 C0 0.9899999999999949 0 1.980000000000004 0 3 C-0.6599999999999966 3 -1.3199999999999932 3 -2 3 C-2.3299999999999983 3.989999999999995 -2.6599999999999966 4.980000000000004 -3 6 C-4.319999999999993 6 -5.640000000000001 6 -7 6 C-7.329999999999998 6.659999999999997 -7.659999999999997 7.319999999999993 -8 8 C-9.125 4.25 -9.125 4.25 -8 2 C-5.672839997329376 1.6259921424279327 -3.3388213848187434 1.292352673102343 -1 1 C-0.6700000000000017 0.6700000000000017 -0.3400000000000034 0.3400000000000034 0 0 Z " fill="#15C315" transform="translate(87,88)"/>
<path d="M0 0 C0 1.3199999999999932 0 2.6399999999999864 0 4 C0.6599999999999966 4 1.3199999999999932 4 2 4 C1.6524352565773057 7.3597925197527445 0.35808346170736627 8.73623987676092 -2 11 C-3.175747109334722 13.099896520839565 -3.175747109334722 13.099896520839565 -4 15 C-3.5417753161825374 11.530584536810636 -3.1086831711984786 8.32604951359545 -2 5 C-2.0206249999999955 4.113124999999997 -2.041250000000005 3.226249999999993 -2.0625 2.3125 C-2 0 -2 0 0 0 Z " fill="#E3E5E3" transform="translate(78,185)"/>
<path d="M0 0 C-0.2737705762772933 1.3468253637549594 -0.6250697868415465 2.6777609050743365 -1 4 C-1.2182734160712734 6.080334286506464 -1.403803520215451 8.164274837117375 -1.5625 10.25 C-1.6462890624999993 11.327656250000004 -1.7300781249999986 12.4053125 -1.81640625 13.515625 C-1.8769921875000009 14.335468750000004 -1.9375781250000017 15.1553125 -2 16 C-4.3159028858056026 12.526145671291594 -4.2699183472076925 11.03569993798277 -4.25 6.9375 C-4.255156249999999 5.8740234375 -4.260312500000001 4.810546875 -4.265625 3.71484375 C-3.954103940722103 0.5309152764979643 -3.4496214703074273 -1.7248107351537172 0 0 Z " fill="#EFEFEF" transform="translate(23,48)"/>
<path d="M0 0 C2 0 2 0 2.3125 3.875 C2.7095882836040417 8.22006218020573 3.77029669808077 8.807006760997126 8 10 C8 10.990000000000009 8 11.97999999999999 8 13 C4.034402681109015 12.916689131956076 3.1496739796524196 11.057533807242834 1.75 7.625 C1.4148437500000028 6.83351562499999 1.0796874999999986 6.042031250000008 0.734375 5.2265625 C0 3 0 3 0 0 Z " fill="#F4F4F4" transform="translate(56,151)"/>
<path d="M0 0 C1 3 1 3 0 5 C0.3299999999999983 5.659999999999997 0.6599999999999966 6.319999999999993 1 7 C0.3400000000000034 7.659999999999997 -0.3200000000000003 8.319999999999993 -1 9 C-1 8.340000000000003 -1 7.680000000000007 -1 7 C-3.0327307399454284 7.931668255808319 -5.033843390754306 8.934998503325247 -7 10 C-6.546408197792353 5.766476512728602 -4.271220275323287 4.4534152064924655 -1 2 C-0.6700000000000017 1.3400000000000034 -0.3400000000000034 0.6800000000000068 0 0 Z " fill="#C9D2C8" transform="translate(53,112)"/>
<path d="M0 0 C0 8 0 8 -3.125 8.5 C-6 8 -6 8 -5.625 5.6875 C-3.989420444715819 2.982503043183854 -2.6414125601440617 1.6728946214245752 0 0 Z " fill="#EBECEB" transform="translate(63,96)"/>
<path d="M0 0 C4 0.5 4 0.5 4 3 C5.763437499999995 2.969062500000007 5.763437499999995 2.969062500000007 7.5625 2.9375 C8.696875000000006 2.9581249999999955 9.831249999999997 2.978750000000005 11 3 C9.660498664355487 7.01850400693354 8.97711762867877 6.6327232591079905 5 6 C0 2.6666666666666714 0 2.6666666666666714 0 0 Z " fill="#90B890" transform="translate(77,120)"/>
<path d="M0 0 C-1.0158459723178055 2.5396149307945137 -2.050952467749596 4.050952467749596 -4 6 C-3.6700000000000017 6.989999999999995 -3.3400000000000034 7.980000000000004 -3 9 C-4.319999999999993 9 -5.640000000000001 9 -7 9 C-7 4.7757162594526505 -4.692914985352104 0 0 0 Z " fill="#F2F3F2" transform="translate(72,88)"/>
<path d="M0 0 C1.1896103896103938 6.5428571428571445 1.1896103896103938 6.5428571428571445 -1.7890625 7.6875 C-3.877932201754845 7.923697280763804 -5.898818692366078 8.032830957931779 -8 8 C-7 6 -7 6 -3 6 C-1.75 0 -1.75 0 0 0 Z " fill="#32B732" transform="translate(89,80)"/>
<path d="M0 0 C5.570404329583255 1.0898617166575946 8.599945341644741 3.3003370598574406 7.625 9.3125 C7.418750000000003 9.869374999999991 7.212500000000006 10.42625000000001 7 11 C6.958749999999995 9.88624999999999 6.917500000000004 8.772500000000008 6.875 7.625 C5.730781115268073 2.8846646203963076 4.50908894593843 3.0553186894749444 0 2 C0 1.3400000000000034 0 0.6800000000000068 0 0 Z " fill="#EDEDEC" transform="translate(70,204)"/>
<path d="M0 0 C2.69632768361582 6.447740112994353 2.69632768361582 6.447740112994353 0.1875 8.4375 C-3.86300789345799 7.627398421308413 -5.290035345994653 0 0 0 Z " fill="#F0F1F0" transform="translate(112,154)"/>
<path d="M0 0 C1.3579283819788657 4.073785145936569 0.29598884247232604 4.115133800776533 -2.8125 6.75 C-3.5408203124999886 7.384218750000002 -4.269140625000006 8.018437500000005 -5.01953125 8.671875 C-7 10 -7 10 -9 9 C-7.26171875 6.828125 -7.26171875 6.828125 -4.6875 4.25 C-3.845742187500008 3.388906249999991 -3.0039843749999875 2.5278125000000102 -2.13671875 1.640625 C-1.431601562499992 1.0992187500000057 -0.7264843750000125 0.5578125000000114 0 0 Z " fill="#F2F2F2" transform="translate(138,135)"/>
<path d="M0 0 C7.75 -0.25 7.75 -0.25 10 2 C9.010000000000005 3.4849999999999994 9.010000000000005 3.4849999999999994 8 5 C8 4.009999999999998 8 3.020000000000003 8 2 C7.236874999999998 2.164999999999999 6.4737499999999955 2.3299999999999983 5.6875 2.5 C2.3696991594414385 3.1172652726620598 1.9626559006897395 2.5824419745917595 0 0 Z " fill="#F1F2F1" transform="translate(73,46)"/>
<path d="M0 0 C1 2 1 2 1 6 C1.9899999999999949 6.3300000000000125 2.980000000000004 6.659999999999997 4 7 C4.329999999999998 7.990000000000009 4.659999999999997 8.97999999999999 5 10 C4.010000000000005 10.330000000000013 3.019999999999996 10.659999999999997 2 11 C2 10.009999999999991 2 9.02000000000001 2 8 C1.0100000000000051 7.6699999999999875 0.01999999999999602 7.340000000000003 -1 7 C-1.461538461538467 1.4615384615384528 -1.461538461538467 1.4615384615384528 0 0 Z " fill="#C8D2C8" transform="translate(116,143)"/>
<path d="M0 0 C1.3399804687499994 -0.038671875000005684 1.3399804687499994 -0.038671875000005684 2.70703125 -0.078125 C5.587298521800548 0.3028867335925156 6.416259175526164 1.0138820156144277 8.1875 3.25 C3.3125 3.375 3.3125 3.375 2.1875 2.25 C1.0118750000000034 2.0849999999999937 -0.16374999999999318 1.9200000000000017 -1.375 1.75 C-8.819647907654243 0.6671421225230176 -2.710467075161617 0.04653162360791896 0 0 Z " fill="#89B689" transform="translate(68.8125,116.75)"/>
<path d="M0 0 C1.9799999999999969 0 3.960000000000001 0 6 0 C5.04578191815061 1.1492626583280412 4.086479554804214 2.294305409718433 3.125 3.4375 C2.591328125000004 4.075585937499994 2.057656250000001 4.713671875000003 1.5078125 5.37109375 C0 7 0 7 -2 8 C-0.7961855199007957 5.506384291223085 0.45428721852807996 3.318569172207887 2 1 C1.3400000000000034 0.6700000000000017 0.6799999999999997 0.3400000000000034 0 0 Z " fill="#D0D7D0" transform="translate(57,104)"/>
<path d="M0 0 C-3.4650000000000034 2.969999999999999 -3.4650000000000034 2.969999999999999 -7 6 C-5.822784810126578 -1.455696202531641 -5.822784810126578 -1.455696202531641 0 0 Z " fill="#D7DDD8" transform="translate(80,88)"/>
<path d="M0 0 C0 3 0 3 -3 4 C-3.3300000000000125 4.659999999999997 -3.6599999999999966 5.319999999999993 -4 6 C-2.063815751579938 6.67156616461196 -2.063815751579938 6.67156616461196 0 7 C-4.875 7.25 -4.875 7.25 -6 5 C-2.547619047619037 0 -2.547619047619037 0 0 0 Z " fill="#6FAF70" transform="translate(136,131)"/>
<path d="M0 0 C-0.041250000000005116 0.8043749999999932 -0.08249999999999602 1.6087499999999864 -0.125 2.4375 C-0.37996955277888844 5.391204133008898 -0.37996955277888844 5.391204133008898 3 6 C1.4202662667382242 8.07859701744971 0.6788235657223112 9 -2 9 C-2.01171875 7.03125 -2.01171875 7.03125 -1.6875 4.5 C-1.5882421875000006 3.6646875000000136 -1.4889843750000011 2.829374999999999 -1.38671875 1.96875 C-1 0 -1 0 0 0 Z " fill="#DEE1DD" transform="translate(83,224)"/>
<path d="M0 0 C0.6599999999999966 0 1.3199999999999932 0 2 0 C0.8369685846512311 3.277633988710164 0.4197850676626729 3.860071644112452 -3 5 C-3 4.340000000000003 -3 3.680000000000007 -3 3 C-4.980455587012571 2.3382015349221206 -4.980455587012571 2.3382015349221206 -7 2 C-5 1 -5 1 -2.375 1.5625 C-1.5912500000000023 1.7068749999999966 -0.8075000000000045 1.8512499999999932 0 2 C0 1.3400000000000034 0 0.6800000000000068 0 0 Z " fill="#BCCABC" transform="translate(123,147)"/>
<path d="M0 0 C0.9900000000000091 0.3300000000000125 1.9799999999999898 0.6599999999999966 3 1 C-0.4650000000000034 3.969999999999999 -0.4650000000000034 3.969999999999999 -4 7 C-3 3 -3 3 0 2 C0 1.3400000000000034 0 0.6800000000000068 0 0 Z " fill="#BCCABC" transform="translate(130,140)"/>
<path d="M0 0 C1 2 1 2 0 5 C-3.0625 6.1875 -3.0625 6.1875 -6 7 C-4.627471510186027 3.683056149616249 -3.13032942833712 1.8176106358086486 0 0 Z " fill="#61B661" transform="translate(86,81)"/>
<path d="M0 0 C0.3299999999999983 0.6599999999999966 0.6599999999999966 1.3199999999999932 1 2 C2.2993749999999977 1.7215625000000045 2.2993749999999977 1.7215625000000045 3.625 1.4375 C4.800624999999997 1.220937499999991 4.800624999999997 1.220937499999991 6 1 C4.687528295221114 4.937415114336687 3.871265991058152 4.694842613779656 0 4 C0 2.680000000000007 0 1.3600000000000136 0 0 Z " fill="#A7C0A7" transform="translate(118,145)"/>
<path d="M0 0 C-5.563218390804593 5.436781609195407 -5.563218390804593 5.436781609195407 -8 3 C-2.596491228070164 -1.298245614035082 -2.596491228070164 -1.298245614035082 0 0 Z " fill="#52AF52" transform="translate(152,122)"/>
<path d="M0 0 C-2.8896210049828994 1.9264140033219235 -4.584398740678864 2.7230593573523407 -8 3 C-8 -2.106850094870012 -4.038914109547875 -1.346304703182625 0 0 Z " fill="#D2D7D3" transform="translate(155,120)"/>
<path d="M0 0 C0 3.2185093403647613 -0.29802207152383176 3.897271522662024 -3.5625 4.375 C-6 4 -6 4 -6 2 C-3 0 -3 0 0 0 Z " fill="#F1F1F1" transform="translate(156,116)"/>
<path d="M0 0 C2.625 0.125 2.625 0.125 5 1 C3 4 3 4 0 3 C0 2.009999999999998 0 1.0200000000000031 0 0 Z " fill="#EFF0F0" transform="translate(129,59)"/>
<path d="M0 0 C0.625 2.125 0.625 2.125 -1.25 3.125 C-1.9512499999999875 3.125 -2.6525000000000034 3.125 -3.375 3.125 C-3.375 0.037431388819157974 -3.0084836815887854 -4.102477747621066 0 0 Z " fill="#43B044" transform="translate(139.375,130.875)"/>
<path d="M0 0 C-2.375 2.0625 -2.375 2.0625 -5 4 C-5 -0.29314212505909154 -4.307984719788664 -2.153992359894346 0 0 Z " fill="#F6F6F6" transform="translate(161,135)"/>
<path d="M0 0 C1.206562500000004 0.15468749999999432 1.206562500000004 0.15468749999999432 2.4375 0.3125 C1.4375 3.3125 1.4375 3.3125 -0.625 3.125 C-3.765338242417144 1.8080839628573244 -3.3359528929276365 0.40682352352776263 0 0 Z " fill="#1BC21C" transform="translate(85.5625,110.6875)"/>
<path d="M0 0 C-0.991602729655142 2.56164038494245 -1.4976883852734204 3.74884419263671 -4 5 C-2.8709677419354875 0 -2.8709677419354875 0 0 0 Z " fill="#23B525" transform="translate(146,126)"/>
<path d="M0 0 C1.1875 1.9375 1.1875 1.9375 2 4 C1.0100000000000051 4.3300000000000125 0.01999999999999602 4.659999999999997 -1 5 C-0.6875 2.5625 -0.6875 2.5625 0 0 Z " fill="#EAEBEA" transform="translate(84,182)"/>
<path d="M0 0 C-0.3125 2 -0.3125 2 -1 4 C-1.3299999999999983 3.3400000000000034 -1.6599999999999966 2.680000000000007 -2 2 C-2.6599999999999966 1.6699999999999875 -3.319999999999993 1.3400000000000034 -4 1 C-3 0 -3 0 0 0 Z " fill="#E7E9E7" transform="translate(91,183)"/>
<path d="M0 0 C1 3 1 3 -2 5 C-2 2 -2 2 0 0 Z " fill="#EBEDEB" transform="translate(138,135)"/>
<path d="M0 0 C-1 3 -1 3 -4 3 C-4 0.023854919466685942 -2.7402769367691775 0 0 0 Z " fill="#93B894" transform="translate(123,144)"/>
<path d="M0 0 C0 0.9900000000000091 0 1.9799999999999898 0 3 C-0.9900000000000091 3 -1.9799999999999898 3 -3 3 C-2 0 -2 0 0 0 Z " fill="#66B166" transform="translate(136,131)"/>
<path d="M0 0 C-0.3299999999999983 0.9899999999999949 -0.6599999999999966 1.980000000000004 -1 3 C-1.990000000000002 2.3400000000000034 -2.979999999999997 1.6800000000000068 -4 1 C-3 0 -3 0 0 0 Z " fill="#D5DBD5" transform="translate(52,119)"/>
</svg>
